<svg width="632" height="505" viewBox="0 0 632 505" fill="none" xmlns="http://www.w3.org/2000/svg">
<path d="M616 0.49231H16C7.16344 0.49231 0 7.65574 0 16.4923V372.862C0 381.699 7.16346 388.862 16 388.862H616C624.837 388.862 632 381.699 632 372.862V16.4923C632 7.65575 624.837 0.49231 616 0.49231Z" fill="#C9E0F4"/>
<path d="M630.902 16.0001C630.902 7.16355 623.739 0.00012207 614.902 0.00012207H561.482C554.825 0.00012207 548.864 4.12189 546.513 10.3499L412.172 366.26C408.222 376.725 415.955 387.91 427.141 387.91H614.902C623.739 387.91 630.902 380.747 630.902 371.91V16.0001Z" fill="#BEDBF4"/>
<rect x="63" y="194" width="40" height="8" rx="4" fill="#6E96B8"/>
<rect x="133" y="192" width="39" height="8" rx="4" fill="#6E96B8"/>
<rect x="133" y="245" width="39" height="8" rx="4" fill="#6E96B8"/>
<rect x="247" y="192" width="40" height="8" rx="4" fill="#6E96B8"/>
<rect x="326" y="192" width="40" height="8" rx="4" fill="#6E96B8"/>
<rect x="63" y="245" width="40" height="8" rx="4" fill="#6E96B8"/>
<rect x="63" y="207" width="24" height="7" rx="3.5" fill="#6E96B8"/>
<rect x="133" y="205" width="24" height="7" rx="3.5" fill="#6E96B8"/>
<rect x="133" y="258" width="24" height="7" rx="3.5" fill="#6E96B8"/>
<rect x="247" y="205" width="25" height="7" rx="3.5" fill="#6E96B8"/>
<rect x="326" y="205" width="25" height="7" rx="3.5" fill="#6E96B8"/>
<rect x="63" y="259" width="24" height="8" rx="4" fill="#6E96B8"/>
<path d="M131.012 66.9361C131.012 67.5821 131.525 68.0951 132.19 68.0951C132.836 68.0951 133.349 67.5821 133.349 66.9361V63.3641H136.294L139.524 67.4871C139.79 67.8481 140.132 68.0951 140.664 68.0951C141.234 68.0951 141.785 67.6581 141.785 67.0121C141.785 66.6511 141.633 66.4041 141.405 66.1191L138.859 62.9081C140.645 62.3571 141.88 61.0651 141.88 58.9371V58.8991C141.88 57.7401 141.481 56.7521 140.778 56.0301C139.923 55.1941 138.612 54.7001 136.94 54.7001H132.19C131.525 54.7001 131.012 55.2131 131.012 55.8781V66.9361ZM133.349 61.2931V56.8281H136.75C138.479 56.8281 139.505 57.6071 139.505 59.0321V59.0701C139.505 60.4191 138.441 61.2931 136.769 61.2931H133.349ZM146.02 62.2811C146.229 60.7231 147.217 59.6401 148.623 59.6401C150.143 59.6401 151.017 60.7991 151.169 62.2811H146.02ZM152.499 66.8981C152.67 66.7271 152.803 66.4801 152.803 66.1951C152.803 65.6631 152.404 65.2641 151.891 65.2641C151.625 65.2641 151.473 65.3401 151.302 65.4731C150.656 66.0051 149.896 66.3471 148.927 66.3471C147.445 66.3471 146.286 65.4351 146.039 63.8011H152.328C152.917 63.8011 153.411 63.3451 153.411 62.6991C153.411 60.3811 151.834 57.7591 148.642 57.7591C145.773 57.7591 143.74 60.1151 143.74 62.9841V63.0221C143.74 66.1191 145.982 68.2281 148.889 68.2281C150.447 68.2281 151.587 67.7151 152.499 66.8981ZM165.618 59.0131C165.618 58.3671 165.105 57.8541 164.459 57.8541C163.832 57.8541 163.319 58.3671 163.319 58.9941V59.5261C162.597 58.5761 161.552 57.7591 159.899 57.7591C157.505 57.7591 155.244 59.6401 155.244 62.9651V63.0031C155.244 66.3281 157.543 68.2091 159.899 68.2091C161.533 68.2091 162.578 67.3731 163.319 66.3281V69.9951C163.319 70.6411 163.832 71.1351 164.478 71.1351C165.105 71.1351 165.618 70.6411 165.618 69.9951V59.0131ZM160.45 59.7541C161.989 59.7541 163.357 61.0271 163.357 62.9651V63.0031C163.357 64.9221 161.989 66.2141 160.45 66.2141C158.892 66.2141 157.562 64.9411 157.562 63.0031V62.9651C157.562 60.9701 158.873 59.7541 160.45 59.7541ZM177.416 59.0131C177.416 58.3671 176.884 57.8541 176.257 57.8541C175.611 57.8541 175.098 58.3671 175.098 59.0131V63.6301C175.098 65.1881 174.167 66.1001 172.837 66.1001C171.469 66.1001 170.69 65.2261 170.69 63.6681V59.0131C170.69 58.3671 170.177 57.8541 169.531 57.8541C168.904 57.8541 168.391 58.3671 168.391 59.0131V64.3521C168.391 66.6891 169.702 68.2091 171.963 68.2091C173.521 68.2091 174.452 67.3921 175.098 66.4421V66.9551C175.098 67.6011 175.63 68.0951 176.257 68.0951C176.903 68.0951 177.416 67.5821 177.416 66.9551V59.0131ZM180.249 55.3841C180.249 56.0681 180.819 56.5241 181.56 56.5241C182.301 56.5241 182.871 56.0681 182.871 55.3841V55.2701C182.871 54.5861 182.301 54.1491 181.56 54.1491C180.819 54.1491 180.249 54.5861 180.249 55.2701V55.3841ZM180.42 66.9551C180.42 67.6011 180.933 68.0951 181.56 68.0951C182.206 68.0951 182.719 67.6011 182.719 66.9551V59.0131C182.719 58.3671 182.206 57.8541 181.56 57.8541C180.914 57.8541 180.42 58.3671 180.42 59.0131V66.9551ZM185.723 66.9551C185.723 67.6011 186.236 68.0951 186.863 68.0951C187.509 68.0951 188.022 67.5821 188.022 66.9551V63.9911C188.022 61.6161 189.143 60.3621 190.777 60.0771C191.29 59.9821 191.689 59.5831 191.689 58.9751C191.689 58.3101 191.271 57.8351 190.549 57.8351C189.542 57.8351 188.554 58.7851 188.022 60.0391V59.0131C188.022 58.3671 187.509 57.8541 186.863 57.8541C186.217 57.8541 185.723 58.3671 185.723 59.0131V66.9551ZM194.967 62.2811C195.176 60.7231 196.164 59.6401 197.57 59.6401C199.09 59.6401 199.964 60.7991 200.116 62.2811H194.967ZM201.446 66.8981C201.617 66.7271 201.75 66.4801 201.75 66.1951C201.75 65.6631 201.351 65.2641 200.838 65.2641C200.572 65.2641 200.42 65.3401 200.249 65.4731C199.603 66.0051 198.843 66.3471 197.874 66.3471C196.392 66.3471 195.233 65.4351 194.986 63.8011H201.275C201.864 63.8011 202.358 63.3451 202.358 62.6991C202.358 60.3811 200.781 57.7591 197.589 57.7591C194.72 57.7591 192.687 60.1151 192.687 62.9841V63.0221C192.687 66.1191 194.929 68.2281 197.836 68.2281C199.394 68.2281 200.534 67.7151 201.446 66.8981ZM204.705 66.9551C204.705 67.6011 205.218 68.0951 205.845 68.0951C206.491 68.0951 207.004 67.6011 207.004 66.9551V62.3381C207.004 60.7991 207.878 59.8491 209.151 59.8491C210.424 59.8491 211.184 60.7231 211.184 62.2811V66.9551C211.184 67.6011 211.697 68.0951 212.343 68.0951C212.97 68.0951 213.483 67.6011 213.483 66.9551V62.3381C213.483 60.7231 214.376 59.8491 215.63 59.8491C216.922 59.8491 217.663 60.7041 217.663 62.3001V66.9551C217.663 67.6011 218.176 68.0951 218.822 68.0951C219.468 68.0951 219.962 67.6011 219.962 66.9551V61.5971C219.962 59.1461 218.632 57.7591 216.447 57.7591C214.927 57.7591 213.863 58.4621 213.065 59.5261C212.533 58.4621 211.507 57.7591 210.063 57.7591C208.524 57.7591 207.65 58.5951 207.004 59.4881V59.0131C207.004 58.3671 206.491 57.8541 205.845 57.8541C205.199 57.8541 204.705 58.3671 204.705 59.0131V66.9551ZM224.487 62.2811C224.696 60.7231 225.684 59.6401 227.09 59.6401C228.61 59.6401 229.484 60.7991 229.636 62.2811H224.487ZM230.966 66.8981C231.137 66.7271 231.27 66.4801 231.27 66.1951C231.27 65.6631 230.871 65.2641 230.358 65.2641C230.092 65.2641 229.94 65.3401 229.769 65.4731C229.123 66.0051 228.363 66.3471 227.394 66.3471C225.912 66.3471 224.753 65.4351 224.506 63.8011H230.795C231.384 63.8011 231.878 63.3451 231.878 62.6991C231.878 60.3811 230.301 57.7591 227.109 57.7591C224.24 57.7591 222.207 60.1151 222.207 62.9841V63.0221C222.207 66.1191 224.449 68.2281 227.356 68.2281C228.914 68.2281 230.054 67.7151 230.966 66.8981ZM234.225 66.9551C234.225 67.6011 234.738 68.0951 235.365 68.0951C236.011 68.0951 236.524 67.6011 236.524 66.9551V62.3381C236.524 60.7801 237.455 59.8491 238.785 59.8491C240.153 59.8491 240.932 60.7421 240.932 62.3001V66.9551C240.932 67.6011 241.445 68.0951 242.091 68.0951C242.737 68.0951 243.231 67.6011 243.231 66.9551V61.5971C243.231 59.2791 241.92 57.7591 239.659 57.7591C238.101 57.7591 237.17 58.5761 236.524 59.5071V59.0131C236.524 58.3671 236.011 57.8541 235.365 57.8541C234.719 57.8541 234.225 58.3671 234.225 59.0131V66.9551ZM249.37 68.1711C249.978 68.1711 250.453 68.0761 250.947 67.9051C251.27 67.7721 251.555 67.4301 251.555 67.0121C251.555 66.4801 251.099 66.0621 250.586 66.0621C250.51 66.0621 250.282 66.1191 250.016 66.1191C249.237 66.1191 248.781 65.7581 248.781 64.8651V59.9441H250.586C251.137 59.9441 251.593 59.5071 251.593 58.9561C251.593 58.4051 251.137 57.9681 250.586 57.9681H248.781V56.2581C248.781 55.6311 248.268 55.1181 247.641 55.1181C246.995 55.1181 246.482 55.6311 246.482 56.2581V57.9681H246.102C245.551 57.9681 245.114 58.4051 245.114 58.9561C245.114 59.5071 245.551 59.9441 246.102 59.9441H246.482V65.2261C246.482 67.4301 247.679 68.1711 249.37 68.1711ZM258.071 69.6531C258.071 70.1281 258.489 70.5271 258.983 70.5271C259.363 70.5271 259.629 70.3371 259.8 69.9951L267.59 54.0731C267.628 53.9591 267.685 53.7881 267.685 53.6171C267.685 53.1421 267.286 52.7431 266.792 52.7431C266.412 52.7431 266.127 52.9331 265.956 53.2751L258.185 69.1971C258.128 69.3111 258.071 69.4821 258.071 69.6531ZM278.654 66.9361C278.654 67.5821 279.186 68.0951 279.832 68.0951C280.478 68.0951 281.01 67.5821 281.01 66.9361V56.8661H284.259C284.848 56.8661 285.323 56.3721 285.323 55.7831C285.323 55.1941 284.848 54.7001 284.259 54.7001H275.424C274.816 54.7001 274.341 55.1941 274.341 55.7831C274.341 56.3721 274.816 56.8661 275.424 56.8661H278.654V66.9361ZM288.157 68.2091C289.696 68.2091 290.741 67.5631 291.425 66.7461V67.1261C291.425 67.6391 291.881 68.0951 292.546 68.0951C293.173 68.0951 293.667 67.6201 293.667 66.9931V62.0531C293.667 60.7421 293.325 59.6781 292.584 58.9561C291.881 58.2341 290.76 57.8351 289.259 57.8351C287.948 57.8351 286.979 58.0631 286.029 58.4241C285.687 58.5571 285.402 58.9181 285.402 59.3361C285.402 59.8681 285.839 60.2861 286.371 60.2861C286.485 60.2861 286.599 60.2671 286.732 60.2291C287.359 59.9821 288.081 59.8301 288.955 59.8301C290.57 59.8301 291.444 60.5901 291.444 62.0151V62.2621C290.665 62.0151 289.867 61.8441 288.746 61.8441C286.295 61.8441 284.604 62.9081 284.604 65.0741V65.1121C284.604 67.1261 286.276 68.2091 288.157 68.2091ZM288.803 66.5371C287.701 66.5371 286.846 65.9861 286.846 65.0171V64.9791C286.846 63.9341 287.72 63.3071 289.202 63.3071C290.114 63.3071 290.893 63.4781 291.482 63.7061V64.3901C291.482 65.6631 290.323 66.5371 288.803 66.5371ZM299.86 68.1901C301.95 68.1901 303.584 67.1451 303.584 65.0361V64.9981C303.584 63.1931 301.931 62.5281 300.468 62.0721C299.29 61.6921 298.207 61.3881 298.207 60.6471V60.6091C298.207 60.0391 298.72 59.6211 299.613 59.6211C300.316 59.6211 301.152 59.8871 301.969 60.3051C302.121 60.3811 302.235 60.4191 302.425 60.4191C302.957 60.4191 303.375 60.0201 303.375 59.4881C303.375 59.0891 303.147 58.7851 302.824 58.6141C301.855 58.1011 300.734 57.7971 299.67 57.7971C297.675 57.7971 296.098 58.9561 296.098 60.8561V60.8941C296.098 62.8131 297.751 63.4211 299.233 63.8391C300.411 64.2001 301.475 64.4661 301.475 65.2451V65.2831C301.475 65.9481 300.905 66.3661 299.917 66.3661C299.005 66.3661 297.998 66.0431 297.029 65.3971C296.896 65.3211 296.725 65.2641 296.535 65.2641C296.003 65.2641 295.604 65.6821 295.604 66.1951C295.604 66.5751 295.794 66.8601 296.041 66.9931C297.2 67.7911 298.587 68.1901 299.86 68.1901ZM305.939 66.9551C305.939 67.6011 306.452 68.0951 307.079 68.0951C307.725 68.0951 308.238 67.6011 308.238 66.9551V65.2071L309.758 63.7631L312.627 67.5821C312.912 67.9431 313.178 68.0951 313.634 68.0951C314.223 68.0951 314.717 67.6771 314.717 67.0501C314.717 66.7841 314.622 66.5751 314.413 66.2901L311.373 62.3191L314.033 59.8681C314.356 59.5641 314.546 59.2791 314.546 58.8991C314.546 58.3481 314.147 57.8541 313.539 57.8541C313.14 57.8541 312.855 58.0441 312.551 58.3481L308.238 62.5851V55.1751C308.238 54.5481 307.725 54.0351 307.079 54.0351C306.433 54.0351 305.939 54.5481 305.939 55.1751V66.9551ZM321.213 69.6531C321.213 70.1281 321.631 70.5271 322.125 70.5271C322.505 70.5271 322.771 70.3371 322.942 69.9951L330.732 54.0731C330.77 53.9591 330.827 53.7881 330.827 53.6171C330.827 53.1421 330.428 52.7431 329.934 52.7431C329.554 52.7431 329.269 52.9331 329.098 53.2751L321.327 69.1971C321.27 69.3111 321.213 69.4821 321.213 69.6531ZM338.66 66.9361C338.66 67.5821 339.173 68.0951 339.838 68.0951C340.484 68.0951 340.997 67.5821 340.997 66.9361V55.7641C340.997 55.1181 340.484 54.6051 339.838 54.6051C339.173 54.6051 338.66 55.1181 338.66 55.7641V66.9361ZM344.292 66.9551C344.292 67.6011 344.805 68.0951 345.432 68.0951C346.078 68.0951 346.591 67.6011 346.591 66.9551V62.3381C346.591 60.7801 347.522 59.8491 348.852 59.8491C350.22 59.8491 350.999 60.7421 350.999 62.3001V66.9551C350.999 67.6011 351.512 68.0951 352.158 68.0951C352.804 68.0951 353.298 67.6011 353.298 66.9551V61.5971C353.298 59.2791 351.987 57.7591 349.726 57.7591C348.168 57.7591 347.237 58.5761 346.591 59.5071V59.0131C346.591 58.3671 346.078 57.8541 345.432 57.8541C344.786 57.8541 344.292 58.3671 344.292 59.0131V66.9551ZM360.71 68.2281C362.382 68.2281 363.465 67.6581 364.358 66.8031C364.567 66.6321 364.681 66.3851 364.681 66.0811C364.681 65.5301 364.244 65.0741 363.693 65.0741C363.427 65.0741 363.199 65.2071 363.066 65.3211C362.439 65.8531 361.736 66.2141 360.824 66.2141C359.057 66.2141 357.822 64.7891 357.822 63.0031V62.9651C357.822 61.2171 359.057 59.7731 360.729 59.7731C361.641 59.7731 362.287 60.1341 362.876 60.6281C363.028 60.7421 363.275 60.8561 363.56 60.8561C364.149 60.8561 364.624 60.4001 364.624 59.8111C364.624 59.4311 364.415 59.1461 364.263 59.0131C363.408 58.2721 362.325 57.7591 360.748 57.7591C357.727 57.7591 355.523 60.1531 355.523 63.0031V63.0411C355.523 65.8911 357.727 68.2281 360.71 68.2281ZM366.89 55.3841C366.89 56.0681 367.46 56.5241 368.201 56.5241C368.942 56.5241 369.512 56.0681 369.512 55.3841V55.2701C369.512 54.5861 368.942 54.1491 368.201 54.1491C367.46 54.1491 366.89 54.5861 366.89 55.2701V55.3841ZM367.061 66.9551C367.061 67.6011 367.574 68.0951 368.201 68.0951C368.847 68.0951 369.36 67.6011 369.36 66.9551V59.0131C369.36 58.3671 368.847 57.8541 368.201 57.8541C367.555 57.8541 367.061 58.3671 367.061 59.0131V66.9551ZM382.226 55.1751C382.226 54.5291 381.713 54.0351 381.067 54.0351C380.44 54.0351 379.927 54.5291 379.927 55.1751V59.5261C379.205 58.5761 378.16 57.7591 376.507 57.7591C374.113 57.7591 371.852 59.6401 371.852 62.9651V63.0031C371.852 66.3281 374.151 68.2091 376.507 68.2091C378.141 68.2091 379.186 67.3731 379.927 66.3281V66.9551C379.927 67.6011 380.44 68.0951 381.086 68.0951C381.713 68.0951 382.226 67.6011 382.226 66.9551V55.1751ZM377.058 59.7541C378.597 59.7541 379.965 61.0271 379.965 62.9651V63.0031C379.965 64.9221 378.597 66.2141 377.058 66.2141C375.5 66.2141 374.17 64.9411 374.17 63.0031V62.9651C374.17 60.9701 375.481 59.7541 377.058 59.7541ZM386.841 62.2811C387.05 60.7231 388.038 59.6401 389.444 59.6401C390.964 59.6401 391.838 60.7991 391.99 62.2811H386.841ZM393.32 66.8981C393.491 66.7271 393.624 66.4801 393.624 66.1951C393.624 65.6631 393.225 65.2641 392.712 65.2641C392.446 65.2641 392.294 65.3401 392.123 65.4731C391.477 66.0051 390.717 66.3471 389.748 66.3471C388.266 66.3471 387.107 65.4351 386.86 63.8011H393.149C393.738 63.8011 394.232 63.3451 394.232 62.6991C394.232 60.3811 392.655 57.7591 389.463 57.7591C386.594 57.7591 384.561 60.1151 384.561 62.9841V63.0221C384.561 66.1191 386.803 68.2281 389.71 68.2281C391.268 68.2281 392.408 67.7151 393.32 66.8981ZM396.579 66.9551C396.579 67.6011 397.092 68.0951 397.719 68.0951C398.365 68.0951 398.878 67.6011 398.878 66.9551V62.3381C398.878 60.7801 399.809 59.8491 401.139 59.8491C402.507 59.8491 403.286 60.7421 403.286 62.3001V66.9551C403.286 67.6011 403.799 68.0951 404.445 68.0951C405.091 68.0951 405.585 67.6011 405.585 66.9551V61.5971C405.585 59.2791 404.274 57.7591 402.013 57.7591C400.455 57.7591 399.524 58.5761 398.878 59.5071V59.0131C398.878 58.3671 398.365 57.8541 397.719 57.8541C397.073 57.8541 396.579 58.3671 396.579 59.0131V66.9551ZM411.724 68.1711C412.332 68.1711 412.807 68.0761 413.301 67.9051C413.624 67.7721 413.909 67.4301 413.909 67.0121C413.909 66.4801 413.453 66.0621 412.94 66.0621C412.864 66.0621 412.636 66.1191 412.37 66.1191C411.591 66.1191 411.135 65.7581 411.135 64.8651V59.9441H412.94C413.491 59.9441 413.947 59.5071 413.947 58.9561C413.947 58.4051 413.491 57.9681 412.94 57.9681H411.135V56.2581C411.135 55.6311 410.622 55.1181 409.995 55.1181C409.349 55.1181 408.836 55.6311 408.836 56.2581V57.9681H408.456C407.905 57.9681 407.468 58.4051 407.468 58.9561C407.468 59.5071 407.905 59.9441 408.456 59.9441H408.836V65.2261C408.836 67.4301 410.033 68.1711 411.724 68.1711ZM422.135 66.9361C422.135 67.5821 422.648 68.0951 423.313 68.0951C423.959 68.0951 424.472 67.5821 424.472 66.9361V63.7251H427.113C430.039 63.7251 432.433 62.1671 432.433 59.1841V59.1461C432.433 56.4671 430.495 54.7001 427.379 54.7001H423.313C422.648 54.7001 422.135 55.2131 422.135 55.8781V66.9361ZM424.472 61.6161V56.8281H427.189C428.937 56.8281 430.058 57.6451 430.058 59.2031V59.2411C430.058 60.6281 428.956 61.6161 427.189 61.6161H424.472ZM434.56 66.9551C434.56 67.6011 435.073 68.0951 435.7 68.0951C436.346 68.0951 436.859 67.5821 436.859 66.9551V63.9911C436.859 61.6161 437.98 60.3621 439.614 60.0771C440.127 59.9821 440.526 59.5831 440.526 58.9751C440.526 58.3101 440.108 57.8351 439.386 57.8351C438.379 57.8351 437.391 58.7851 436.859 60.0391V59.0131C436.859 58.3671 436.346 57.8541 435.7 57.8541C435.054 57.8541 434.56 58.3671 434.56 59.0131V66.9551ZM446.844 68.2281C449.941 68.2281 452.221 65.8531 452.221 63.0031V62.9651C452.221 60.0961 449.96 57.7591 446.882 57.7591C443.804 57.7591 441.524 60.1341 441.524 63.0031V63.0411C441.524 65.8911 443.785 68.2281 446.844 68.2281ZM446.882 66.2141C445.096 66.2141 443.823 64.7511 443.823 63.0031V62.9651C443.823 61.2171 445.001 59.7731 446.844 59.7731C448.649 59.7731 449.922 61.2361 449.922 63.0031V63.0411C449.922 64.7701 448.744 66.2141 446.882 66.2141ZM459.027 71.0781C460.832 71.0781 462.238 70.6411 463.15 69.7291C463.986 68.8931 464.423 67.6391 464.423 65.9481V59.0131C464.423 58.3671 463.91 57.8541 463.264 57.8541C462.637 57.8541 462.124 58.3671 462.124 58.9941V59.4691C461.345 58.5381 460.3 57.7591 458.609 57.7591C456.272 57.7591 454.049 59.5071 454.049 62.4711V62.5091C454.049 65.4541 456.253 67.2021 458.609 67.2021C460.262 67.2021 461.307 66.4421 462.143 65.3591V66.1381C462.143 68.1521 461.022 69.2161 458.97 69.2161C457.811 69.2161 456.804 68.9311 455.892 68.4181C455.778 68.3611 455.645 68.3231 455.474 68.3231C454.942 68.3231 454.505 68.7601 454.505 69.2731C454.505 69.7101 454.752 70.0331 455.151 70.1851C456.367 70.7741 457.621 71.0781 459.027 71.0781ZM459.217 65.2451C457.64 65.2451 456.367 64.1241 456.367 62.4901V62.4521C456.367 60.7991 457.621 59.6971 459.217 59.6971C460.813 59.6971 462.162 60.8181 462.162 62.4521V62.4901C462.162 64.1241 460.813 65.2451 459.217 65.2451ZM467.309 66.9551C467.309 67.6011 467.822 68.0951 468.449 68.0951C469.095 68.0951 469.608 67.5821 469.608 66.9551V63.9911C469.608 61.6161 470.729 60.3621 472.363 60.0771C472.876 59.9821 473.275 59.5831 473.275 58.9751C473.275 58.3101 472.857 57.8351 472.135 57.8351C471.128 57.8351 470.14 58.7851 469.608 60.0391V59.0131C469.608 58.3671 469.095 57.8541 468.449 57.8541C467.803 57.8541 467.309 58.3671 467.309 59.0131V66.9551ZM476.553 62.2811C476.762 60.7231 477.75 59.6401 479.156 59.6401C480.676 59.6401 481.55 60.7991 481.702 62.2811H476.553ZM483.032 66.8981C483.203 66.7271 483.336 66.4801 483.336 66.1951C483.336 65.6631 482.937 65.2641 482.424 65.2641C482.158 65.2641 482.006 65.3401 481.835 65.4731C481.189 66.0051 480.429 66.3471 479.46 66.3471C477.978 66.3471 476.819 65.4351 476.572 63.8011H482.861C483.45 63.8011 483.944 63.3451 483.944 62.6991C483.944 60.3811 482.367 57.7591 479.175 57.7591C476.306 57.7591 474.273 60.1151 474.273 62.9841V63.0221C474.273 66.1191 476.515 68.2281 479.422 68.2281C480.98 68.2281 482.12 67.7151 483.032 66.8981ZM489.73 68.1901C491.82 68.1901 493.454 67.1451 493.454 65.0361V64.9981C493.454 63.1931 491.801 62.5281 490.338 62.0721C489.16 61.6921 488.077 61.3881 488.077 60.6471V60.6091C488.077 60.0391 488.59 59.6211 489.483 59.6211C490.186 59.6211 491.022 59.8871 491.839 60.3051C491.991 60.3811 492.105 60.4191 492.295 60.4191C492.827 60.4191 493.245 60.0201 493.245 59.4881C493.245 59.0891 493.017 58.7851 492.694 58.6141C491.725 58.1011 490.604 57.7971 489.54 57.7971C487.545 57.7971 485.968 58.9561 485.968 60.8561V60.8941C485.968 62.8131 487.621 63.4211 489.103 63.8391C490.281 64.2001 491.345 64.4661 491.345 65.2451V65.2831C491.345 65.9481 490.775 66.3661 489.787 66.3661C488.875 66.3661 487.868 66.0431 486.899 65.3971C486.766 65.3211 486.595 65.2641 486.405 65.2641C485.873 65.2641 485.474 65.6821 485.474 66.1951C485.474 66.5751 485.664 66.8601 485.911 66.9931C487.07 67.7911 488.457 68.1901 489.73 68.1901ZM499.063 68.1901C501.153 68.1901 502.787 67.1451 502.787 65.0361V64.9981C502.787 63.1931 501.134 62.5281 499.671 62.0721C498.493 61.6921 497.41 61.3881 497.41 60.6471V60.6091C497.41 60.0391 497.923 59.6211 498.816 59.6211C499.519 59.6211 500.355 59.8871 501.172 60.3051C501.324 60.3811 501.438 60.4191 501.628 60.4191C502.16 60.4191 502.578 60.0201 502.578 59.4881C502.578 59.0891 502.35 58.7851 502.027 58.6141C501.058 58.1011 499.937 57.7971 498.873 57.7971C496.878 57.7971 495.301 58.9561 495.301 60.8561V60.8941C495.301 62.8131 496.954 63.4211 498.436 63.8391C499.614 64.2001 500.678 64.4661 500.678 65.2451V65.2831C500.678 65.9481 500.108 66.3661 499.12 66.3661C498.208 66.3661 497.201 66.0431 496.232 65.3971C496.099 65.3211 495.928 65.2641 495.738 65.2641C495.206 65.2641 494.807 65.6821 494.807 66.1951C494.807 66.5751 494.997 66.8601 495.244 66.9931C496.403 67.7911 497.79 68.1901 499.063 68.1901Z" fill="#4B6B87"/>
<path d="M93.3404 138.272C93.3404 138.714 93.6914 139.065 94.1464 139.065C94.5884 139.065 94.9394 138.714 94.9394 138.272V136.075H96.7464C98.7484 136.075 100.386 135.009 100.386 132.968V132.942C100.386 131.109 99.0604 129.9 96.9284 129.9H94.1464C93.6914 129.9 93.3404 130.251 93.3404 130.706V138.272ZM94.9394 134.632V131.356H96.7984C97.9944 131.356 98.7614 131.915 98.7614 132.981V133.007C98.7614 133.956 98.0074 134.632 96.7984 134.632H94.9394ZM101.933 138.285C101.933 138.727 102.284 139.065 102.713 139.065C103.155 139.065 103.506 138.727 103.506 138.285V130.225C103.506 129.796 103.155 129.445 102.713 129.445C102.271 129.445 101.933 129.796 101.933 130.225V138.285ZM107.538 139.143C108.591 139.143 109.306 138.701 109.774 138.142V138.402C109.774 138.753 110.086 139.065 110.541 139.065C110.97 139.065 111.308 138.74 111.308 138.311V134.931C111.308 134.034 111.074 133.306 110.567 132.812C110.086 132.318 109.319 132.045 108.292 132.045C107.395 132.045 106.732 132.201 106.082 132.448C105.848 132.539 105.653 132.786 105.653 133.072C105.653 133.436 105.952 133.722 106.316 133.722C106.394 133.722 106.472 133.709 106.563 133.683C106.992 133.514 107.486 133.41 108.084 133.41C109.189 133.41 109.787 133.93 109.787 134.905V135.074C109.254 134.905 108.708 134.788 107.941 134.788C106.264 134.788 105.107 135.516 105.107 136.998V137.024C105.107 138.402 106.251 139.143 107.538 139.143ZM107.98 137.999C107.226 137.999 106.641 137.622 106.641 136.959V136.933C106.641 136.218 107.239 135.789 108.253 135.789C108.877 135.789 109.41 135.906 109.813 136.062V136.53C109.813 137.401 109.02 137.999 107.98 137.999ZM113.192 138.285C113.192 138.727 113.543 139.065 113.972 139.065C114.414 139.065 114.765 138.727 114.765 138.285V135.126C114.765 134.06 115.402 133.423 116.312 133.423C117.248 133.423 117.781 134.034 117.781 135.1V138.285C117.781 138.727 118.132 139.065 118.574 139.065C119.016 139.065 119.354 138.727 119.354 138.285V134.619C119.354 133.033 118.457 131.993 116.91 131.993C115.844 131.993 115.207 132.552 114.765 133.189V132.851C114.765 132.409 114.414 132.058 113.972 132.058C113.53 132.058 113.192 132.409 113.192 132.851V138.285ZM121.253 138.285C121.253 138.727 121.604 139.065 122.033 139.065C122.475 139.065 122.826 138.727 122.826 138.285V135.126C122.826 134.06 123.463 133.423 124.373 133.423C125.309 133.423 125.842 134.034 125.842 135.1V138.285C125.842 138.727 126.193 139.065 126.635 139.065C127.077 139.065 127.415 138.727 127.415 138.285V134.619C127.415 133.033 126.518 131.993 124.971 131.993C123.905 131.993 123.268 132.552 122.826 133.189V132.851C122.826 132.409 122.475 132.058 122.033 132.058C121.591 132.058 121.253 132.409 121.253 132.851V138.285ZM129.289 130.368C129.289 130.836 129.679 131.148 130.186 131.148C130.693 131.148 131.083 130.836 131.083 130.368V130.29C131.083 129.822 130.693 129.523 130.186 129.523C129.679 129.523 129.289 129.822 129.289 130.29V130.368ZM129.406 138.285C129.406 138.727 129.757 139.065 130.186 139.065C130.628 139.065 130.979 138.727 130.979 138.285V132.851C130.979 132.409 130.628 132.058 130.186 132.058C129.744 132.058 129.406 132.409 129.406 132.851V138.285ZM133.034 138.285C133.034 138.727 133.385 139.065 133.814 139.065C134.256 139.065 134.607 138.727 134.607 138.285V135.126C134.607 134.06 135.244 133.423 136.154 133.423C137.09 133.423 137.623 134.034 137.623 135.1V138.285C137.623 138.727 137.974 139.065 138.416 139.065C138.858 139.065 139.196 138.727 139.196 138.285V134.619C139.196 133.033 138.299 131.993 136.752 131.993C135.686 131.993 135.049 132.552 134.607 133.189V132.851C134.607 132.409 134.256 132.058 133.814 132.058C133.372 132.058 133.034 132.409 133.034 132.851V138.285ZM144.151 141.106C145.386 141.106 146.348 140.807 146.972 140.183C147.544 139.611 147.843 138.753 147.843 137.596V132.851C147.843 132.409 147.492 132.058 147.05 132.058C146.621 132.058 146.27 132.409 146.27 132.838V133.163C145.737 132.526 145.022 131.993 143.865 131.993C142.266 131.993 140.745 133.189 140.745 135.217V135.243C140.745 137.258 142.253 138.454 143.865 138.454C144.996 138.454 145.711 137.934 146.283 137.193V137.726C146.283 139.104 145.516 139.832 144.112 139.832C143.319 139.832 142.63 139.637 142.006 139.286C141.928 139.247 141.837 139.221 141.72 139.221C141.356 139.221 141.057 139.52 141.057 139.871C141.057 140.17 141.226 140.391 141.499 140.495C142.331 140.898 143.189 141.106 144.151 141.106ZM144.281 137.115C143.202 137.115 142.331 136.348 142.331 135.23V135.204C142.331 134.073 143.189 133.319 144.281 133.319C145.373 133.319 146.296 134.086 146.296 135.204V135.23C146.296 136.348 145.373 137.115 144.281 137.115Z" fill="#4B6B87"/>
<path d="M271.23 136.272C271.23 136.714 271.581 137.065 272.036 137.065C272.478 137.065 272.829 136.714 272.829 136.272V128.628C272.829 128.186 272.478 127.835 272.036 127.835C271.581 127.835 271.23 128.186 271.23 128.628V136.272ZM275.083 136.285C275.083 136.727 275.434 137.065 275.863 137.065C276.305 137.065 276.656 136.727 276.656 136.285V133.126C276.656 132.06 277.293 131.423 278.203 131.423C279.139 131.423 279.672 132.034 279.672 133.1V136.285C279.672 136.727 280.023 137.065 280.465 137.065C280.907 137.065 281.245 136.727 281.245 136.285V132.619C281.245 131.033 280.348 129.993 278.801 129.993C277.735 129.993 277.098 130.552 276.656 131.189V130.851C276.656 130.409 276.305 130.058 275.863 130.058C275.421 130.058 275.083 130.409 275.083 130.851V136.285ZM287.224 136.272C287.224 136.714 287.575 137.065 288.03 137.065C288.472 137.065 288.823 136.714 288.823 136.272V134.075H290.63C292.632 134.075 294.27 133.009 294.27 130.968V130.942C294.27 129.109 292.944 127.9 290.812 127.9H288.03C287.575 127.9 287.224 128.251 287.224 128.706V136.272ZM288.823 132.632V129.356H290.682C291.878 129.356 292.645 129.915 292.645 130.981V131.007C292.645 131.956 291.891 132.632 290.682 132.632H288.823ZM295.726 136.285C295.726 136.727 296.077 137.065 296.506 137.065C296.948 137.065 297.299 136.714 297.299 136.285V134.257C297.299 132.632 298.066 131.774 299.184 131.579C299.535 131.514 299.808 131.241 299.808 130.825C299.808 130.37 299.522 130.045 299.028 130.045C298.339 130.045 297.663 130.695 297.299 131.553V130.851C297.299 130.409 296.948 130.058 296.506 130.058C296.064 130.058 295.726 130.409 295.726 130.851V136.285ZM304.13 137.156C306.249 137.156 307.809 135.531 307.809 133.581V133.555C307.809 131.592 306.262 129.993 304.156 129.993C302.05 129.993 300.49 131.618 300.49 133.581V133.607C300.49 135.557 302.037 137.156 304.13 137.156ZM304.156 135.778C302.934 135.778 302.063 134.777 302.063 133.581V133.555C302.063 132.359 302.869 131.371 304.13 131.371C305.365 131.371 306.236 132.372 306.236 133.581V133.607C306.236 134.79 305.43 135.778 304.156 135.778ZM312.466 139.106C313.701 139.106 314.663 138.807 315.287 138.183C315.859 137.611 316.158 136.753 316.158 135.596V130.851C316.158 130.409 315.807 130.058 315.365 130.058C314.936 130.058 314.585 130.409 314.585 130.838V131.163C314.052 130.526 313.337 129.993 312.18 129.993C310.581 129.993 309.06 131.189 309.06 133.217V133.243C309.06 135.258 310.568 136.454 312.18 136.454C313.311 136.454 314.026 135.934 314.598 135.193V135.726C314.598 137.104 313.831 137.832 312.427 137.832C311.634 137.832 310.945 137.637 310.321 137.286C310.243 137.247 310.152 137.221 310.035 137.221C309.671 137.221 309.372 137.52 309.372 137.871C309.372 138.17 309.541 138.391 309.814 138.495C310.646 138.898 311.504 139.106 312.466 139.106ZM312.596 135.115C311.517 135.115 310.646 134.348 310.646 133.23V133.204C310.646 132.073 311.504 131.319 312.596 131.319C313.688 131.319 314.611 132.086 314.611 133.204V133.23C314.611 134.348 313.688 135.115 312.596 135.115ZM318.133 136.285C318.133 136.727 318.484 137.065 318.913 137.065C319.355 137.065 319.706 136.714 319.706 136.285V134.257C319.706 132.632 320.473 131.774 321.591 131.579C321.942 131.514 322.215 131.241 322.215 130.825C322.215 130.37 321.929 130.045 321.435 130.045C320.746 130.045 320.07 130.695 319.706 131.553V130.851C319.706 130.409 319.355 130.058 318.913 130.058C318.471 130.058 318.133 130.409 318.133 130.851V136.285ZM324.458 133.087C324.601 132.021 325.277 131.28 326.239 131.28C327.279 131.28 327.877 132.073 327.981 133.087H324.458ZM328.891 136.246C329.008 136.129 329.099 135.96 329.099 135.765C329.099 135.401 328.826 135.128 328.475 135.128C328.293 135.128 328.189 135.18 328.072 135.271C327.63 135.635 327.11 135.869 326.447 135.869C325.433 135.869 324.64 135.245 324.471 134.127H328.774C329.177 134.127 329.515 133.815 329.515 133.373C329.515 131.787 328.436 129.993 326.252 129.993C324.289 129.993 322.898 131.605 322.898 133.568V133.594C322.898 135.713 324.432 137.156 326.421 137.156C327.487 137.156 328.267 136.805 328.891 136.246ZM333.473 137.13C334.903 137.13 336.021 136.415 336.021 134.972V134.946C336.021 133.711 334.89 133.256 333.889 132.944C333.083 132.684 332.342 132.476 332.342 131.969V131.943C332.342 131.553 332.693 131.267 333.304 131.267C333.785 131.267 334.357 131.449 334.916 131.735C335.02 131.787 335.098 131.813 335.228 131.813C335.592 131.813 335.878 131.54 335.878 131.176C335.878 130.903 335.722 130.695 335.501 130.578C334.838 130.227 334.071 130.019 333.343 130.019C331.978 130.019 330.899 130.812 330.899 132.112V132.138C330.899 133.451 332.03 133.867 333.044 134.153C333.85 134.4 334.578 134.582 334.578 135.115V135.141C334.578 135.596 334.188 135.882 333.512 135.882C332.888 135.882 332.199 135.661 331.536 135.219C331.445 135.167 331.328 135.128 331.198 135.128C330.834 135.128 330.561 135.414 330.561 135.765C330.561 136.025 330.691 136.22 330.86 136.311C331.653 136.857 332.602 137.13 333.473 137.13ZM339.859 137.13C341.289 137.13 342.407 136.415 342.407 134.972V134.946C342.407 133.711 341.276 133.256 340.275 132.944C339.469 132.684 338.728 132.476 338.728 131.969V131.943C338.728 131.553 339.079 131.267 339.69 131.267C340.171 131.267 340.743 131.449 341.302 131.735C341.406 131.787 341.484 131.813 341.614 131.813C341.978 131.813 342.264 131.54 342.264 131.176C342.264 130.903 342.108 130.695 341.887 130.578C341.224 130.227 340.457 130.019 339.729 130.019C338.364 130.019 337.285 130.812 337.285 132.112V132.138C337.285 133.451 338.416 133.867 339.43 134.153C340.236 134.4 340.964 134.582 340.964 135.115V135.141C340.964 135.596 340.574 135.882 339.898 135.882C339.274 135.882 338.585 135.661 337.922 135.219C337.831 135.167 337.714 135.128 337.584 135.128C337.22 135.128 336.947 135.414 336.947 135.765C336.947 136.025 337.077 136.22 337.246 136.311C338.039 136.857 338.988 137.13 339.859 137.13Z" fill="#4B6B87"/>
<path d="M487.86 138.194C487.86 138.649 488.211 139 488.666 139H491.253C494.113 139 496.089 137.011 496.089 134.45V134.424C496.089 131.863 494.113 129.9 491.253 129.9H488.666C488.211 129.9 487.86 130.251 487.86 130.706V138.194ZM489.459 137.544V131.356H491.253C493.164 131.356 494.412 132.669 494.412 134.45V134.476C494.412 136.257 493.164 137.544 491.253 137.544H489.459ZM501.11 139.156C503.229 139.156 504.789 137.531 504.789 135.581V135.555C504.789 133.592 503.242 131.993 501.136 131.993C499.03 131.993 497.47 133.618 497.47 135.581V135.607C497.47 137.557 499.017 139.156 501.11 139.156ZM501.136 137.778C499.914 137.778 499.043 136.777 499.043 135.581V135.555C499.043 134.359 499.849 133.371 501.11 133.371C502.345 133.371 503.216 134.372 503.216 135.581V135.607C503.216 136.79 502.41 137.778 501.136 137.778ZM506.391 138.285C506.391 138.727 506.742 139.065 507.171 139.065C507.613 139.065 507.964 138.727 507.964 138.285V135.126C507.964 134.06 508.601 133.423 509.511 133.423C510.447 133.423 510.98 134.034 510.98 135.1V138.285C510.98 138.727 511.331 139.065 511.773 139.065C512.215 139.065 512.553 138.727 512.553 138.285V134.619C512.553 133.033 511.656 131.993 510.109 131.993C509.043 131.993 508.406 132.552 507.964 133.189V132.851C507.964 132.409 507.613 132.058 507.171 132.058C506.729 132.058 506.391 132.409 506.391 132.851V138.285ZM515.635 135.087C515.778 134.021 516.454 133.28 517.416 133.28C518.456 133.28 519.054 134.073 519.158 135.087H515.635ZM520.068 138.246C520.185 138.129 520.276 137.96 520.276 137.765C520.276 137.401 520.003 137.128 519.652 137.128C519.47 137.128 519.366 137.18 519.249 137.271C518.807 137.635 518.287 137.869 517.624 137.869C516.61 137.869 515.817 137.245 515.648 136.127H519.951C520.354 136.127 520.692 135.815 520.692 135.373C520.692 133.787 519.613 131.993 517.429 131.993C515.466 131.993 514.075 133.605 514.075 135.568V135.594C514.075 137.713 515.609 139.156 517.598 139.156C518.664 139.156 519.444 138.805 520.068 138.246Z" fill="#4B6B87"/>
<rect x="201" y="107" width="2" height="231" fill="#9FC7EA"/>
<rect x="410" y="107" width="2" height="231" fill="#9FC7EA"/>
<rect x="507" y="164" width="2.00002" height="461" transform="rotate(90 507 164)" fill="#9FC7EA"/>
<rect x="598" y="164" width="2" height="91" transform="rotate(90 598 164)" fill="#9FC7EA"/>
<path d="M470 215.833C478.745 215.833 485.833 208.745 485.833 200C485.833 191.256 478.745 184.167 470 184.167C461.256 184.167 454.167 191.256 454.167 200C454.167 208.745 461.256 215.833 470 215.833Z" fill="#6EB876" stroke="#6EB876" stroke-width="2"/>
<path d="M463.667 200.792L468.417 205.542L476.333 196.042" stroke="white" stroke-width="2" stroke-linecap="round" stroke-linejoin="round"/>
<path d="M470 270.833C478.745 270.833 485.833 263.745 485.833 255C485.833 246.256 478.745 239.167 470 239.167C461.256 239.167 454.167 246.256 454.167 255C454.167 263.745 461.256 270.833 470 270.833Z" fill="#6EB876" stroke="#6EB876" stroke-width="2"/>
<path d="M463.667 255.792L468.417 260.542L476.333 251.042" stroke="white" stroke-width="2" stroke-linecap="round" stroke-linejoin="round"/>
<path d="M534 215.833C542.745 215.833 549.834 208.745 549.834 200C549.834 191.256 542.745 184.167 534 184.167C525.256 184.167 518.167 191.256 518.167 200C518.167 208.745 525.256 215.833 534 215.833Z" fill="#6EB876" stroke="#6EB876" stroke-width="2"/>
<path d="M527.667 200.792L532.417 205.542L540.334 196.042" stroke="white" stroke-width="2" stroke-linecap="round" stroke-linejoin="round"/>
<path d="M534 270.833C542.745 270.833 549.834 263.745 549.834 255C549.834 246.256 542.745 239.167 534 239.167C525.256 239.167 518.167 246.256 518.167 255C518.167 263.745 525.256 270.833 534 270.833Z" fill="#6EB876" stroke="#6EB876" stroke-width="2"/>
<path d="M527.667 255.792L532.417 260.542L540.334 251.042" stroke="white" stroke-width="2" stroke-linecap="round" stroke-linejoin="round"/>
<g clip-path="url(#clip0_304_9)">
<path fill-rule="evenodd" clip-rule="evenodd" d="M111.401 324.624C111.401 324.624 118.052 328.536 123.51 320.125C123.51 320.125 130.666 317.778 133.465 310.738C133.465 310.738 140.606 305.573 148.27 284.985L144.857 283.075C144.857 283.075 131.991 296.942 129.426 303.804C129.426 303.804 117.9 308.944 114.046 312.517C105.377 320.55 111.044 324.866 111.401 324.624Z" fill="#F5C5A7"/>
<path fill-rule="evenodd" clip-rule="evenodd" d="M118.134 309.799C119.347 309.54 120.734 310.092 121.841 310.554C122.878 310.991 123.982 311.426 124.92 312.062C126.099 312.865 126.87 314.07 127.424 315.347C127.738 316.064 128.037 316.932 127.874 317.738L118.134 309.799Z" fill="#C78E84" fill-opacity="0.33"/>
<path fill-rule="evenodd" clip-rule="evenodd" d="M129.061 304.032C129.886 303.599 130.741 303.295 131.484 302.709C132.215 302.137 132.963 301.539 133.664 300.924C133.978 300.652 134.241 300.309 134.559 300.045C134.642 299.977 134.434 300.209 134.366 300.289C134.289 300.392 134.224 300.499 134.139 300.606C133.893 300.941 133.885 300.926 133.643 301.25C133.013 302.081 132.31 302.793 131.431 303.376C130.92 303.72 130.378 304.06 129.804 304.289C129.132 304.555 128.425 304.703 127.745 304.973C127.332 305.137 126.942 305.328 126.544 305.524C126.41 305.586 126.28 305.657 126.15 305.727C126.091 305.764 125.947 305.889 125.976 305.827C126.084 305.585 126.423 305.427 126.64 305.297C127.13 305.01 127.707 304.789 128.171 304.467L129.061 304.032Z" fill="#C78E84" fill-opacity="0.33"/>
<path fill-rule="evenodd" clip-rule="evenodd" d="M133.341 311.012C133.512 310.471 133.743 309.979 133.949 309.451C134.213 308.781 134.372 308.073 134.21 307.371C134.178 307.242 134.125 306.921 134.011 306.84C133.95 306.792 133.952 306.983 133.939 307.056C133.92 307.161 133.913 307.27 133.895 307.374C133.849 307.77 133.856 307.767 133.771 308.162C133.659 308.704 133.379 309.237 133.11 309.709C132.922 310.027 132.687 310.348 132.619 310.716C132.546 311.095 132.601 311.482 132.598 311.868C132.594 312.004 132.598 312.136 132.583 312.268C132.577 312.319 132.564 312.373 132.547 312.419C132.539 312.442 132.494 312.511 132.514 312.492C132.7 312.357 132.805 312.107 132.904 311.907L133.341 311.012Z" fill="#C78E84" fill-opacity="0.33"/>
<path fill-rule="evenodd" clip-rule="evenodd" d="M146.672 288.501C150.865 285.413 154.399 280.384 156.116 275.258C156.688 273.55 156.96 271.381 156.74 269.606C156.726 269.458 156.811 269.16 156.663 269.167C154.237 269.17 152.384 277.182 150.069 278.714C148.933 279.473 151.739 274.424 149.676 275.379C148.724 275.82 148.208 277.134 147.524 277.925C144.516 281.446 142.758 285.255 142.513 289.97L146.672 288.501Z" fill="#F5C5A7"/>
<path fill-rule="evenodd" clip-rule="evenodd" d="M112.197 429.498L123.319 433.896C123.319 433.896 108.938 471.403 101.868 480.371L98.5255 478.16C98.5255 478.16 105.365 438.152 112.197 429.498Z" fill="#F5C5A7"/>
<path fill-rule="evenodd" clip-rule="evenodd" d="M107.175 471.418C106.667 472.48 105.354 473.058 104.386 473.599C103.761 473.946 103.066 474.194 102.374 474.372C101.571 474.577 100.701 474.7 99.8647 474.706C99.8301 474.709 99.7342 474.708 99.6988 474.702C99.6548 474.697 99.1917 474.682 99.1917 474.682C99.1917 474.682 99.2252 474.339 99.2501 474.214C99.3227 473.816 99.3984 473.347 99.5323 472.952C99.7295 472.369 99.7334 471.766 99.8506 471.163C100.054 470.116 100.308 469.048 100.477 467.995L107.175 471.418Z" fill="#C78E84" fill-opacity="0.33"/>
<path fill-rule="evenodd" clip-rule="evenodd" d="M101.564 434.548L93.5401 431.112C93.5401 431.112 87.3752 441.644 89.1038 465.024C89.1038 465.024 91.1119 476.955 90.2373 486.788L94.6963 487.483C94.6963 487.483 98.036 455.631 101.331 443.094C101.331 443.093 102.014 440.904 101.564 434.548Z" fill="#F5C5A7"/>
<path fill-rule="evenodd" clip-rule="evenodd" d="M95.9213 478.942C95.0629 480.047 94.3448 481.235 93.2135 482.095C92.8459 482.374 92.3942 482.53 92.0118 482.781C91.695 482.986 91.3945 483.114 91.029 483.192C91.0109 483.199 90.661 483.296 90.641 483.233C90.1661 482.014 90.6437 480.697 90.3995 479.44C90.3409 479.146 90.3091 478.846 90.2764 478.554C90.2703 478.527 90.2465 478.324 90.2654 478.308C90.7421 478.075 91.5025 478.333 91.9859 478.39C92.7883 478.486 93.3761 478.456 94.1484 478.235L95.9213 478.942Z" fill="#C78E84" fill-opacity="0.33"/>
<path fill-rule="evenodd" clip-rule="evenodd" d="M109.324 297.42C109.324 297.42 108.22 300.532 108.841 302.899C108.841 302.899 110.341 304.48 110.489 305.252C110.489 305.252 115.526 308.056 116.101 312.007C116.101 312.007 120.283 319.453 119.576 322.898C119.576 322.898 119.59 325.329 116.474 326.298C116.474 326.298 116.698 328.632 116.221 330.398C116.221 330.398 118.072 333.774 116.635 336.529C116.635 336.529 89.0506 336.375 87.6731 333.795C87.6731 333.795 83.0327 324.271 83.8894 318.805C83.8894 318.805 81.9336 312.818 85.3168 307.068C88.6989 301.318 87.5819 304.268 91.8082 300.73C91.8082 300.73 98.5474 300.308 99.8769 295.333" fill="#F5C5A7"/>
<path fill-rule="evenodd" clip-rule="evenodd" d="M109.357 297.296C109.175 298.094 108.558 298.629 108.137 299.296C107.798 299.847 107.478 300.414 107.122 300.966C106.701 301.624 106.27 302.257 105.384 302.034C104.517 301.819 103.857 301.057 103.272 300.449C102.336 299.461 101.425 298.464 100.752 297.276C100.622 297.036 100.631 297.045 100.51 296.796C100.389 296.539 99.4916 295.419 100.087 295.278L109.357 297.296Z" fill="#C78E84" fill-opacity="0.33"/>
<path fill-rule="evenodd" clip-rule="evenodd" d="M107.578 302.65C107.768 303.157 107.959 303.691 108.27 304.142C108.781 304.883 109.47 305.47 109.947 306.238C110.617 307.321 110.935 308.8 111.167 310.037C111.187 310.132 111.04 309.894 110.977 309.826C110.806 309.64 110.643 309.454 110.472 309.268C110.093 308.845 109.593 308.696 109.173 308.336C108.376 307.648 108.122 306.786 107.829 305.811C107.586 305.036 107.378 304.25 107.369 303.432L107.578 302.65Z" fill="#C78E84" fill-opacity="0.33"/>
<path fill-rule="evenodd" clip-rule="evenodd" d="M100.307 300.38C100.704 301.098 101.929 303.209 102.284 303.946C102.638 304.691 102.114 304.064 102.46 304.819C103.162 306.355 103.761 307.902 104.685 309.326C104.997 309.812 105.375 310.217 105.737 310.666C105.891 310.853 106.062 311.021 106.207 311.217C106.244 311.268 106.369 311.377 106.308 311.37C105.88 311.306 105.52 310.918 105.241 310.631C104.764 310.133 104.321 309.625 103.81 309.163C103.058 308.483 102.072 307.828 101.539 306.948C101.199 306.394 101.256 305.756 101.088 305.135C101.018 304.858 100.947 304.556 100.8 304.308C100.607 303.984 100.311 303.715 100.195 303.345C100.02 302.767 100.24 302.072 100.151 301.465C100.096 301.119 99.9119 300.803 99.814 300.466C99.6366 299.828 99.5477 298.969 99.6916 298.319L100.307 300.38Z" fill="#C78E84" fill-opacity="0.33"/>
<path fill-rule="evenodd" clip-rule="evenodd" d="M116.785 367.327C118.591 372.56 120.81 383.697 122.071 389.637C122.969 393.869 122.639 398.558 123.329 402.816C124.188 408.081 125.1 413.369 125.311 418.713C125.392 420.81 125 422.876 125.011 424.971C125.035 427.981 125.838 430.92 125.829 433.968C125.821 436.903 124.929 439.481 123.962 442.204C120.381 452.334 115.145 461.296 108.386 469.631C107.124 471.182 106.573 473.008 104.408 471.891C104.045 471.702 103.152 471.119 102.793 470.886C101.928 470.31 101.235 469.72 100.528 468.948C100.499 468.915 98.7707 467.474 98.7543 467.161C98.5085 461.925 99.6156 458.229 101.809 453.625C103.905 449.212 104.943 444.544 106.473 439.933C107.891 435.653 110.909 430.782 110.428 426.202C109.697 419.153 107.336 412.333 106.029 405.384C105.269 401.341 104.355 397.346 103.535 393.317C103.159 391.462 103.23 389.404 102.461 387.65C101.435 385.297 99.9556 383.155 99.0462 380.731C96.9273 375.079 94.9903 369.193 93.8517 363.26C93.5055 361.446 92.2127 358.372 92.361 356.527C92.4037 355.973 93.3445 357.05 93.8207 357.334C95.5512 358.365 96.7651 359.585 98.2247 360.934C101.849 364.273 104.532 357.944 108.921 360.27L116.785 367.327Z" fill="url(#paint0_linear_304_9)"/>
<path fill-rule="evenodd" clip-rule="evenodd" d="M109.974 368.74C110.509 374.267 109.499 379.791 109.239 385.318C108.769 395.425 108.413 405.447 108.343 415.566C108.274 425.144 108.531 435.855 105.853 445.142C104.298 450.516 103.119 455.9 101.879 461.358C100.9 465.669 99.5177 469.994 98.1473 474.196C97.8099 475.239 97.7722 477.596 96.9095 478.474C95.4177 479.98 92.3627 479.785 90.448 479.449C90.0448 479.374 88.3537 479.252 88.0605 478.856C87.5373 478.131 87.3242 477.271 87.2184 476.386C86.6152 471.106 87.3512 465.617 87.561 460.329C87.8057 454.057 87.8632 448.002 88.8621 441.787C89.8465 435.631 91.8649 429.349 92.184 423.119C92.4288 418.368 91.4115 413.485 91.1236 408.735C90.8948 404.899 90.3946 401.072 90.3328 397.227C90.2619 393.207 90.6121 389.166 90.4539 385.145C90.3599 382.705 89.6503 380.309 89.3799 377.887C89.167 375.951 88.8183 374.063 88.4722 372.148C88.2452 370.893 88.0035 369.61 87.8742 368.338C87.7458 367.058 87.7064 365.76 87.674 364.48C87.6563 363.586 87.656 362.694 87.6997 361.797C87.7343 361.084 87.7698 360.361 87.8909 359.656C88.2168 357.747 89.5263 351.57 92.5858 351.809C94.077 351.921 95.4239 352.796 96.6615 353.539C98.7903 354.814 100.851 356.337 102.808 357.858C105.747 360.14 108.357 362.749 110.992 365.369L109.974 368.74Z" fill="url(#paint1_linear_304_9)"/>
<path fill-rule="evenodd" clip-rule="evenodd" d="M127.3 318.834C129.897 317.698 132.214 315.608 133.746 313.194C134.397 312.161 134.219 310.642 135.073 309.696C135.759 308.944 136.64 308.407 137.311 307.643C137.776 307.119 138.088 306.532 138.485 305.963C139.072 305.122 139.744 304.424 140.267 303.528C141.696 301.075 142.984 298.67 144.042 296.017C144.247 295.509 145.277 294.385 144.929 293.76C144.341 292.701 142.58 292.026 141.576 291.516C141.036 291.241 140.446 291.085 139.901 290.821C139.2 290.486 138.411 289.78 137.664 290.234C135.778 291.394 134.955 293.707 133.855 295.506C132.718 297.371 131.228 298.844 129.924 300.557C129.367 301.296 128.707 301.96 128.165 302.712C127.854 303.135 127.581 303.743 127.136 304.066C126.177 304.744 124.89 304.904 123.841 305.432C122.272 306.222 120.982 307.199 119.633 308.194C117.49 309.77 113.514 311.176 111.003 314.91C108.509 318.618 108.647 323.122 109.724 323.665C116.306 327.001 127.3 318.834 127.3 318.834Z" fill="url(#paint2_linear_304_9)"/>
<path fill-rule="evenodd" clip-rule="evenodd" d="M110.309 304.308C111.484 305.166 112.836 305.844 113.929 306.818C117.806 310.269 121.068 316.709 120.367 322.079C120.096 324.152 119.153 325.89 118.434 327.803C117.746 329.629 117.529 331.761 117.367 333.691C116.799 340.745 117.367 347.972 117.355 355.043C117.346 360.32 118.378 361.035 118.326 366.34C118.321 367.49 108.384 367.174 106.063 365.832C101.269 363.047 87.795 361.69 86.9457 355.945C85.536 346.369 84.8603 340.618 85.77 332.324C86.0704 329.563 83.1107 327.048 83.2106 324.267C83.3562 320.23 83.8215 314.816 84.1502 310.799C84.3606 308.206 84.6713 307.081 86.0415 304.868C86.4707 304.174 88.1397 302.856 88.6195 302.379C93.122 297.885 97.3383 303.196 100.152 304.984C101.608 305.911 103.318 306.351 104.864 307.127C105.713 307.552 107.016 308.344 108.003 308.199C110.235 307.881 110.013 305.11 109.201 303.683" fill="url(#paint3_linear_304_9)"/>
<path fill-rule="evenodd" clip-rule="evenodd" d="M90.5532 324.132C90.5532 324.132 82.9426 326.811 78.9513 316.987C78.9513 316.987 72.0345 313.086 70.5162 305.227C70.5162 305.227 64.1611 298.415 60.2583 275.538L64.1449 274.263C64.1449 274.263 74.7104 291.257 76.0221 298.883C76.0221 298.883 79.3766 300.923 81.4571 303.966C83.5719 307.056 84.428 311.165 86.0794 313.427C93.4519 323.521 90.8731 324.454 90.5532 324.132Z" fill="#F5C5A7"/>
<path fill-rule="evenodd" clip-rule="evenodd" d="M78.9672 316.978C79.3774 317.014 79.7538 316.945 80.1328 316.799C80.2731 316.75 80.4004 316.69 80.5407 316.641C80.613 316.612 80.6058 316.615 80.681 316.593C80.6955 316.587 80.7316 316.572 80.7172 316.578C80.0734 316.798 79.3008 316.741 78.6638 316.52C78.449 316.447 78.2399 316.347 78.0222 316.267C77.954 316.244 77.8872 316.204 77.8233 316.171C77.8029 316.162 77.7826 316.154 77.7695 316.142C77.7594 316.138 77.7361 316.122 77.7463 316.126C77.9616 316.325 78.2592 316.457 78.5092 316.617C78.6022 316.68 78.6751 316.777 78.7681 316.84L78.9672 316.978Z" fill="#C78E84" fill-opacity="0.33"/>
<path fill-rule="evenodd" clip-rule="evenodd" d="M70.477 305.17C70.9087 305.424 71.3213 305.61 71.8262 305.692C72.0061 305.72 72.1799 305.691 72.3655 305.691C72.4003 305.694 72.4351 305.697 72.4597 305.695C72.4946 305.698 72.5976 305.724 72.5671 305.711C71.7594 305.339 71.0351 304.841 70.4926 304.126C70.1178 303.637 69.7487 303.121 69.4621 302.58L69.0218 301.721C69.016 301.707 68.9984 301.664 68.997 301.681C68.9845 301.796 69.0302 301.971 69.0495 302.081C69.149 302.598 69.3873 303.04 69.6272 303.508C69.8393 303.928 70.0326 304.363 70.3142 304.747L70.477 305.17Z" fill="#C78E84" fill-opacity="0.33"/>
<path fill-rule="evenodd" clip-rule="evenodd" d="M64.3499 274.556C64.2888 275.155 64.1393 275.764 64.1202 276.362C64.1079 276.831 64.2085 277.288 64.2556 277.758C64.3009 278.161 64.3114 278.561 64.29 278.967C64.278 279.208 64.2722 279.193 64.3052 279.441C64.3112 279.498 64.3104 279.641 64.3349 279.598C64.6083 279.149 64.6639 278.62 64.7559 278.119C64.9242 277.182 65.0167 275.828 64.5428 274.908L64.3499 274.556Z" fill="#C78E84" fill-opacity="0.33"/>
<path fill-rule="evenodd" clip-rule="evenodd" d="M86.0527 313.329L85.9633 313.129C86.7451 314.414 86.9938 316.152 86.9933 317.628C86.9966 318.032 86.9838 318.417 86.9276 318.819C86.9136 318.909 86.9402 319.016 86.8723 319.078C86.8001 319.149 86.7931 318.882 86.7694 318.782C86.7428 318.675 86.7162 318.568 86.6969 318.457C86.63 318.105 86.5805 317.754 86.5238 317.406C86.3285 316.237 86.1799 315.141 85.7195 314.046C84.7884 311.81 83.3177 309.886 82.7846 307.487C82.6855 307.055 82.611 306.622 82.4902 306.198C82.4327 305.994 82.4047 305.904 82.3386 305.72C82.3224 305.659 82.2159 305.542 82.2783 305.551C82.348 305.556 82.5729 305.903 82.6079 305.948C82.9291 306.408 83.1301 306.925 83.3674 307.427C83.6164 307.959 83.8683 308.498 84.0811 309.044C84.3776 309.817 84.5553 310.631 84.8837 311.4C85.187 312.086 85.7277 312.651 86.0527 313.329Z" fill="#C78E84" fill-opacity="0.33"/>
<path fill-rule="evenodd" clip-rule="evenodd" d="M75.9025 298.803C76.1412 299.955 76.5737 300.96 77.0716 302.023C77.5549 303.049 78.0918 304.062 78.2797 305.192C78.3422 305.555 78.3919 305.948 78.3486 306.32C78.3432 306.39 78.2983 306.737 78.2799 306.837C78.2729 306.882 78.2735 307.009 78.2486 306.968C78.0659 306.663 77.9887 306.264 77.8712 305.932C77.7008 305.47 77.5203 305.004 77.3355 304.547C76.6917 302.979 75.8567 301.479 75.3504 299.854C74.9722 298.65 75.0288 297.395 74.7998 296.164C74.7255 295.772 74.6657 295.375 74.5769 294.989C74.5429 294.843 74.4987 294.692 74.4502 294.552C74.434 294.491 74.3448 294.333 74.39 294.382C74.5779 294.575 74.7012 294.88 74.8298 295.114C75.4235 296.163 75.6896 297.278 75.8139 298.459L75.9025 298.803Z" fill="#C78E84" fill-opacity="0.33"/>
<path fill-rule="evenodd" clip-rule="evenodd" d="M60.4103 275.884C58.3936 272.246 57.5929 267.509 58.2005 263.377C58.3969 261.997 59.0107 260.418 59.8213 259.287C59.8858 259.185 59.929 258.956 60.0435 259.015C61.8686 259.904 60.2986 266.06 61.4736 267.955C62.0467 268.885 61.8084 264.418 63.0097 265.818C63.5608 266.471 63.4695 267.551 63.6835 268.34C64.6371 271.852 64.5582 275.088 62.9858 278.403L60.4103 275.884Z" fill="#F5C5A7"/>
<path fill-rule="evenodd" clip-rule="evenodd" d="M89.1415 482.588C88.3951 483.347 87.9771 484.253 87.6688 485.262C87.3112 486.435 87.1806 487.753 87.2999 488.979C87.3379 489.368 87.427 489.989 87.6848 490.309C88.0654 490.782 88.7512 491.004 89.3018 491.195C89.7513 491.35 90.2142 491.465 90.6525 491.649C90.6731 491.657 90.9995 491.819 91.023 491.8C91.5036 491.401 91.2802 490.76 91.9409 491.12C93.139 491.773 93.9213 492.928 95.1369 493.577C97.4352 494.805 99.9589 494.944 102.51 495.123C104.22 495.242 105.834 495.275 107.49 494.772C108.148 494.572 109.187 494.32 109.027 493.423C108.683 491.492 105.735 491.56 104.379 490.905C101.346 489.439 99.9183 486.194 97.4125 484.111C97.0529 483.811 96.5152 483.185 95.9976 483.14C95.3926 483.088 94.7331 483.583 94.1888 483.794C92.8055 484.329 91.5238 484.539 90.2033 483.713L89.1415 482.588Z" fill="#7B8579"/>
<path fill-rule="evenodd" clip-rule="evenodd" d="M97.9481 484.683C97.3626 485.41 96.6141 485.818 95.8265 486.301C95.8061 486.313 95.8 486.341 95.8122 486.36C95.8245 486.38 95.8506 486.387 95.8703 486.374C96.6676 485.886 97.4235 485.472 98.0146 484.736C98.0287 484.718 98.0262 484.69 98.0073 484.676C97.9897 484.662 97.963 484.664 97.9481 484.683Z" fill="white"/>
<path fill-rule="evenodd" clip-rule="evenodd" d="M99.0256 486.1C98.5122 486.707 97.8778 487.282 97.1263 487.571C97.1045 487.58 97.0933 487.604 97.1014 487.626C97.1103 487.648 97.135 487.659 97.1568 487.651C97.9216 487.357 98.5684 486.773 99.0909 486.156C99.1057 486.137 99.1042 486.11 99.0856 486.096C99.0681 486.08 99.0414 486.083 99.0256 486.1Z" fill="white"/>
<path fill-rule="evenodd" clip-rule="evenodd" d="M100.048 487.383C99.5969 488.046 98.9186 488.385 98.2617 488.802C98.2413 488.815 98.2352 488.841 98.2485 488.861C98.2607 488.881 98.2869 488.886 98.3073 488.874C98.975 488.45 99.6603 488.104 100.119 487.43C100.132 487.411 100.127 487.385 100.107 487.372C100.089 487.359 100.062 487.364 100.048 487.383Z" fill="white"/>
<path fill-rule="evenodd" clip-rule="evenodd" d="M100.574 488.376C100.475 488.791 100.158 489.02 99.8215 489.251C99.5789 489.417 99.3461 489.597 99.0693 489.699C99.0475 489.708 99.0363 489.732 99.0444 489.754C99.0522 489.777 99.0773 489.788 99.0991 489.779C99.3827 489.674 99.622 489.492 99.8699 489.321C100.224 489.079 100.553 488.832 100.656 488.396C100.662 488.373 100.647 488.35 100.625 488.345C100.602 488.339 100.579 488.354 100.574 488.376Z" fill="white"/>
<path fill-rule="evenodd" clip-rule="evenodd" d="M91.0984 491.549C91.4059 490.818 92.0493 490.106 92.8961 490.498C93.9002 490.963 94.6514 491.882 95.5692 492.488C97.3552 493.666 99.3991 494.28 101.516 494.518C102.559 494.635 103.538 494.74 104.571 494.533C104.594 494.528 104.609 494.506 104.605 494.482C104.6 494.46 104.577 494.445 104.555 494.449C103.53 494.654 102.559 494.55 101.525 494.433C99.4219 494.196 97.3913 493.587 95.6158 492.416C94.6945 491.809 93.9395 490.887 92.9318 490.421C92.0351 490.006 91.345 490.742 91.0193 491.516C91.0103 491.538 91.0205 491.562 91.0422 491.572C91.0637 491.581 91.0893 491.571 91.0984 491.549Z" fill="white"/>
<path fill-rule="evenodd" clip-rule="evenodd" d="M98.9458 474.794C98.1188 475.463 97.6014 476.316 97.1815 477.284C96.6942 478.408 96.4162 479.703 96.3968 480.934C96.3908 481.324 96.4094 481.952 96.6296 482.299C96.9545 482.812 97.6111 483.109 98.1368 483.361C98.5659 483.567 99.013 483.733 99.4278 483.966C99.4474 483.976 99.7535 484.174 99.7789 484.158C100.302 483.816 100.152 483.154 100.768 483.586C101.885 484.37 102.532 485.606 103.667 486.389C105.813 487.869 108.305 488.293 110.82 488.76C112.506 489.072 114.106 489.287 115.808 488.975C116.485 488.851 117.545 488.718 117.487 487.809C117.362 485.852 114.426 485.585 113.152 484.781C110.303 482.982 109.249 479.596 106.993 477.243C106.67 476.905 106.206 476.222 105.697 476.119C105.101 475.999 104.39 476.416 103.826 476.563C102.391 476.938 101.094 477.002 99.8745 476.031L98.9458 474.794Z" fill="#7B8579"/>
<path fill-rule="evenodd" clip-rule="evenodd" d="M107.462 477.871C106.798 478.528 106.009 478.848 105.172 479.239C105.15 479.248 105.141 479.275 105.151 479.295C105.161 479.317 105.186 479.326 105.207 479.316C106.054 478.921 106.852 478.596 107.522 477.931C107.538 477.915 107.539 477.888 107.522 477.871C107.506 477.855 107.479 477.854 107.462 477.871Z" fill="white"/>
<path fill-rule="evenodd" clip-rule="evenodd" d="M108.373 479.402C107.795 479.946 107.1 480.446 106.32 480.648C106.298 480.654 106.284 480.677 106.289 480.699C106.296 480.722 106.319 480.736 106.342 480.73C107.135 480.525 107.843 480.018 108.432 479.464C108.449 479.448 108.45 479.421 108.433 479.404C108.418 479.386 108.391 479.386 108.373 479.402Z" fill="white"/>
<path fill-rule="evenodd" clip-rule="evenodd" d="M109.245 480.792C108.722 481.4 108.009 481.66 107.31 481.999C107.288 482.01 107.279 482.035 107.29 482.056C107.3 482.078 107.325 482.086 107.347 482.076C108.058 481.731 108.778 481.464 109.309 480.847C109.325 480.829 109.322 480.803 109.305 480.787C109.287 480.772 109.26 480.774 109.245 480.792Z" fill="white"/>
<path fill-rule="evenodd" clip-rule="evenodd" d="M109.655 481.838C109.511 482.239 109.169 482.431 108.809 482.622C108.549 482.76 108.298 482.911 108.011 482.982C107.989 482.988 107.975 483.011 107.98 483.034C107.985 483.057 108.009 483.071 108.032 483.065C108.325 482.993 108.584 482.839 108.849 482.697C109.229 482.496 109.583 482.289 109.735 481.867C109.743 481.844 109.731 481.821 109.709 481.812C109.687 481.804 109.663 481.816 109.655 481.838Z" fill="white"/>
<path fill-rule="evenodd" clip-rule="evenodd" d="M99.882 483.918C100.27 483.226 100.989 482.592 101.787 483.078C102.732 483.653 103.375 484.651 104.219 485.357C105.861 486.729 107.823 487.57 109.9 488.047C110.923 488.281 111.883 488.496 112.934 488.408C112.957 488.405 112.974 488.385 112.972 488.361C112.971 488.338 112.949 488.32 112.927 488.322C111.885 488.409 110.933 488.196 109.918 487.963C107.855 487.489 105.906 486.655 104.273 485.291C103.426 484.583 102.78 483.582 101.831 483.005C100.986 482.491 100.218 483.145 99.8072 483.876C99.7957 483.897 99.8032 483.922 99.8236 483.934C99.8443 483.946 99.8705 483.938 99.882 483.918Z" fill="white"/>
<path fill-rule="evenodd" clip-rule="evenodd" d="M92.2819 322.105C93.2694 317.156 88.8663 314.191 86.5112 310.206C82.3693 303.203 77.547 296.705 73.1378 289.895C71.8237 287.857 71.329 285.241 69.9093 283.254C69.5242 282.719 68.5372 282.758 67.9706 282.795C66.3982 282.886 64.919 283.395 63.4751 283.991C63.164 284.118 61.8781 284.397 61.7713 284.82C61.4567 286.061 61.9972 287.604 62.2594 288.814C62.7811 291.309 63.5428 293.648 64.4801 296.025C67.1186 302.686 70.211 309.678 74.6613 315.34C75.9284 316.95 77.875 317.533 79.12 319.068C79.8708 319.985 80.4395 321.036 81.2351 321.919C81.7407 322.481 82.4052 322.936 82.9959 323.395C85.0297 324.963 89.9216 327.055 91.8732 324.009L92.2819 322.105Z" fill="url(#paint4_linear_304_9)"/>
<path fill-rule="evenodd" clip-rule="evenodd" d="M113.569 280.864C113.569 280.864 114.593 284.949 113.944 286.937C113.944 286.937 113.764 287.383 113.437 287.761C113.437 287.761 112.813 288.469 113.048 289.381C113.048 289.381 114.26 292.54 114.411 292.966C114.411 292.966 114.74 293.776 113.896 293.947C113.896 293.947 112.428 294.052 112.291 294.178C112.154 294.304 112.421 295.293 112.476 295.54C112.476 295.54 112.383 296.027 111.972 296.18C111.972 296.18 111.709 296.255 111.5 296.265C111.5 296.265 111.861 296.712 111.746 297.088C111.631 297.463 110.936 297.886 110.762 298.198C110.588 298.511 110.731 299.664 110.591 299.936C110.451 300.209 110.409 300.843 107.6 300.892C104.79 300.941 101.1 297.144 99.9425 296.01C99.9425 296.01 98.8613 294.106 99.0059 292.913C99.0059 292.913 92.993 289.365 95.1609 285.959C95.1609 285.959 97.282 282.602 99.5056 285.892C99.5056 285.892 100.403 279.703 105.035 278.781C109.666 277.858 113.569 280.864 113.569 280.864Z" fill="#F6C7A8"/>
<path fill-rule="evenodd" clip-rule="evenodd" d="M110.681 298.773C110.708 299.252 110.805 299.883 110.626 300.34C110.051 301.766 107.482 301.157 106.434 300.836C105.706 300.612 105.049 300.319 104.435 299.856C104.283 299.736 104.126 299.611 103.946 299.502C103.849 299.437 103.528 299.323 103.637 299.301C104.348 299.192 105.19 299.747 105.847 299.921C107.243 300.291 108.742 300.4 109.86 299.366C110.154 299.1 110.268 298.735 110.501 298.436L110.681 298.773Z" fill="black"/>
<path fill-rule="evenodd" clip-rule="evenodd" d="M112.304 294.474C112.321 294.599 112.418 294.828 112.359 294.953C112.277 295.138 111.94 295.214 111.772 295.247C111.229 295.35 110.681 295.307 110.137 295.416C109.703 295.503 109.258 295.677 108.894 295.916C108.628 296.085 108.405 296.319 108.155 296.509C107.694 296.852 107.286 297.07 106.743 297.255C106.564 297.315 106.379 297.347 106.184 297.38C106.102 297.391 106.016 297.407 105.934 297.418C105.907 297.424 105.793 297.467 105.836 297.445C106.2 297.222 106.564 296.988 106.928 296.749C107.167 296.591 107.433 296.488 107.639 296.292C107.976 295.965 108.34 295.644 108.704 295.35C108.916 295.187 109.095 295.013 109.334 294.915C109.947 294.67 110.577 294.79 111.207 294.741C111.446 294.725 111.669 294.648 111.881 294.567C112.033 294.507 112.174 294.425 112.342 294.453L112.304 294.474Z" fill="black"/>
<path fill-rule="evenodd" clip-rule="evenodd" d="M96.8187 291.613C95.5106 291.035 94.7126 289.332 94.2221 288.046C93.8972 287.186 93.574 286.366 93.4502 285.449C92.953 281.809 94.7494 278.941 97.7848 277.096C100.617 275.38 103.484 275.756 106.613 275.86C109.043 275.942 111.781 275.692 114.162 275.168C116.081 274.746 117.869 274.106 119.575 273.15C120.137 272.837 120.559 272.491 121.013 272.037C121.111 271.94 121.297 271.755 121.411 271.649C121.451 271.614 121.56 271.488 121.535 271.537C120.806 273.02 119.641 274.641 118.398 275.731C117.895 276.174 117.353 276.601 116.836 277.026C116.82 277.038 116.311 277.399 116.315 277.404C116.37 277.518 116.865 277.516 116.871 277.517C117.647 277.482 118.327 277.136 119.029 276.847C119.341 276.718 119.323 276.734 119.618 276.607C119.691 276.574 119.852 276.434 119.833 276.507C119.63 277.311 118.642 278.019 118.057 278.562C115.996 280.482 113.274 280.988 110.688 281.839C110.001 282.065 109.266 282.211 108.633 282.573C107.497 283.229 106.565 284.026 105.893 285.169C105.667 285.554 105.485 285.968 105.302 286.375C105.238 286.521 105.276 286.752 105.131 286.811C104.908 286.901 103.991 286.297 103.774 286.217C102.867 285.892 101.425 285.627 100.703 286.474C100.208 287.054 100.282 287.676 100.732 288.251C100.916 288.485 101.142 288.678 101.365 288.874C101.494 288.985 101.877 289.057 101.77 289.186C101.354 289.698 100.669 289.802 100.17 290.195C98.7797 291.29 98.6109 292.498 99.2723 294.398L96.8187 291.613Z" fill="#283474"/>
<path fill-rule="evenodd" clip-rule="evenodd" d="M388.515 313.648C388.515 313.648 388.877 314.86 385.062 316.709C385.062 316.709 377.849 316.712 376.737 318.887C376.737 318.887 374.992 320.829 374.214 322.851C374.214 322.851 371.967 325.652 373.253 331.617C373.253 331.617 373.602 339.346 376.845 344.029C376.845 344.029 409.176 347.054 410.512 343.544C411.847 340.033 411.687 336.847 411.687 336.847C411.687 336.847 413.674 328.176 412.874 325.23C412.075 322.284 412.44 320.617 411.232 319.563C410.587 319.002 407.431 317.991 405.224 318.032C405.224 318.032 402.833 316.15 400.361 316.165C400.361 316.165 397.135 315.24 396.673 314.176L391.892 313.614L388.515 313.648Z" fill="#F5C5A7"/>
<path fill-rule="evenodd" clip-rule="evenodd" d="M448.561 294.369C451.497 292.066 453.798 288.429 454.735 284.799C455.053 283.588 455.092 282.078 454.813 280.847C454.79 280.743 454.831 280.531 454.726 280.537C452.902 280.629 452.077 286.271 450.443 287.431C449.634 288.003 451.394 284.379 449.912 285.128C449.223 285.473 448.924 286.402 448.474 286.979C446.463 289.547 445.406 292.254 445.544 295.536L448.561 294.369Z" fill="#F5C5A7"/>
<path fill-rule="evenodd" clip-rule="evenodd" d="M405.493 333.951C405.493 333.951 411.186 337.702 418.107 329.296C418.107 329.296 425.502 326.852 429.579 319.847C429.579 319.847 437.504 314.619 448.923 294.14L445.982 292.311C445.982 292.311 430.82 306.238 427.004 313.063C427.004 313.063 414.831 318.342 410.402 321.939C400.441 330.029 405.101 334.195 405.493 333.951Z" fill="#F5C5A7"/>
<path fill-rule="evenodd" clip-rule="evenodd" d="M427.176 312.836C426.65 313.63 426.351 314.467 426.283 315.417C426.256 315.704 426.228 315.967 426.153 316.244C426.118 316.386 426.077 316.522 426.048 316.657C426.033 316.712 425.951 316.857 426.004 316.835C426.205 316.739 426.395 316.346 426.53 316.169C426.959 315.586 427.293 314.955 427.596 314.294C428.408 312.549 429.396 310.594 430.754 309.189C431.505 308.413 432.01 307.462 432.615 306.578C432.862 306.225 433.122 305.882 433.388 305.546C433.439 305.476 433.49 305.419 433.541 305.349C433.598 305.285 433.771 305.13 433.7 305.158C432.197 305.928 431.224 307.724 430.23 309.03C429.299 310.253 428.085 311.316 427.385 312.679L427.176 312.836Z" fill="#C78E84" fill-opacity="0.33"/>
<path fill-rule="evenodd" clip-rule="evenodd" d="M424.041 315.028C421.626 318.234 419.671 321.889 417.464 325.247C415.497 328.222 412.643 331.288 409.143 332.43C407.798 332.868 406.786 332.858 405.416 332.733C404.935 332.693 404.496 332.645 404.029 332.537C403.839 332.493 403.297 332.547 403.453 332.411C404.168 331.752 405.856 331.495 406.754 331.184C408.228 330.677 409.463 329.783 410.477 328.61C413.301 325.344 414.508 320.882 417.552 317.756C418.429 316.852 419.814 316.702 420.872 316.109C421.83 315.576 422.651 314.759 423.781 314.588" fill="#C78E84" fill-opacity="0.33"/>
<path fill-rule="evenodd" clip-rule="evenodd" d="M335.277 303.869C331.002 302.524 326.886 299.413 324.306 295.734C323.442 294.51 322.753 292.83 322.553 291.331C322.533 291.211 322.401 290.987 322.524 290.95C324.606 290.288 327.927 296.266 330.255 296.879C331.398 297.177 327.897 293.854 329.877 294.074C330.796 294.165 331.524 295.093 332.279 295.543C335.62 297.564 337.957 300.173 339.175 303.921L335.277 303.869Z" fill="#F5C5A7"/>
<path fill-rule="evenodd" clip-rule="evenodd" d="M383.506 335.194C383.506 335.194 377.435 341.252 369.436 333.824C369.436 333.824 361.202 333.347 356.391 326.629C356.391 326.629 347.441 323.141 333.929 303.344L337.069 300.339C337.069 300.339 354.379 311.491 358.894 318.085C358.894 318.085 372.509 320.304 377.543 323.023C388.864 329.141 383.947 335.35 383.506 335.194Z" fill="#F5C5A7"/>
<path fill-rule="evenodd" clip-rule="evenodd" d="M379.658 337.022C377.701 337.646 376.271 336.281 375.04 334.938C372.612 332.302 370.415 329.38 370.777 325.611C370.916 324.154 371.504 322.709 372.572 321.666C372.817 321.432 373.129 321.001 373.466 320.891C373.863 320.763 374.03 321.812 374.06 321.998C374.312 323.473 374.434 324.984 374.603 326.473C374.864 328.743 375.379 331.43 376.709 333.344C377.248 334.118 377.961 334.673 378.686 335.262L379.658 337.022Z" fill="#C78E84" fill-opacity="0.33"/>
<path fill-rule="evenodd" clip-rule="evenodd" d="M350.769 318.47C350.824 318.475 350.878 318.48 350.933 318.485C351.82 318.587 352.638 318.725 353.48 319.041C355.348 319.747 357.42 319.673 359.385 319.638C360.335 319.617 361.288 319.758 362.241 319.775C363.269 319.794 364.292 319.776 365.324 319.772C365.64 319.769 365.959 319.835 366.278 319.82C366.377 319.816 366.472 319.804 366.572 319.8C366.622 319.798 366.776 319.83 366.733 319.796C366.457 319.579 366.061 319.522 365.722 319.458C365.198 319.363 364.719 319.289 364.193 319.236C363.069 319.116 361.985 318.713 360.875 318.491L358.894 318.157C357.585 317.974 356.299 318.012 354.98 317.938C354.565 317.915 354.163 318.036 353.752 318.082C352.748 318.19 351.762 318.359 350.769 318.47C350.617 318.457 350.475 318.459 350.323 318.477C350.266 318.484 350.209 318.491 350.152 318.497C350.062 318.516 349.81 318.569 349.898 318.563C350.199 318.538 350.484 318.504 350.769 318.47Z" fill="#C78E84" fill-opacity="0.33"/>
<path fill-rule="evenodd" clip-rule="evenodd" d="M388.454 307.331C388.698 309.685 388.542 312.082 388.388 314.438C388.337 315.202 388.302 315.99 388.15 316.745C388.101 316.988 388.033 317.231 387.947 317.463C387.918 317.542 387.888 317.62 387.854 317.697C387.83 317.748 387.718 317.854 387.775 317.849C388.595 317.772 389.384 317.384 390.175 317.169C391.442 316.825 392.773 316.703 394.082 316.67C395.188 316.644 396.289 316.598 397.393 316.56C397.618 316.551 397.845 316.551 398.07 316.549C398.145 316.549 398.288 316.626 398.297 316.551C398.356 315.995 397.931 315.33 397.713 314.847C397.404 314.162 397.147 313.412 397.058 312.663C396.765 310.206 397.255 307.795 397.303 305.353" fill="#F5C5A7"/>
<path fill-rule="evenodd" clip-rule="evenodd" d="M397.013 309.284C397.004 309.678 396.936 310.055 396.927 310.449C396.902 311.555 396.97 312.721 397.218 313.793C397.312 314.204 397.398 314.693 397.655 315.044C397.766 315.19 397.903 315.319 398.031 315.447C398.065 315.481 398.1 315.524 398.142 315.559C398.168 315.576 398.245 315.601 398.211 315.619C397.894 315.79 397.552 315.833 397.201 315.91C396.748 316.004 396.303 316.133 395.858 316.253C395.199 316.433 394.532 316.57 393.865 316.724C392.547 317.033 391.213 317.376 389.844 317.342C388.954 317.316 388.338 316.844 387.748 316.219C387.645 316.107 387.542 315.996 387.414 315.91C387.371 315.884 387.32 315.859 387.277 315.833C387.251 315.824 387.192 315.824 387.209 315.799C387.491 315.413 388.124 315.284 388.518 315.087C389.279 314.71 390.023 314.29 390.742 313.836C391.375 313.441 392.034 313.03 392.624 312.567C393.907 311.555 394.943 310.209 395.875 308.881C396.183 308.444 396.474 307.998 396.765 307.552C396.893 307.346 397.081 307.158 397.167 306.935L397.013 309.284Z" fill="#C78E84" fill-opacity="0.33"/>
<path fill-rule="evenodd" clip-rule="evenodd" d="M386.707 453.794C386.596 449.585 374.567 450.1 374.319 453.734C373.515 465.178 372.736 478.671 375.466 489.67C376.176 492.524 377.45 495.062 378.041 497.968C378.066 498.105 378.417 500.994 378.494 501.028C378.956 501.225 380.633 501.036 380.95 500.265C382.122 497.402 381.283 492.781 381.925 489.412C384.064 478.208 387.015 465.555 386.707 453.794Z" fill="#F5C5A7"/>
<path fill-rule="evenodd" clip-rule="evenodd" d="M375.034 486.92C375.36 488.249 375.881 489.38 376.643 490.512C377.567 491.883 378.747 493.049 380.219 493.795C380.527 493.949 380.843 494.104 381.169 494.232L381.648 494.412C381.759 494.104 381.477 493.538 381.417 493.246C381.297 492.621 381.374 491.96 381.477 491.343C381.776 489.603 382.606 487.846 381.802 486.166L375.034 486.92Z" fill="#C78E84" fill-opacity="0.33"/>
<path fill-rule="evenodd" clip-rule="evenodd" d="M400.584 452.423C400.695 448.136 412.39 448.659 412.638 452.363C413.417 464.03 414.178 477.78 411.526 489.001C410.833 491.915 409.593 494.496 409.019 497.462C408.994 497.599 408.652 500.548 408.575 500.582C408.121 500.779 406.496 500.591 406.188 499.802C405.05 496.879 405.863 492.173 405.238 488.735C403.159 477.317 400.285 464.415 400.584 452.423Z" fill="#F5C5A7"/>
<path fill-rule="evenodd" clip-rule="evenodd" d="M405.628 493.992C407.639 493.306 409.213 492.098 410.633 490.563C411.01 490.152 411.232 489.689 411.472 489.192C411.497 489.14 411.66 488.771 411.634 488.754C411.403 488.643 410.933 488.831 410.71 488.883C410.137 489.029 409.581 489.166 408.99 489.217C408.486 489.26 407.93 489.312 407.433 489.217C407.031 489.14 406.689 488.951 406.304 488.814C406.184 488.771 406.056 488.729 405.928 488.711C404.995 488.643 405.637 490.014 405.697 490.426C405.757 490.829 405.739 491.24 405.731 491.643C405.714 492.226 405.705 492.8 405.662 493.375L405.628 493.992Z" fill="#C78E84" fill-opacity="0.33"/>
<path fill-rule="evenodd" clip-rule="evenodd" d="M381.683 369.983C374.555 376.571 374.669 388.312 374.343 397.363C373.985 407.359 373.985 417.453 373.367 427.433C373.188 430.433 372.26 433.401 372.228 436.418C372.163 442.337 372.749 448.713 372.114 454.616C371.577 459.655 371.17 464.221 370.714 469.26C370.405 472.538 370.682 475.864 371.284 479.061C371.691 481.246 372.358 484.735 373.758 486.611C376.036 489.693 382.513 488.747 384.173 485.453C386.631 480.544 387.2 475.636 388.03 470.353C388.665 466.227 388.665 461.889 388.925 457.666C389.104 454.796 390.146 453.491 389.755 448.762C389.511 445.68 388.274 441.815 388.079 438.701C387.884 435.439 389.007 432.455 389.381 429.259C389.869 425.036 389.723 420.763 391.041 416.654C396.054 400.983 394.052 384.529 393.417 368.418L381.683 369.983Z" fill="url(#paint5_linear_304_9)"/>
<path fill-rule="evenodd" clip-rule="evenodd" d="M404.717 371.341C411.845 377.929 411.731 389.67 412.056 398.72C412.414 408.716 412.414 418.81 413.033 428.79C413.212 431.79 414.139 434.758 414.172 437.775C414.237 443.695 413.651 450.071 414.286 455.974C414.823 461.012 415.23 465.578 415.686 470.617C415.995 473.895 415.718 477.222 415.116 480.418C414.709 482.603 414.042 486.093 412.642 487.968C410.364 491.05 403.887 490.104 402.227 486.81C399.769 481.902 399.199 476.993 398.369 471.71C397.735 467.584 397.735 463.247 397.474 459.023C397.295 456.153 396.254 454.848 396.644 450.119C396.888 447.037 398.125 443.173 398.321 440.058C398.516 436.797 397.393 433.813 397.019 430.616C396.53 426.393 396.677 422.12 395.359 418.011C390.346 402.34 392.348 385.886 392.983 369.775L404.717 371.341Z" fill="url(#paint6_linear_304_9)"/>
<path fill-rule="evenodd" clip-rule="evenodd" d="M405.573 496.235C405.148 496.813 404.956 497.458 404.847 498.161C404.721 498.978 404.76 499.87 404.957 500.676C405.02 500.931 405.139 501.337 405.341 501.526C405.64 501.804 406.119 501.886 406.505 501.96C406.819 502.021 407.139 502.052 407.449 502.133C407.464 502.136 407.697 502.213 407.711 502.198C407.993 501.885 407.783 501.479 408.258 501.656C409.12 501.975 409.752 502.67 410.625 502.986C412.276 503.583 413.972 503.432 415.691 503.305C416.843 503.22 417.923 503.085 418.979 502.59C419.399 502.393 420.068 502.125 419.875 501.542C419.46 500.287 417.501 500.617 416.534 500.311C414.37 499.627 413.107 497.6 411.236 496.452C410.967 496.287 410.548 495.922 410.199 495.941C409.79 495.965 409.398 496.359 409.055 496.552C408.184 497.043 407.349 497.307 406.389 496.883L405.573 496.235Z" fill="#859D81"/>
<path fill-rule="evenodd" clip-rule="evenodd" d="M411.647 496.782C411.326 497.323 410.866 497.668 410.387 498.066C410.375 498.076 410.373 498.095 410.383 498.107C410.393 498.119 410.411 498.121 410.423 498.11C410.908 497.708 411.373 497.359 411.697 496.811C411.704 496.797 411.7 496.779 411.686 496.772C411.673 496.764 411.656 496.768 411.647 496.782Z" fill="white"/>
<path fill-rule="evenodd" clip-rule="evenodd" d="M412.502 497.623C412.218 498.078 411.85 498.523 411.376 498.788C411.363 498.796 411.357 498.813 411.365 498.827C411.373 498.84 411.391 498.846 411.404 498.838C411.886 498.568 412.262 498.116 412.551 497.654C412.559 497.64 412.556 497.623 412.542 497.615C412.529 497.606 412.511 497.61 412.502 497.623Z" fill="white"/>
<path fill-rule="evenodd" clip-rule="evenodd" d="M413.308 498.381C413.07 498.866 412.65 499.158 412.252 499.499C412.24 499.51 412.238 499.528 412.249 499.54C412.259 499.552 412.277 499.553 412.289 499.543C412.694 499.196 413.118 498.899 413.359 498.405C413.366 498.391 413.36 498.374 413.346 498.367C413.332 498.36 413.315 498.366 413.308 498.381Z" fill="white"/>
<path fill-rule="evenodd" clip-rule="evenodd" d="M413.753 498.992C413.727 499.278 413.538 499.462 413.335 499.648C413.19 499.783 413.051 499.925 412.877 500.02C412.863 500.028 412.858 500.045 412.865 500.059C412.873 500.073 412.89 500.078 412.904 500.07C413.083 499.973 413.225 499.828 413.374 499.69C413.587 499.494 413.783 499.298 413.81 498.997C413.812 498.981 413.8 498.968 413.784 498.966C413.768 498.964 413.755 498.977 413.753 498.992Z" fill="white"/>
<path fill-rule="evenodd" clip-rule="evenodd" d="M407.738 502.023C407.873 501.505 408.234 500.969 408.836 501.148C409.55 501.362 410.14 501.902 410.81 502.217C412.114 502.831 413.536 503.043 414.971 502.997C415.678 502.975 416.341 502.95 417.01 502.713C417.025 502.707 417.033 502.691 417.028 502.675C417.023 502.661 417.006 502.653 416.991 502.658C416.327 502.894 415.67 502.918 414.969 502.94C413.543 502.985 412.131 502.775 410.834 502.165C410.161 501.849 409.569 501.307 408.853 501.093C408.215 500.903 407.825 501.461 407.682 502.009C407.678 502.024 407.687 502.039 407.702 502.043C407.718 502.047 407.734 502.038 407.738 502.023Z" fill="white"/>
<path fill-rule="evenodd" clip-rule="evenodd" d="M381.927 497.823C382.352 498.401 382.544 499.045 382.653 499.748C382.779 500.565 382.74 501.457 382.543 502.263C382.48 502.519 382.361 502.925 382.159 503.113C381.859 503.392 381.381 503.473 380.995 503.547C380.68 503.608 380.361 503.639 380.051 503.72C380.036 503.724 379.803 503.8 379.789 503.785C379.507 503.473 379.717 503.067 379.242 503.243C378.38 503.563 377.748 504.257 376.875 504.573C375.224 505.17 373.527 505.019 371.809 504.892C370.657 504.807 369.577 504.673 368.521 504.177C368.101 503.98 367.432 503.712 367.625 503.129C368.04 501.875 369.999 502.204 370.966 501.898C373.13 501.214 374.393 499.187 376.264 498.04C376.533 497.874 376.952 497.509 377.301 497.529C377.71 497.553 378.102 497.946 378.445 498.139C379.316 498.63 380.151 498.894 381.111 498.47L381.927 497.823Z" fill="#859D81"/>
<path fill-rule="evenodd" clip-rule="evenodd" d="M375.853 498.369C376.174 498.911 376.634 499.255 377.113 499.653C377.125 499.663 377.127 499.682 377.117 499.694C377.107 499.706 377.088 499.708 377.077 499.698C376.592 499.295 376.127 498.946 375.803 498.398C375.796 498.385 375.8 498.366 375.814 498.359C375.827 498.351 375.845 498.355 375.853 498.369Z" fill="white"/>
<path fill-rule="evenodd" clip-rule="evenodd" d="M374.998 499.211C375.282 499.665 375.65 500.11 376.124 500.375C376.137 500.383 376.142 500.4 376.135 500.414C376.127 500.428 376.109 500.433 376.096 500.425C375.614 500.155 375.238 499.704 374.949 499.241C374.941 499.228 374.944 499.21 374.958 499.202C374.972 499.193 374.989 499.197 374.998 499.211Z" fill="white"/>
<path fill-rule="evenodd" clip-rule="evenodd" d="M374.193 499.968C374.43 500.454 374.85 500.745 375.248 501.087C375.261 501.097 375.262 501.115 375.251 501.127C375.241 501.14 375.223 501.14 375.211 501.13C374.806 500.783 374.382 500.486 374.141 499.993C374.134 499.978 374.14 499.961 374.154 499.954C374.168 499.948 374.186 499.953 374.193 499.968Z" fill="white"/>
<path fill-rule="evenodd" clip-rule="evenodd" d="M373.746 500.58C373.772 500.866 373.962 501.049 374.164 501.236C374.31 501.37 374.448 501.512 374.623 501.607C374.637 501.615 374.642 501.633 374.635 501.646C374.627 501.661 374.61 501.666 374.596 501.658C374.417 501.56 374.274 501.416 374.125 501.278C373.913 501.082 373.717 500.886 373.69 500.585C373.688 500.569 373.7 500.555 373.716 500.554C373.731 500.552 373.745 500.564 373.746 500.58Z" fill="white"/>
<path fill-rule="evenodd" clip-rule="evenodd" d="M379.762 503.61C379.627 503.093 379.267 502.556 378.664 502.736C377.95 502.949 377.36 503.489 376.69 503.805C375.386 504.418 373.964 504.63 372.529 504.585C371.822 504.562 371.159 504.537 370.49 504.3C370.475 504.294 370.467 504.278 370.472 504.263C370.478 504.248 370.494 504.24 370.509 504.245C371.173 504.481 371.83 504.505 372.531 504.527C373.957 504.572 375.37 504.362 376.666 503.752C377.339 503.436 377.931 502.894 378.648 502.681C379.285 502.49 379.675 503.048 379.818 503.596C379.822 503.611 379.813 503.627 379.798 503.631C379.782 503.635 379.766 503.625 379.762 503.61Z" fill="white"/>
<path fill-rule="evenodd" clip-rule="evenodd" d="M379.899 337.13C378.05 338.385 375.849 337.335 373.979 336.683C372.357 336.124 370.674 335.756 369.204 334.829C368.533 334.41 367.847 334.444 367.127 334.162C365.521 333.522 363.858 332.513 362.372 331.631C360.58 330.567 359.032 329.167 357.33 327.973C353.925 325.587 350.48 323.298 347.197 320.726C345.032 319.023 343.295 316.945 341.274 315.089C340.754 314.617 340.28 314.162 339.848 313.609C339.826 313.577 339.305 313.013 339.3 312.9C339.273 312.417 340.155 311.777 340.429 311.503C341.775 310.138 343.068 308.726 344.119 307.124C344.312 306.834 344.888 305.569 345.308 305.466C345.449 305.432 345.875 306.117 345.942 306.201C346.6 306.989 347.471 307.52 348.316 308.08C350.978 309.85 353.523 312.059 355.919 314.167C356.851 314.984 358.098 316.722 359.342 317.077C359.944 317.25 360.557 316.997 361.16 316.995C362.038 316.986 363.035 317.178 363.898 317.377C366.383 317.937 368.702 319.096 370.975 320.203C372.28 320.844 373.66 321.459 374.874 322.263L379.899 337.13Z" fill="url(#paint7_linear_304_9)"/>
<path fill-rule="evenodd" clip-rule="evenodd" d="M399.856 335.72C403.121 338.948 409.008 335.536 414.357 333.821C419.084 332.305 420.284 329.284 423.233 326.565C425.182 324.777 427.682 323.757 429.652 321.96C432.935 318.954 435.27 315.202 438.179 311.886C439.763 310.084 440.804 308.277 442.09 306.298C442.521 305.64 443.462 304.761 443.699 303.956C443.838 303.494 443.042 302.519 442.831 302.2C442.268 301.343 439.892 297.79 438.429 298.305C434.843 299.565 434.009 303.24 431.942 305.876C430.363 307.892 428.458 309.368 426.509 311.026C424.152 313.023 415.016 318.571 412.213 320.09L399.856 335.72Z" fill="url(#paint8_linear_304_9)"/>
<path fill-rule="evenodd" clip-rule="evenodd" d="M377.338 317.149C372.39 320.28 372.456 324.764 372.57 330.162C372.797 340.729 377.745 349.844 380.137 359.873C380.853 362.89 380.772 365.336 379.958 367.668C379.389 369.331 378.363 371.484 380.007 373.033C381.618 374.566 384.857 374.158 386.924 374.272C391.839 374.5 395.24 374.468 400.155 374.615C401.961 374.663 403.703 374.533 405.444 374.158C405.591 374.125 407.381 373.571 407.462 373.424C408.406 371.745 408.406 369.429 408.211 367.978C407.641 363.836 406.551 360.02 407.218 355.796C408.081 350.268 411.075 345.246 411.954 339.701C412.491 336.31 411.205 332.673 411.384 329.232C411.612 324.862 414.721 321.487 410.75 318.861C409.692 318.16 404.647 316.497 403.507 315.975C401.782 315.208 400.057 314.866 398.121 314.915C395.972 314.98 394.101 316.872 391.871 317.002C390.097 317.1 388.209 315.274 386.435 315.176C384.661 315.078 382.53 315.551 381.016 315.893C379.747 316.154 377.338 317.149 377.338 317.149Z" fill="url(#paint9_linear_304_9)"/>
<path fill-rule="evenodd" clip-rule="evenodd" d="M396.348 307.211C395.25 307.713 394.334 308.032 393.112 308.101C392.152 308.147 391.112 308.3 390.156 308.137C387.783 307.729 385.362 306.022 383.887 304.196C383.368 303.553 382.803 302.869 382.399 302.142C382.132 301.667 382.016 301.08 381.694 300.631C380.732 299.293 379.585 298.3 379.281 296.577C379.097 295.541 379.301 294.256 380.047 293.468C380.306 293.192 381.017 293.014 381.129 292.668C381.378 291.901 381.184 290.981 381.319 290.181C381.71 287.877 383.105 285.367 385.082 284.062C386.188 283.335 387.524 282.781 388.823 282.525C390.565 282.186 392.478 282.07 394.198 282.578C398.514 283.843 401.712 288.541 402.465 292.847C402.512 293.113 403.201 293.322 403.397 293.448C403.801 293.704 403.961 294.228 404.005 294.68C404.192 296.562 403.308 298.798 402.07 300.182C401.673 300.631 400.634 300.857 400.352 301.348C399.458 302.925 399.126 305.414 397.687 306.637L396.348 307.211Z" fill="#F5C6A7"/>
<path fill-rule="evenodd" clip-rule="evenodd" d="M384.268 303.818C383.379 302.966 382.258 302.334 382.293 300.933C382.305 300.426 382.445 299.888 382.665 299.433C382.678 299.406 383.136 298.832 383.131 298.822C383.057 298.633 382.651 298.324 382.564 298.251C381.754 297.535 380.919 296.94 380.414 295.967C379.887 294.954 379.47 293.726 379.946 292.607C380.131 292.179 380.204 291.996 380.465 291.645C380.578 291.492 380.901 291.456 380.886 291.269C380.836 290.611 380.315 290.041 380.076 289.44C379.851 288.875 379.81 288.207 379.892 287.606C380.264 284.89 382.805 281.879 385.733 282.72C386.327 282.892 386.752 283.148 387.109 283.639C387.178 283.739 387.208 283.424 387.259 283.314C387.413 282.985 387.587 282.577 387.79 282.265C388.321 281.445 389.089 280.515 389.879 279.934C391.885 278.466 394.108 278.616 396.399 279.187C396.94 279.323 397.534 279.39 398.041 279.636C400.49 280.827 403.222 283.899 403.11 286.804C403.078 287.661 402.804 288.388 402.444 289.145C402.423 289.188 401.974 290.035 402.01 290.085C402.247 290.431 402.61 290.66 402.829 291.021C403.406 291.967 403.457 293.232 403.054 294.245C402.863 294.731 402.117 295.322 402.099 295.823C402.047 297.244 402.567 298.353 401.87 299.741C401.514 300.452 400.717 301.083 400.146 301.617C399.941 301.81 399.427 302.015 399.297 302.249C399.202 302.428 399.335 302.647 399.378 302.844C399.51 303.424 399.739 303.993 399.808 304.584C400.038 306.59 398.27 308.169 396.426 308.482L396.229 308.403C396.183 308.778 396.162 309.109 395.794 309.458C395.558 309.678 395.263 309.793 394.945 309.834C393.998 309.96 393.53 309.14 392.71 309.034C392.614 309.024 392.618 309.207 392.562 309.286C392.434 309.462 392.266 309.631 392.081 309.747C391.338 310.218 390.313 310.003 389.644 309.501C388.696 308.79 388.908 307.546 388.246 306.752C388.215 306.715 387.397 306.967 387.395 306.967C386.675 307.124 385.788 306.994 385.208 306.506C384.513 305.926 384.128 304.77 384.268 303.818Z" fill="#283474"/>
</g>
<defs>
<linearGradient id="paint0_linear_304_9" x1="128.22" y1="465.116" x2="65.2015" y2="391.722" gradientUnits="userSpaceOnUse">
<stop offset="0.00505051" stop-color="#2A46C7"/>
<stop offset="1" stop-color="#8A35AF"/>
</linearGradient>
<linearGradient id="paint1_linear_304_9" x1="103.056" y1="474.94" x2="45.509" y2="396.174" gradientUnits="userSpaceOnUse">
<stop offset="0.00505051" stop-color="#273B98"/>
<stop offset="0.2274" stop-color="#2F2BA2"/>
<stop offset="0.399" stop-color="#361CAC"/>
<stop offset="0.768" stop-color="#440B89"/>
<stop offset="1" stop-color="#4E0070"/>
</linearGradient>
<linearGradient id="paint2_linear_304_9" x1="110.486" y1="304.975" x2="124.542" y2="327.474" gradientUnits="userSpaceOnUse">
<stop offset="0.00505051" stop-color="#C38638"/>
<stop offset="1" stop-color="#BE8642"/>
</linearGradient>
<linearGradient id="paint3_linear_304_9" x1="89.9202" y1="306.334" x2="122.055" y2="372.982" gradientUnits="userSpaceOnUse">
<stop offset="0.00505051" stop-color="#E27B1C"/>
<stop offset="1" stop-color="#BA893F"/>
</linearGradient>
<linearGradient id="paint4_linear_304_9" x1="43.9998" y1="283" x2="64.2802" y2="321.32" gradientUnits="userSpaceOnUse">
<stop offset="0.229407" stop-color="#C28639"/>
<stop offset="1" stop-color="#E27C1E"/>
</linearGradient>
<linearGradient id="paint5_linear_304_9" x1="371.264" y1="483.047" x2="432.85" y2="418.83" gradientUnits="userSpaceOnUse">
<stop offset="0.00505051" stop-color="#273B98"/>
<stop offset="0.2274" stop-color="#2F2BA2"/>
<stop offset="0.399" stop-color="#361CAC"/>
<stop offset="0.768" stop-color="#440B89"/>
<stop offset="1" stop-color="#4E0070"/>
</linearGradient>
<linearGradient id="paint6_linear_304_9" x1="415.136" y1="484.405" x2="353.55" y2="420.187" gradientUnits="userSpaceOnUse">
<stop offset="0.00505051" stop-color="#273B98"/>
<stop offset="0.2274" stop-color="#2F2BA2"/>
<stop offset="0.399" stop-color="#361CAC"/>
<stop offset="0.768" stop-color="#440B89"/>
<stop offset="1" stop-color="#4E0070"/>
</linearGradient>
<linearGradient id="paint7_linear_304_9" x1="356.307" y1="302.762" x2="364.064" y2="352.098" gradientUnits="userSpaceOnUse">
<stop offset="0.00505051" stop-color="#66CCFF"/>
<stop offset="0.2461" stop-color="#62BCFE"/>
<stop offset="0.7134" stop-color="#5993FA"/>
<stop offset="1" stop-color="#5277F7"/>
</linearGradient>
<linearGradient id="paint8_linear_304_9" x1="410.62" y1="339.258" x2="409.752" y2="291.266" gradientUnits="userSpaceOnUse">
<stop offset="0.00505051" stop-color="#66CCFF"/>
<stop offset="0.2461" stop-color="#62BCFE"/>
<stop offset="0.7134" stop-color="#5993FA"/>
<stop offset="1" stop-color="#5277F7"/>
</linearGradient>
<linearGradient id="paint9_linear_304_9" x1="404.896" y1="319.923" x2="381.704" y2="383.408" gradientUnits="userSpaceOnUse">
<stop offset="0.00505051" stop-color="#66CCFF"/>
<stop offset="0.2461" stop-color="#62BCFE"/>
<stop offset="0.7134" stop-color="#5993FA"/>
<stop offset="1" stop-color="#5277F7"/>
</linearGradient>
<clipPath id="clip0_304_9">
<rect width="397" height="246" fill="white" transform="translate(58.0001 259)"/>
</clipPath>
</defs>
</svg>
