<svg width="447" height="357" viewBox="0 0 447 357" fill="none" xmlns="http://www.w3.org/2000/svg">
<g clip-path="url(#clip0_264_2367)">
<path d="M159.811 16.3533L19.8221 0.952253C9.98817 -0.0513249 1.88965 7.9387 1.88965 17.5885V340.2C1.88965 349.889 9.98817 357.801 19.8221 356.759L159.772 341.435C167.987 340.586 174.62 332.828 174.62 324.143V33.6843C174.658 24.9609 168.025 17.2025 159.811 16.3533ZM168.565 321.904C168.565 326.652 164.94 330.859 160.466 331.284L19.0508 344.987C13.6904 345.488 13.3433 341.667 13.3433 336.456V18.4763C13.3433 12.6478 14.1917 8.36329 20.1692 8.98088L159.541 22.7994C164.554 23.3012 168.565 27.9717 168.565 33.2983V321.904Z" fill="#5780BC"/>
<path d="M176.432 29.9402C176.432 29.863 176.432 29.7472 176.432 29.6701C176.239 26.4277 173.848 23.6486 170.84 23.1468C170.763 23.1468 170.647 23.1082 170.57 23.1082C170.532 23.1082 170.493 23.1082 170.493 23.1082L24.4113 8.59491C24.3727 8.59491 24.3341 8.59491 24.2956 8.59491C24.1799 8.59491 24.0642 8.59491 23.9871 8.59491C20.362 8.44052 17.4697 10.9881 17.2383 14.5006C17.2383 14.6164 17.2383 14.6936 17.2383 14.8094C17.2383 14.848 17.2383 14.8866 17.2383 14.9252V339.814C17.2383 343.211 20.0535 345.643 23.5243 345.334L70.0715 340.818L70.5343 340.779H70.65L105.204 337.421L105.397 337.382L105.705 337.344L106.014 337.305L139.719 334.063L139.912 334.024L140.297 333.986L171.226 330.975C174.118 330.705 176.432 328.003 176.432 324.915V30.0174C176.432 30.0174 176.432 29.9788 176.432 29.9402ZM17.3154 32.1018V22.259L27.7664 23.224C28.0749 23.3784 28.3834 23.4942 28.7305 23.5328C29.0776 23.5714 29.4246 23.5328 29.6946 23.417L35.0936 23.9188C35.4021 24.0732 35.7106 24.189 36.0577 24.2276C36.4048 24.2662 36.7519 24.2276 37.0218 24.1118L42.3823 24.6136C42.6908 24.768 42.9993 24.8838 43.3464 24.9224C43.6935 24.961 44.002 24.9224 44.3105 24.8066L149.784 34.3792V34.5721L165.827 36.0389V35.8459L176.316 36.8109V45.7273L17.3154 32.1018Z" fill="#C9E0F4"/>
<path d="M161.855 331.94L161.546 331.979C161.585 332.094 161.623 332.249 161.662 332.365C161.893 332.326 162.009 332.287 162.009 332.287C161.932 332.172 161.893 332.056 161.855 331.94Z" fill="#49263E"/>
<path d="M170.378 23.0696L24.4884 8.63357C20.4777 8.24757 17.1997 11.1039 17.1997 15.041V32.1019H17.3154L176.394 45.6116H176.432V30.1333C176.432 26.5436 173.733 23.417 170.378 23.0696Z" fill="#273359"/>
<path d="M31.1215 21.4099C31.1215 22.3749 30.543 23.1083 29.7332 23.4171C29.4246 23.5329 29.1161 23.5715 28.769 23.5329C28.422 23.4943 28.0749 23.3785 27.8049 23.2241C26.9565 22.7995 26.3781 21.9117 26.3781 20.9467C26.3781 19.6729 27.4579 18.708 28.769 18.8238C30.0417 18.9782 31.1215 20.0975 31.1215 21.4099Z" fill="white"/>
<path d="M38.4487 22.066C38.4487 22.9924 37.8702 23.7644 37.0604 24.0732C36.7519 24.189 36.4433 24.2276 36.0963 24.189C35.7492 24.1504 35.4021 24.0346 35.1322 23.8802C34.3223 23.4556 33.7438 22.5678 33.7438 21.6414C33.7438 20.3676 34.8236 19.4027 36.1348 19.5185C37.4075 19.6729 38.4487 20.7922 38.4487 22.066Z" fill="white"/>
<path d="M45.7374 22.7608C45.7374 23.6872 45.1589 24.4592 44.3491 24.7294C44.0406 24.8452 43.732 24.8838 43.385 24.8452C43.0379 24.8066 42.7294 24.7294 42.4208 24.5364C41.611 24.1118 41.0325 23.224 41.0325 22.2976C41.0325 21.0239 42.0738 20.0589 43.385 20.2133C44.6961 20.3291 45.7374 21.4484 45.7374 22.7608Z" fill="white"/>
<path d="M148.974 29.9403V35.9618L165.094 36.5794V34.7266L165.943 34.7652V32.1019L165.094 32.0633V30.5193L148.974 29.9403ZM164.554 36.039L149.553 35.46V30.4421L164.554 30.9825V36.039Z" fill="white"/>
<path d="M150.44 34.688L152.021 34.7652V31.2913L150.44 31.2527V34.688Z" fill="white"/>
<path d="M153.101 34.8038L154.682 34.8424V31.407L153.101 31.3298V34.8038Z" fill="white"/>
<path d="M155.839 34.881L157.42 34.9582V31.5229L155.839 31.4457V34.881Z" fill="white"/>
<path d="M3.77931 82.7439L0 82.5123V52.2892L3.77931 52.5594V82.7439Z" fill="#5780BC"/>
<path d="M3.77931 119.143L0 119.027V88.7654L3.77931 88.9584V119.143Z" fill="#5780BC"/>
<path d="M9.75677 17.6271V340.239C9.75677 349.927 17.8553 356.914 27.6892 355.91L63.0528 352.282L64.1711 352.166L165.634 341.706H165.788L167.639 341.513C175.854 340.663 182.487 332.905 182.487 324.22V33.6843C182.487 24.9609 175.892 17.2411 167.639 16.3919L27.6892 1.91722C17.8553 0.913638 9.75677 7.93868 9.75677 17.6271ZM17.1997 18.4763C17.1997 12.6478 22.0588 8.36327 28.0363 8.98086L167.408 22.7994C172.421 23.3011 176.432 27.9716 176.432 33.2983V321.943C176.432 326.69 172.807 330.898 168.334 331.322L165.634 331.593H165.48L162.433 331.901L161.855 331.94C161.893 332.056 161.932 332.172 162.009 332.287C162.009 332.287 161.893 332.326 161.662 332.365C161.623 332.249 161.585 332.094 161.546 331.979L49.1696 342.864L47.1257 343.057L31.6228 344.523L26.9179 344.986C21.5575 345.488 17.1997 341.667 17.1997 336.456V18.4763Z" fill="#5780BC"/>
<path d="M162.125 332.596L161.932 331.94L161.392 331.979L161.508 332.596H162.125Z" fill="#49263E"/>
<path d="M166.405 331.477L49.131 342.825V353.71L168.565 341.358L166.405 331.477Z" fill="#5780BC"/>
<path d="M272.342 33.6843V324.182C272.342 332.905 278.936 340.625 287.189 341.474L427.139 356.798C437.012 357.801 445.072 349.927 445.072 340.239V17.5885C445.072 7.90009 436.973 -0.0899329 427.139 0.952244L287.189 16.3533C278.975 17.2025 272.342 24.9609 272.342 33.6843ZM278.435 33.2597C278.435 27.9717 282.484 23.2626 287.459 22.7608L426.831 8.98087C432.808 8.40188 433.657 12.6478 433.657 18.4763V336.456C433.657 341.706 433.31 345.527 427.949 344.987L286.534 331.322C282.06 330.898 278.435 326.69 278.435 321.943V33.2597Z" fill="#5780BC"/>
<path d="M429.8 14.8094C429.8 14.6936 429.8 14.6164 429.8 14.5006C429.569 10.9881 426.677 8.44052 423.051 8.59491C422.936 8.59491 422.82 8.59491 422.743 8.59491C422.704 8.59491 422.666 8.59491 422.627 8.59491L276.545 23.0696C276.507 23.0696 276.468 23.0696 276.468 23.0696C276.391 23.0696 276.275 23.1082 276.198 23.1082C273.19 23.61 270.761 26.3891 270.606 29.6315C270.606 29.7087 270.606 29.8244 270.606 29.9016C270.606 29.9402 270.606 29.9788 270.606 29.9788V324.915C270.606 328.003 272.92 330.705 275.813 330.975L307.281 334.024L307.667 334.063L307.86 334.102L341.603 337.383L341.912 337.421L342.221 337.46L342.413 337.498L376.967 340.856H377.083L377.546 340.895L423.591 345.334C427.062 345.681 429.877 343.211 429.877 339.814V14.9252C429.8 14.8866 429.8 14.848 429.8 14.8094ZM429.685 32.1018L270.606 45.6115V36.6951L281.096 35.7301V35.9231L297.139 34.4563V34.2634L402.612 24.6908C402.921 24.8066 403.229 24.8452 403.576 24.8066C403.924 24.768 404.232 24.6908 404.541 24.4978L409.901 23.996C410.21 24.1118 410.518 24.1504 410.865 24.1118C411.212 24.0732 411.559 23.9574 411.829 23.803L417.228 23.3012C417.537 23.417 417.845 23.4556 418.192 23.417C418.539 23.3784 418.887 23.2626 419.157 23.1082L429.607 22.1432V32.1018H429.685Z" fill="#C9E0F4"/>
<path d="M285.03 332.287C285.03 332.287 285.145 332.326 285.377 332.365C285.415 332.249 285.454 332.094 285.492 331.979L285.184 331.94C285.107 332.056 285.068 332.172 285.03 332.287Z" fill="#49263E"/>
<path d="M276.622 23.0695L422.473 8.63344C426.484 8.24745 429.762 11.1038 429.762 15.0409V32.1017H429.646L270.568 45.6114H270.529V30.1332C270.568 26.5435 273.267 23.4169 276.622 23.0695Z" fill="#273359"/>
<path d="M415.879 21.4098C415.879 22.3748 416.457 23.1081 417.267 23.4169C417.575 23.5327 417.884 23.5713 418.231 23.5327C418.578 23.4941 418.925 23.3783 419.195 23.2239C420.043 22.7993 420.622 21.9116 420.622 20.9466C420.622 19.6728 419.542 18.7078 418.231 18.8236C416.92 18.978 415.879 20.0974 415.879 21.4098Z" fill="white"/>
<path d="M408.551 22.066C408.551 22.9924 409.13 23.7644 409.94 24.0732C410.248 24.189 410.557 24.2276 410.904 24.189C411.251 24.1504 411.598 24.0346 411.868 23.8802C412.678 23.4556 413.256 22.5678 413.256 21.6414C413.256 20.3676 412.176 19.4027 410.904 19.5185C409.593 19.6729 408.551 20.7922 408.551 22.066Z" fill="white"/>
<path d="M401.263 22.7608C401.263 23.6872 401.841 24.4592 402.651 24.7294C402.959 24.8452 403.268 24.8838 403.615 24.8452C403.962 24.8066 404.271 24.7294 404.579 24.5364C405.389 24.1118 405.967 23.224 405.967 22.2976C405.967 21.0239 404.926 20.0589 403.615 20.2133C402.304 20.3291 401.263 21.4484 401.263 22.7608Z" fill="white"/>
<path d="M281.135 29.9402V35.9616L297.177 34.4949V32.6421L298.026 32.5649V29.9016L297.177 29.9788V28.4348L281.135 29.9402ZM296.637 34.0317L281.674 35.3827V30.3648L296.637 28.9752V34.0317Z" fill="white"/>
<path d="M282.561 34.4949L284.143 34.3791V30.9052L282.561 31.0595V34.4949Z" fill="white"/>
<path d="M285.222 34.2633L286.803 34.1089V30.6736L285.222 30.828V34.2633Z" fill="white"/>
<path d="M287.922 34.0318L289.503 33.8774V30.4034L287.922 30.5578V34.0318Z" fill="white"/>
<path d="M443.221 82.7438L447 82.5122V52.2891L443.221 52.5593V82.7438Z" fill="#5780BC"/>
<path d="M443.221 119.143L447 119.027V88.7653L443.221 88.9583V119.143Z" fill="#5780BC"/>
<path d="M419.272 1.91722L279.322 16.3533C271.108 17.2025 264.475 24.9609 264.475 33.6843V324.182C264.475 332.905 271.069 340.625 279.322 341.474L281.173 341.667H281.327L382.79 352.127L383.909 352.243L419.272 355.871C429.145 356.875 437.205 349.889 437.205 340.2V17.6271C437.243 7.93868 429.145 0.913638 419.272 1.91722ZM429.8 336.456C429.8 341.706 425.443 345.527 420.082 344.986L415.377 344.523L399.874 343.018L397.83 342.825L285.454 331.94C285.415 332.056 285.377 332.21 285.338 332.326C285.107 332.287 284.991 332.249 284.991 332.249C285.03 332.133 285.068 332.017 285.145 331.901L284.567 331.863L281.52 331.554H281.366L278.666 331.284C274.193 330.859 270.568 326.652 270.568 321.904V33.2597C270.568 27.9716 274.579 23.2625 279.592 22.7608L418.964 8.98086C424.941 8.40187 429.8 12.6478 429.8 18.4763V336.456Z" fill="#5780BC"/>
<path d="M284.875 332.596L285.068 331.94L285.569 331.979L285.492 332.596H284.875Z" fill="#49263E"/>
<path d="M280.595 331.477L397.83 342.825V353.71L278.435 341.358L280.595 331.477Z" fill="#5780BC"/>
<path d="M252.635 141.993C250.244 139.021 245.694 134.081 243.611 132.614C243.419 132.459 243.226 132.382 243.071 132.305C243.033 132.305 242.994 132.266 242.956 132.266C242.262 132.035 241.529 131.649 240.758 131.224C238.212 130.182 235.397 129.449 234.664 128.908C233.97 128.445 233.392 126.824 233.045 125.782C232.775 124.933 231.926 124.315 231.001 124.392C230.461 124.431 229.96 124.74 229.574 125.473C229.574 125.473 227.26 124.354 226.604 126.515C226.604 126.515 224.098 125.241 223.866 128.87C223.866 128.87 222.324 128.87 221.977 130.53C221.63 132.189 222.517 136.088 222.864 136.667C223.211 137.246 229.767 144.078 229.767 144.078C229.767 144.078 239.254 150.833 239.678 151.334L252.635 141.993Z" fill="#F9B498"/>
<path d="M227.53 137.053C227.53 137.014 227.491 136.937 227.453 136.898C227.453 136.898 225.872 135.161 225.486 134.351C225.178 133.695 224.445 130.452 224.098 128.831C224.059 128.715 223.944 128.638 223.828 128.677C223.712 128.715 223.635 128.831 223.674 128.947C223.712 129.14 224.715 133.733 225.1 134.582C225.525 135.432 227.067 137.169 227.144 137.207C227.221 137.284 227.376 137.284 227.453 137.207C227.491 137.169 227.53 137.13 227.53 137.053Z" fill="#F07162"/>
<path d="M230.538 134.003C230.538 133.965 230.499 133.888 230.461 133.849C230.461 133.849 229.15 132.498 228.61 131.533C228.07 130.568 226.836 126.515 226.797 126.477C226.759 126.361 226.643 126.284 226.527 126.322C226.412 126.361 226.335 126.477 226.373 126.592C226.412 126.747 227.646 130.722 228.224 131.765C228.803 132.768 230.075 134.119 230.152 134.196C230.23 134.274 230.384 134.274 230.461 134.196C230.499 134.119 230.538 134.081 230.538 134.003Z" fill="#F07162"/>
<path d="M232.929 131.958C232.929 131.881 232.89 131.842 232.852 131.803C232.852 131.803 231.965 130.916 231.348 129.951C230.769 128.986 229.767 125.434 229.767 125.396C229.728 125.28 229.612 125.203 229.497 125.241C229.381 125.28 229.304 125.396 229.343 125.512C229.381 125.666 230.345 129.14 230.962 130.182C231.579 131.186 232.505 132.074 232.543 132.112C232.621 132.189 232.775 132.189 232.852 132.112C232.929 132.074 232.929 132.035 232.929 131.958Z" fill="#F07162"/>
<path d="M248.818 165.462C248.818 165.462 243.071 155.658 241.298 153.149C239.524 150.64 234.934 146.896 234.934 146.896L238.405 141.453L251.787 141.878L248.818 165.462Z" fill="#F9B498"/>
<path d="M345.691 271.725C345.653 272.459 345.653 273.308 345.614 274.311C345.614 274.466 345.614 274.659 345.576 274.813C345.151 285.544 343.84 310.054 342.375 337.46L342.182 337.421L341.873 337.382L341.565 337.344L307.821 334.063L307.628 334.024C307.358 317.002 307.088 300.906 306.896 288.246C306.818 283.923 306.78 280.024 306.703 276.627C306.548 267.325 306.471 261.651 306.471 261.651C306.471 261.226 306.471 260.802 306.548 260.377L306.664 259.528C307.32 254.857 311.678 252.04 315.727 253.622C315.765 253.661 315.842 253.661 315.881 253.7L318.002 254.587L318.233 254.703L324.674 257.405L329.803 259.567L341.295 264.507C342.182 264.893 342.953 265.434 343.609 266.128C343.802 266.36 344.033 266.592 344.187 266.823C344.226 266.9 344.264 266.939 344.342 267.016C345.229 268.329 345.73 269.988 345.691 271.725Z" fill="#1A2642"/>
<path d="M376.89 340.818L342.336 337.46L342.143 337.421L341.835 337.382L336.667 304.921L333.659 286.084L330.458 275.894L325.291 259.528L324.674 257.521L320.779 245.13L343.069 252.31L343.493 252.464L343.725 252.542L355.255 256.247L370.334 261.072L372.455 261.767C372.455 261.767 372.494 266.437 372.725 274.389C372.841 278.171 372.995 282.726 373.226 287.898C373.419 292.26 373.651 297.085 373.959 302.257C374.538 312.216 375.347 323.487 376.466 335.414C376.62 337.228 376.813 339.081 377.006 340.895L376.89 340.818Z" fill="#273359"/>
<path d="M342.143 337.46L341.835 337.421L341.526 337.383L336.397 305.268C336.359 305.075 336.474 304.921 336.629 304.882C336.783 304.843 336.937 304.959 336.976 305.152L342.143 337.46Z" fill="black"/>
<path d="M307.821 334.14L307.628 334.102L307.243 334.063L306.587 288.67C306.587 288.477 306.703 288.362 306.857 288.362H306.896C307.05 288.362 307.166 288.516 307.166 288.67L307.821 334.14Z" fill="black"/>
<path d="M141.069 261.767C141.069 261.767 141.03 263.735 140.991 267.325C140.914 271.957 140.799 279.291 140.644 288.362C140.452 300.984 140.182 317.041 139.912 334.063L139.719 334.102L106.014 337.344L105.705 337.383L105.397 337.421L105.204 337.46C103.545 307.005 102.119 280.063 101.887 271.764C101.849 270.76 102.003 269.757 102.35 268.83C103.044 266.9 104.432 265.318 106.284 264.546L120.745 258.447L121.516 258.1L122.905 257.521L131.736 253.815C135.785 252.117 140.259 254.935 140.914 259.644L141.03 260.493C141.03 260.918 141.069 261.342 141.069 261.767Z" fill="#33192C"/>
<path d="M126.761 245.13L122.866 257.521L121.054 263.272L119.858 267.055L119.434 268.444L113.881 286.084L110.873 304.921L105.666 337.382L105.358 337.421L105.165 337.46L70.6115 340.818H70.4958C70.6886 339.004 70.8428 337.189 71.0357 335.375C72.154 323.487 72.9639 312.216 73.5423 302.219C73.8509 297.046 74.0822 292.26 74.2751 287.86C74.6607 279.098 74.8535 272.111 74.9692 267.557C75.0464 263.812 75.0849 261.728 75.0849 261.728L121.285 246.867L122.056 246.636L126.761 245.13Z" fill="#49263E"/>
<path d="M111.104 305.268L105.975 337.344L105.667 337.382L105.358 337.421L110.487 305.191C110.526 304.998 110.68 304.882 110.834 304.921C111.027 304.959 111.104 305.114 111.104 305.268Z" fill="black"/>
<path d="M74.5836 288.169C74.5836 288.362 74.1208 294.229 73.5423 302.18C72.7711 312.293 71.7684 325.764 71.0357 335.337C70.8814 337.344 70.7657 339.197 70.6115 340.779H70.4958L70.033 340.818L74.0051 288.13C74.0051 287.976 74.1208 287.86 74.2751 287.821H74.3136C74.4679 287.86 74.5836 288.014 74.5836 288.169Z" fill="black"/>
<path d="M140.953 288.67L140.297 334.024L139.912 334.063L139.719 334.102L140.413 288.67C140.413 288.516 140.529 288.362 140.683 288.362H140.722C140.837 288.362 140.953 288.477 140.953 288.67Z" fill="black"/>
<path d="M87.4641 274.582C87.387 274.582 87.3098 274.582 87.2327 274.504L80.7539 267.981C80.6382 267.865 80.6382 267.672 80.7153 267.557C80.831 267.441 80.9853 267.402 81.101 267.518L87.6183 274.041C87.734 274.157 87.734 274.35 87.6569 274.466C87.6183 274.543 87.5412 274.582 87.4641 274.582Z" fill="black"/>
<path d="M87.7726 278.249C87.6955 278.249 87.6184 278.249 87.5412 278.171L82.6436 273.308C82.5279 273.192 82.5279 272.999 82.605 272.883C82.7207 272.768 82.8749 272.729 82.9906 272.845L87.8883 277.708C88.004 277.824 88.004 278.017 87.9269 278.133C87.9269 278.21 87.8498 278.249 87.7726 278.249Z" fill="black"/>
<path d="M316.729 258.486C319.275 259.451 335.125 260.647 350.743 258.486C366.362 256.324 359.459 211.819 359.459 211.819L353.558 139.639L348.159 135.586L331.692 143.306L323.324 142.65L319.352 145.738L308.052 219.385L316.729 258.486Z" fill="white"/>
<path d="M230.037 204.292C230.037 204.292 227.684 207.303 227.916 209.117C228.07 210.391 230.23 211.318 232.235 210.198C232.235 210.198 230.962 211.897 232.428 213.093C233.855 214.29 235.706 212.9 235.706 212.9C235.706 212.9 234.934 214.676 236.863 215.37C238.791 216.027 239.639 215.332 239.639 215.332C239.639 215.332 239.408 216.914 240.873 217.378C242.339 217.841 254.062 212.283 256.8 210.623C259.538 208.963 261.158 209.388 261.158 209.388L264.243 195.144C264.243 195.144 262.624 195.801 260.541 195.453C256.068 194.681 249.396 191.053 247.622 191.323C245.887 191.555 230.037 204.292 230.037 204.292Z" fill="#F9B498"/>
<path d="M222.709 186.46C222.709 186.46 232.968 188.66 234.973 188.274C236.978 187.926 242.879 186.73 244.884 188.312C246.889 189.895 251.71 198.773 251.71 198.773C251.71 198.773 250.553 200.819 248.895 199.738C247.236 198.657 244.653 194.836 243.38 194.527C242.454 194.295 229.882 204.293 229.882 204.293C229.882 204.293 226.952 202.71 223.596 201.205C223.596 201.205 221.051 188.274 222.709 186.46Z" fill="#FE9F73"/>
<path d="M242.994 214.483C242.724 214.02 242.647 213.479 242.801 212.977C242.956 212.553 243.264 212.128 243.92 211.897C245.501 211.356 246.465 213.093 246.465 213.093L247.969 215.563C248.239 216.027 248.316 216.567 248.123 217.069C248.008 217.416 247.738 217.764 247.275 217.995C246.157 218.536 245 217.841 244.768 217.455C244.228 216.567 243.38 215.139 242.994 214.483Z" fill="#FE9F73"/>
<path d="M246.311 212.862C246.002 212.321 245.925 211.704 246.118 211.125C246.272 210.623 246.658 210.16 247.429 209.889C249.28 209.272 250.36 211.279 250.36 211.279L252.096 214.174C252.404 214.714 252.481 215.332 252.288 215.911C252.134 216.297 251.864 216.683 251.324 216.953C250.013 217.609 248.663 216.76 248.393 216.297C247.738 215.293 246.774 213.634 246.311 212.862Z" fill="#FE9F73"/>
<path d="M250.283 210.43C250.013 209.889 249.975 209.233 250.244 208.693C250.437 208.23 250.861 207.766 251.671 207.573C253.561 207.11 254.487 209.233 254.487 209.233L255.952 212.283C256.222 212.823 256.222 213.479 255.991 214.019C255.798 214.405 255.489 214.753 254.911 214.984C253.522 215.525 252.288 214.56 252.057 214.097C251.478 212.977 250.669 211.24 250.283 210.43Z" fill="#FE9F73"/>
<path d="M254.525 208.461C254.332 207.921 254.371 207.342 254.641 206.84C254.872 206.416 255.296 206.03 256.068 205.914C257.88 205.644 258.536 207.689 258.536 207.689L259.654 210.623C259.847 211.163 259.808 211.742 259.538 212.244C259.346 212.591 258.999 212.9 258.459 213.055C257.147 213.441 256.068 212.437 255.875 211.974C255.412 210.932 254.795 209.272 254.525 208.461Z" fill="#FE9F73"/>
<path d="M232.582 213.363C232.505 213.325 232.428 213.248 232.351 213.17C231.232 212.167 231.695 210.97 231.965 210.43C230.577 211.047 229.343 210.816 228.533 210.237C228.34 210.082 228.147 209.928 227.993 209.735C227.183 208.693 228.803 205.451 229.921 204.215C231.078 202.942 241.143 195.569 241.567 195.26C241.606 195.222 241.683 195.222 241.722 195.299C241.76 195.338 241.76 195.415 241.683 195.453C241.567 195.531 231.232 203.135 230.075 204.37C228.841 205.721 227.453 208.77 228.147 209.658C228.88 210.546 230.384 211.047 232.196 210.16L232.621 209.967L232.351 210.314C232.312 210.391 231.155 211.819 232.505 213.055C233.855 214.29 235.783 212.784 235.783 212.746L236.13 212.476L235.937 212.862C235.937 212.862 235.59 213.556 235.821 214.251C235.937 214.637 236.246 214.984 236.708 215.216C238.289 215.988 239.562 215.255 239.601 215.255L239.755 215.139V215.332C239.755 215.409 239.639 217.069 241.066 217.3C241.22 217.262 242.802 217.03 244.151 216.451C244.19 216.413 244.267 216.451 244.267 216.49C244.306 216.528 244.267 216.606 244.228 216.606C242.802 217.262 241.066 217.455 241.066 217.455C239.755 217.262 239.601 215.911 239.562 215.448C239.176 215.641 238.02 216.027 236.631 215.332C236.13 215.062 235.783 214.714 235.629 214.251C235.474 213.788 235.551 213.325 235.629 213.016C235.089 213.441 233.7 214.174 232.582 213.363Z" fill="#F07162"/>
<path d="M245.038 217.841C244.884 217.725 244.768 217.609 244.691 217.493C244.151 216.606 243.341 215.255 242.917 214.521C242.647 214.02 242.57 213.441 242.724 212.939C242.724 212.9 242.802 212.862 242.84 212.862C242.879 212.862 242.917 212.939 242.917 212.977C242.763 213.441 242.84 213.942 243.071 214.406C243.496 215.139 244.306 216.49 244.845 217.378C245.077 217.764 246.195 218.381 247.236 217.879C247.622 217.686 247.892 217.416 248.046 217.03C248.201 216.567 248.162 216.065 247.892 215.641L246.388 213.17C246.349 213.132 246.388 213.055 246.427 213.055C246.465 213.016 246.542 213.055 246.542 213.093L248.046 215.564C248.355 216.065 248.393 216.644 248.201 217.146C248.046 217.571 247.738 217.879 247.314 218.111C246.465 218.536 245.54 218.227 245.038 217.841Z" fill="#F07162"/>
<path d="M248.702 216.76C248.509 216.644 248.355 216.49 248.316 216.374C247.661 215.293 246.658 213.595 246.234 212.9C245.887 212.321 245.81 211.665 246.041 211.086C246.041 211.047 246.118 211.009 246.157 211.009C246.195 211.009 246.234 211.086 246.234 211.125C246.041 211.665 246.118 212.283 246.427 212.784C246.812 213.479 247.853 215.177 248.509 216.258C248.74 216.644 250.013 217.493 251.324 216.876C251.787 216.644 252.096 216.297 252.25 215.872C252.443 215.332 252.404 214.792 252.096 214.29C252.057 214.251 252.096 214.174 252.134 214.174C252.173 214.135 252.25 214.174 252.25 214.213C252.597 214.792 252.674 215.37 252.443 215.988C252.25 216.49 251.903 216.837 251.401 217.107C250.36 217.571 249.28 217.185 248.702 216.76Z" fill="#F07162"/>
<path d="M252.481 214.676C252.211 214.483 252.018 214.251 251.941 214.097C251.401 213.016 250.63 211.356 250.206 210.468C249.936 209.889 249.897 209.195 250.167 208.616C250.206 208.577 250.244 208.538 250.283 208.577C250.322 208.616 250.36 208.654 250.322 208.693C250.09 209.233 250.129 209.812 250.36 210.353C250.784 211.24 251.594 212.9 252.096 213.981C252.288 214.367 253.484 215.37 254.834 214.83C255.296 214.637 255.643 214.328 255.836 213.904C256.106 213.363 256.106 212.746 255.875 212.244C255.836 212.205 255.875 212.128 255.913 212.128C255.952 212.09 256.029 212.128 256.029 212.167C256.299 212.707 256.299 213.402 255.991 213.981C255.759 214.444 255.374 214.791 254.872 214.984C253.985 215.409 253.06 215.1 252.481 214.676Z" fill="#F07162"/>
<path d="M256.415 212.746C256.068 212.514 255.836 212.205 255.759 212.012C255.335 210.97 254.756 209.349 254.448 208.5C254.255 207.921 254.294 207.303 254.564 206.802C254.602 206.763 254.641 206.724 254.679 206.763C254.718 206.802 254.756 206.84 254.718 206.879C254.448 207.342 254.409 207.921 254.602 208.423C254.911 209.272 255.528 210.893 255.913 211.935C256.068 212.321 257.07 213.325 258.382 212.939C258.844 212.823 259.191 212.553 259.384 212.167C259.654 211.704 259.693 211.125 259.5 210.623L258.382 207.689C258.382 207.651 258.382 207.574 258.42 207.574C258.459 207.574 258.536 207.574 258.536 207.612L259.654 210.546C259.886 211.125 259.808 211.742 259.538 212.244C259.307 212.669 258.921 212.939 258.42 213.093C257.649 213.402 256.916 213.132 256.415 212.746Z" fill="#F07162"/>
<path d="M232.196 210.314C232.196 210.275 232.158 210.275 232.196 210.314C232.158 210.237 232.158 210.198 232.196 210.16L234.896 208.423C234.934 208.384 235.012 208.423 235.012 208.461C235.05 208.5 235.011 208.577 234.973 208.577L232.273 210.314C232.273 210.314 232.235 210.314 232.196 210.314Z" fill="#F07162"/>
<path d="M235.706 213.016C235.706 213.016 235.667 212.977 235.706 213.016C235.667 212.977 235.667 212.9 235.706 212.862L237.827 211.047C237.865 211.009 237.942 211.009 237.981 211.047C238.02 211.086 238.02 211.163 237.981 211.202L235.86 213.016C235.783 213.016 235.744 213.016 235.706 213.016Z" fill="#F07162"/>
<path d="M239.601 215.409C239.601 215.409 239.601 215.371 239.601 215.409C239.562 215.332 239.562 215.293 239.601 215.255L241.992 213.518C242.03 213.479 242.107 213.479 242.146 213.556C242.184 213.595 242.184 213.672 242.107 213.711L239.716 215.448C239.678 215.409 239.639 215.409 239.601 215.409Z" fill="#F07162"/>
<path d="M253.33 140.488C253.33 140.488 272.805 167.044 275.08 168.164C277.355 169.283 298.643 145.081 311.253 139.986C323.864 134.891 310.675 178.894 310.675 178.894C310.675 178.894 279.939 199.004 273.884 197.653C267.83 196.341 243.457 179.126 234.472 148.401L253.33 140.488Z" fill="#273359"/>
<path d="M311.253 139.986C311.253 139.986 304.196 149.829 302.692 172.332C302.268 178.624 299.298 276.705 299.298 276.705H318.581C318.581 276.705 314.223 162.142 325.021 136.783C324.982 136.821 319.043 137.323 311.253 139.986Z" fill="#374169"/>
<path d="M347.928 135.239C347.928 135.239 339.984 233.821 344.881 274.311H379.281C379.281 274.311 382.289 169.09 375.116 152.068C367.982 135.046 347.928 135.239 347.928 135.239Z" fill="#374169"/>
<path d="M230.538 185.919L226.836 204.293C226.836 204.293 177.898 196.534 163.127 190.242C148.357 183.951 128.227 168.743 128.227 168.743L141.917 131.996C141.917 131.996 164.593 161.332 175.545 166.658C186.459 171.985 230.538 185.919 230.538 185.919Z" fill="#593750"/>
<path d="M64.1712 129.41C64.1712 129.41 92.6703 124.469 109.176 125.164C125.681 125.859 141.917 131.996 141.917 131.996C141.917 131.996 147.817 220.543 141.917 267.209C141.917 267.209 96.1025 270.76 72.771 267.209C72.771 267.248 70.4186 155.349 64.1712 129.41Z" fill="#593750"/>
<path d="M84.9959 126.477L92.2846 143.653L82.9906 145.429C82.9906 145.429 119.048 184.8 119.511 184.221C119.974 183.642 134.821 146.124 134.821 146.124L126.106 143.692L129.692 128.329C129.692 128.329 117.274 122.269 84.9959 126.477Z" fill="#280F22"/>
<path d="M120.398 156.584C119.125 164.535 118.007 170.788 118.007 170.788C114.498 167.16 111.297 163.223 108.405 159.247C96.3725 142.843 89.3923 125.782 89.3923 125.782C111.914 122.887 123.599 126.515 123.599 126.515C123.946 132.267 122.056 145.931 120.398 156.584Z" fill="white"/>
<path d="M104.741 86.9897L125.797 94.9412L123.83 112.928C123.83 112.928 123.406 119.027 118.046 119.22L118.161 127.442C118.2 130.491 116.079 133.193 113.109 133.811C111.644 134.119 109.947 134.235 108.019 134.042C101.964 133.386 99.1877 128.445 98.9563 126.129C98.6863 123.775 101.424 113.044 101.424 113.044L101.81 107.679L104.741 86.9897Z" fill="#FE9F73"/>
<path d="M107.942 103.703L106.206 103.78C105.397 101.464 104.51 97.7203 104.047 95.6359C103.661 96.4079 103.314 97.2571 103.083 98.2993C103.083 98.2993 99.8818 89.3057 105.242 84.9826C107.942 82.821 116.503 82.3964 122.095 86.6809C128.574 90.7724 125.681 97.3729 125.411 97.5273L125.334 97.4501C125.334 97.6045 125.373 97.7589 125.373 97.9133C125.373 97.9133 125.141 97.4115 124.602 96.7167L122.133 94.3622C120.707 93.3586 118.778 92.3936 116.195 91.9304C113.611 91.4672 111.335 91.39 109.407 91.7374C108.752 93.2428 108.019 96.2535 107.942 102.352C107.98 102.893 107.98 103.317 107.942 103.703Z" fill="black"/>
<path d="M100.576 100.075C98.8791 87.4529 105.319 84.9825 105.319 84.9825L102.967 92.548L104.162 99.3028L100.576 100.075Z" fill="black"/>
<path d="M116.503 101.194C113.534 99.1099 110.68 102.468 110.564 102.622C110.526 102.661 110.448 102.7 110.371 102.7C110.294 102.7 110.256 102.7 110.179 102.622C110.063 102.545 110.063 102.391 110.14 102.275C110.179 102.236 113.379 98.4151 116.734 100.77C116.85 100.847 116.889 101.001 116.812 101.117C116.812 101.233 116.619 101.271 116.503 101.194Z" fill="#21111D"/>
<path d="M121.054 101.464C122.133 100.306 124.486 101.889 124.524 101.889C124.563 101.928 124.64 101.928 124.679 101.928C124.756 101.928 124.833 101.889 124.872 101.812C124.949 101.696 124.91 101.542 124.794 101.464C124.679 101.387 122.018 99.6117 120.668 101.117C120.591 101.233 120.591 101.387 120.668 101.464C120.784 101.58 120.977 101.58 121.054 101.464Z" fill="#21111D"/>
<path d="M115.217 103.942C115.264 103.519 114.958 103.137 114.534 103.091C114.111 103.045 113.73 103.351 113.684 103.774C113.637 104.198 113.943 104.579 114.367 104.626C114.79 104.672 115.171 104.366 115.217 103.942Z" fill="black"/>
<path d="M123.324 104.031C123.371 103.608 123.065 103.226 122.642 103.18C122.218 103.134 121.837 103.44 121.791 103.863C121.745 104.287 122.05 104.668 122.474 104.715C122.897 104.761 123.278 104.455 123.324 104.031Z" fill="black"/>
<path d="M106.353 103.23C106.629 100.708 104.827 98.4421 102.329 98.1685C99.8306 97.8948 97.5817 99.7173 97.3059 102.239C97.0302 104.761 98.832 107.027 101.33 107.301C103.829 107.575 106.078 105.752 106.353 103.23Z" fill="#FE9F73"/>
<path d="M102.08 101.001C101.232 100.422 100.113 100.654 100.075 100.654C99.9975 100.654 99.9204 100.615 99.9204 100.538C99.9204 100.461 99.959 100.384 100.036 100.384C100.075 100.384 101.309 100.113 102.234 100.77C102.774 101.156 103.083 101.735 103.198 102.545L103.275 103.008L103.006 102.661C102.967 102.622 102.003 101.426 100.653 102.082C99.8818 102.429 99.7661 103.24 99.8433 103.819C99.959 104.398 100.383 105.131 101.232 105.247C101.232 105.247 101.232 105.247 101.27 105.247C101.347 105.247 101.386 105.324 101.386 105.401C101.386 105.479 101.309 105.517 101.232 105.517C101.232 105.517 101.232 105.517 101.193 105.517C100.267 105.401 99.689 104.63 99.5733 103.896C99.4191 103.008 99.8047 102.236 100.499 101.889C101.579 101.387 102.427 101.889 102.851 102.236C102.736 101.657 102.466 101.271 102.08 101.001Z" fill="#F07162"/>
<path d="M119.897 102.352C119.974 102.352 120.012 102.391 120.012 102.468L120.167 108.76L117.351 109.377H117.313C117.274 109.377 117.197 109.339 117.197 109.261C117.197 109.184 117.236 109.107 117.313 109.107L119.935 108.528L119.781 102.468C119.742 102.391 119.82 102.352 119.897 102.352Z" fill="#F07162"/>
<path d="M113.109 91.583C117.66 91.4672 125.643 94.6709 125.72 95.5201C125.797 96.3307 125.219 100.036 125.219 100.036C125.219 100.036 116.927 97.6817 116.812 97.6431C116.734 97.6045 108.559 91.6988 113.109 91.583Z" fill="#FE9F73"/>
<path d="M110.294 92.2006L109.831 94.0533L106.399 87.6844L110.294 92.2006Z" fill="#FE9F73"/>
<path d="M102.504 95.1727C101.849 92.3164 107.055 92.5866 107.055 92.5866L107.942 103.703L104.548 103.857L103.121 98.2992C103.121 98.2992 103.198 98.029 102.504 95.1727Z" fill="black"/>
<path d="M105.782 111.462C108.597 120.262 118.046 119.22 118.046 119.22L118.084 122.462C105.744 123.234 105.782 111.462 105.782 111.462Z" fill="#F07162"/>
<path d="M120.668 111.809C120.629 111.809 116.966 111.848 115.5 110.419L115.23 110.69C116.773 112.234 120.514 112.195 120.668 112.195V111.809Z" fill="#F07162"/>
<path d="M115.578 136.397L112.839 132.768L109.677 136.435C109.677 136.435 111.76 139.716 113.187 139.6C114.266 139.485 115.578 136.397 115.578 136.397Z" fill="#ED3B5E"/>
<path d="M118.046 124.624C118.046 124.624 115.578 131.572 113.418 132.691C113.418 132.691 102.851 128.175 99.8818 119.683C99.8818 119.683 95.4855 124.508 94.29 125.319C94.29 125.319 104.085 139.678 107.17 143.769L113.264 134.66L118.856 143.152C118.856 143.152 122.249 135.432 122.172 133.347C122.018 131.263 118.046 124.624 118.046 124.624Z" fill="#A5EFED"/>
<path d="M120.437 268.483C124.679 237.14 119.935 181.905 119.897 181.326L119.125 181.403C119.164 181.944 123.907 237.14 119.665 268.367L120.437 268.483Z" fill="#280F22"/>
<path d="M120.398 156.584C119.125 164.535 118.007 170.789 118.007 170.789C114.498 167.16 111.297 163.223 108.405 159.247L111.76 137.709L114.343 136.126L120.398 156.584Z" fill="#ED3B5E"/>
<path d="M58.5408 245.401C61.9344 246.79 71.4598 250.997 73.8894 251.268C74.1208 251.306 74.3136 251.306 74.4679 251.306C74.4679 251.306 74.4679 251.306 74.5064 251.306C74.545 251.306 74.5836 251.306 74.6221 251.306C75.3163 251.19 76.0876 251.152 76.936 251.152C79.5584 250.843 82.2964 250.148 83.1449 250.264C83.9547 250.341 85.1888 251.383 85.9601 252.117C86.6157 252.734 87.5798 252.85 88.3125 252.31C88.7367 252.001 89.0452 251.538 89.0067 250.727C89.0067 250.727 91.4748 250.612 91.0506 248.45C91.0506 248.45 93.7501 248.334 92.2461 245.208C92.2461 245.208 93.5573 244.474 93.0559 242.93C92.5546 241.348 90.0093 238.53 89.4309 238.183C88.8524 237.874 80.1754 235.172 80.1754 235.172C80.1754 235.172 69.0303 233.898 68.4518 233.705L58.5408 245.401Z" fill="#FE9F73"/>
<path d="M85.3816 239.997C85.4201 240.035 85.4587 240.074 85.4973 240.113C85.5358 240.113 87.6569 240.846 88.351 241.309C88.8909 241.695 91.0506 244.088 92.0918 245.323C92.1689 245.401 92.2846 245.439 92.4003 245.362C92.4774 245.285 92.516 245.169 92.4389 245.053C92.3232 244.899 89.3537 241.502 88.621 240.962C87.8883 240.421 85.7672 239.727 85.6515 239.688C85.5358 239.649 85.4201 239.727 85.3816 239.804C85.343 239.881 85.343 239.958 85.3816 239.997Z" fill="#F07162"/>
<path d="M84.2632 243.972C84.3018 244.011 84.3404 244.05 84.3789 244.088C84.3789 244.088 86.1143 244.629 87.0013 245.169C87.9269 245.748 90.8577 248.566 90.8963 248.604C90.9734 248.682 91.1277 248.682 91.2048 248.604C91.282 248.527 91.282 248.373 91.2048 248.296C91.0891 248.18 88.1968 245.401 87.2327 244.822C86.2686 244.243 84.5718 243.702 84.4946 243.702C84.3789 243.664 84.2632 243.741 84.2247 243.857C84.2247 243.857 84.2247 243.934 84.2632 243.972Z" fill="#F07162"/>
<path d="M83.1834 246.829C83.222 246.867 83.2606 246.906 83.2991 246.945C83.2991 246.945 84.456 247.253 85.4202 247.794C86.3843 248.334 88.8138 250.843 88.8524 250.882C88.9295 250.959 89.0838 250.959 89.1609 250.882C89.238 250.805 89.238 250.65 89.1609 250.573C89.0452 250.457 86.6157 247.987 85.613 247.408C84.6103 246.829 83.4534 246.52 83.3762 246.52C83.2605 246.481 83.1449 246.559 83.1063 246.674C83.1449 246.713 83.1449 246.752 83.1834 246.829Z" fill="#F07162"/>
<path d="M21.519 196.959C22.2517 195.183 42.498 144.734 64.1712 129.41C65.868 129.14 85.0346 152.145 85.0346 152.145L47.3571 198.966L74.9307 233.975C74.9307 233.975 66.0994 245.632 57.9623 247.408C57.9238 247.446 16.6599 208.577 21.519 196.959Z" fill="#593750"/>
<path d="M57.8081 247.832L58.0009 247.794C66.1765 246.018 74.815 234.709 75.2006 234.207L75.3934 233.975L47.4728 198.541L40.3384 200.51L40.5312 201.243L47.1643 199.429L74.3908 234.014C73.1181 235.635 65.251 245.323 58.0394 247.022C55.3399 244.436 17.3154 208.037 21.866 197.113L21.9817 196.843C25.5682 188.081 44.4648 143.846 64.4026 129.719L63.9784 129.101C43.8477 143.306 24.8741 187.772 21.2876 196.534L21.1719 196.804C16.2742 208.538 55.957 246.095 57.6538 247.717L57.8081 247.832Z" fill="#1D1D1B"/>
<path d="M76.5046 162.142L47.0253 198.747L47.6258 199.232L77.1051 162.627L76.5046 162.142Z" fill="#1D1D1B"/>
<path d="M69.2722 172.201L68.5017 172.238L71.2711 229.957L72.0416 229.92L69.2722 172.201Z" fill="#1D1D1B"/>
<path d="M144.925 205.875C145.002 190.242 142.843 152.222 142.843 151.875L142.071 151.913C142.11 152.299 144.231 190.281 144.154 205.875H144.925Z" fill="#1D1D1B"/>
<path d="M315.418 142.38L319.082 148.71L310.675 153.766C310.675 153.766 317.925 183.603 318.388 183.333C324.018 159.518 325.754 135.972 325.754 135.972C325.754 135.972 319.236 138.867 315.418 142.38Z" fill="#1A2642"/>
<path d="M319.737 105.054L319.815 124.354C319.815 124.354 319.583 130.568 325.021 131.302L324.057 139.6C323.71 142.688 325.561 145.622 328.492 146.548C329.957 147.011 331.654 147.32 333.621 147.32C339.83 147.282 343.146 142.611 343.686 140.295C344.187 137.979 342.606 126.863 342.606 126.863L342.76 121.382L341.951 100.191L319.737 105.054Z" fill="#F9B498"/>
<path d="M337.593 126.013C337.593 126.013 337.284 136.397 324.327 137.439L325.059 131.34C325.021 131.34 333.428 133 337.593 126.013Z" fill="#F07162"/>
<path d="M334.739 115.128C334.816 115.128 334.855 115.09 334.932 115.051C335.048 114.935 335.048 114.781 334.932 114.704C334.893 114.665 331.307 111.037 328.106 113.662C327.99 113.739 327.99 113.932 328.067 114.009C328.145 114.125 328.337 114.125 328.414 114.048C331.268 111.732 334.431 114.897 334.546 115.051C334.623 115.09 334.7 115.128 334.739 115.128Z" fill="black"/>
<path d="M343.647 112.388L338.056 113.585L337.053 114.627C337.053 114.627 337.516 105.247 338.557 103.433C339.598 101.58 343.647 112.388 343.647 112.388Z" fill="black"/>
<path d="M324.095 113.623C324.172 113.623 324.25 113.585 324.288 113.546C324.365 113.43 324.365 113.276 324.25 113.199C324.134 113.121 321.666 110.998 320.123 112.349C320.007 112.427 320.007 112.62 320.085 112.697C320.162 112.813 320.355 112.813 320.432 112.735C321.666 111.693 323.864 113.546 323.902 113.585C323.98 113.623 324.018 113.623 324.095 113.623Z" fill="black"/>
<path d="M330.31 116.982C330.736 116.98 331.08 116.633 331.078 116.207C331.077 115.781 330.73 115.436 330.304 115.438C329.878 115.44 329.534 115.787 329.536 116.213C329.538 116.64 329.884 116.984 330.31 116.982Z" fill="black"/>
<path d="M322.057 116.21C322.483 116.208 322.827 115.861 322.825 115.435C322.824 115.009 322.477 114.664 322.051 114.666C321.625 114.668 321.281 115.015 321.283 115.441C321.285 115.868 321.631 116.212 322.057 116.21Z" fill="black"/>
<path d="M340.624 120.572C343.201 120.561 345.281 118.461 345.27 115.882C345.259 113.302 343.161 111.22 340.584 111.231C338.007 111.242 335.927 113.342 335.938 115.921C335.949 118.501 338.047 120.583 340.624 120.572Z" fill="#F9B498"/>
<path d="M341.411 118.448C342.375 118.448 343.03 117.715 343.223 116.981C343.455 116.132 343.185 115.283 342.49 114.858C341.449 114.241 340.524 114.627 340.061 114.935C340.254 114.395 340.562 114.009 340.986 113.777C341.912 113.276 343.03 113.623 343.069 113.623C343.146 113.662 343.223 113.623 343.223 113.546C343.262 113.469 343.223 113.391 343.146 113.391C343.108 113.391 341.873 113.006 340.871 113.546C340.292 113.855 339.907 114.434 339.675 115.244L339.56 115.707L339.868 115.36C339.907 115.321 341.025 114.241 342.336 115.051C343.069 115.514 343.146 116.325 342.953 116.865C342.799 117.444 342.259 118.139 341.372 118.139C341.372 118.139 341.372 118.139 341.334 118.139C341.256 118.139 341.218 118.178 341.218 118.255C341.256 118.409 341.295 118.448 341.411 118.448Z" fill="#F07162"/>
<path d="M326.833 121.459C326.872 121.459 326.949 121.42 326.949 121.382C326.988 121.304 326.949 121.227 326.872 121.227L324.288 120.378L325.098 114.279C325.098 114.202 325.059 114.125 324.982 114.125C324.905 114.125 324.828 114.163 324.828 114.241L324.018 120.571L326.833 121.497C326.795 121.459 326.795 121.459 326.833 121.459Z" fill="#F07162"/>
<path d="M328.839 123.968C328.762 123.968 323.71 123.852 323.71 123.852C323.71 123.852 324.365 125.936 326.216 125.975C328.106 126.013 328.839 123.968 328.839 123.968Z" fill="#FBFDFC"/>
<path d="M343.647 112.388C343.647 112.388 345.19 103.317 342.375 99.9591C339.598 96.6009 323.632 90.7338 321.704 92.4322C319.776 94.1306 321.704 96.1763 321.704 96.1763C321.704 96.1763 315.303 94.1692 313.876 99.8432C312.449 105.517 326.216 107.872 334.392 105.17C334.469 105.17 339.907 106.714 343.647 112.388Z" fill="black"/>
<path d="M327.142 146.317L329.88 142.688L333.042 146.355C333.042 146.355 330.96 149.636 329.533 149.52C328.453 149.366 327.142 146.317 327.142 146.317Z" fill="#ED3B5E"/>
<path d="M322.938 170.596C324.211 178.547 325.329 184.8 325.329 184.8C330.728 179.859 332.849 176.424 335.318 172.834L330.998 147.668L328.723 147.783L322.938 170.596Z" fill="#ED3B5E"/>
<path d="M324.712 134.505C324.712 134.505 327.18 141.453 329.34 142.572C329.34 142.572 339.907 138.056 342.876 129.565C342.876 129.565 347.272 134.389 348.468 135.2C348.468 135.2 338.673 149.559 335.587 153.65L329.494 144.541L323.902 153.033C323.902 153.033 320.509 145.313 320.586 143.229C320.702 141.183 324.712 134.505 324.712 134.505Z" fill="#A5EFED"/>
<path d="M355.757 136.242L350.165 149.25L352.132 154.036C352.132 154.036 329.996 180.67 329.649 180.245C334.739 156.159 348.468 135.2 348.468 135.2C348.468 135.2 350.705 134.968 355.757 136.242Z" fill="#1A2642"/>
<path d="M260.965 193.716L260.001 212.437C260.001 212.437 309.325 216.992 325.214 214.521C341.102 212.051 373.419 176.308 373.419 176.308L351.977 144.927C351.977 144.927 330.883 186.151 318.966 188.621C307.088 191.053 260.965 193.716 260.965 193.716Z" fill="#374169"/>
<path d="M311.408 215.564C290.776 215.564 260.387 212.784 260.001 212.746L259.693 212.707L260.657 193.369H260.965C261.428 193.33 307.204 190.706 318.966 188.274C330.574 185.881 351.553 145.159 351.746 144.773L352.324 145.082C351.476 146.78 331.037 186.46 319.082 188.93C307.783 191.246 265.285 193.794 261.274 194.025L260.348 212.128C264.59 212.514 310.174 216.49 325.175 214.174C340.755 211.742 372.879 176.424 373.188 176.038L373.689 176.463C372.378 177.929 341.102 212.36 325.291 214.792C321.936 215.371 317.038 215.564 311.408 215.564Z" fill="#1D1D1B"/>
<path d="M302.306 190.744L301.651 190.706C301.651 190.667 301.767 187.54 302.461 170.711C303.155 153.805 310.868 139.948 310.945 139.832L311.523 140.141C311.446 140.295 303.81 153.998 303.116 170.75C302.422 187.579 302.306 190.706 302.306 190.744Z" fill="#1D1D1B"/>
<path d="M300.848 215.073L298.92 276.724L299.576 276.744L301.503 215.094L300.848 215.073Z" fill="#1D1D1B"/>
<path d="M275.234 175.073L274.733 168.357C271.108 165.307 255.065 143.46 253.175 140.913L234.549 148.71L234.279 148.092L253.407 140.102L253.561 140.295C253.754 140.527 271.763 165.192 275.234 167.894L275.35 167.971L275.851 174.996L275.234 175.073Z" fill="#1D1D1B"/>
<path d="M275.196 168.473L274.964 167.855C277.972 166.697 297.293 148.98 297.486 148.787L297.949 149.289C297.1 150.022 278.319 167.276 275.196 168.473Z" fill="#1D1D1B"/>
<path d="M344.573 274.389C341.604 260.493 343.609 204.717 343.647 204.138L344.303 204.177C344.264 204.756 342.298 260.454 345.229 274.234L344.573 274.389Z" fill="#1D1D1B"/>
</g>
<defs>
<clipPath id="clip0_264_2367">
<rect width="447" height="356" fill="white" transform="translate(0 0.875)"/>
</clipPath>
</defs>
</svg>
