<svg width="144" height="63" viewBox="0 0 144 63" fill="none" xmlns="http://www.w3.org/2000/svg">
<g clip-path="url(#clip0_238_149)">
<path d="M23.1294 62.208C15.1695 61.5342 8.57749 59.4252 3.02288 54.6271C1.18266 53.0359 -0.895303 51.0424 0.407668 48.4468C1.67977 45.9134 4.36598 46.7651 6.5551 47.3361C11.0723 48.5153 15.5154 50.0097 20.0665 51.0142C25.6457 52.2435 28.0078 49.2735 26.0689 43.817C25.2012 41.3773 23.7624 39.2964 22.2092 37.2716C20.5049 35.0503 18.7635 32.8572 17.1734 30.5548C9.46981 19.414 11.8565 9.21542 22.6632 0.791992C19.0136 7.87078 18.5444 17.0804 23.4351 23.3106C26.5782 27.3101 30.0086 31.0819 33.0869 35.1315C34.8438 37.4401 36.3598 39.9983 37.6165 42.6251C41.2414 50.2001 38.694 54.8859 30.5334 56.2992C26.7388 56.9544 22.9627 56.5301 19.1772 56.6331C18.3838 56.6549 17.1518 56.3304 17.0283 57.5346C16.9758 58.0464 17.794 58.7826 18.3745 59.1975C19.6837 60.1334 21.0946 60.9353 23.1294 62.208Z" fill="#F58120"/>
<path d="M2.48519 29.9897C1.89856 34.7912 2.3864 38.4007 6.29222 41.8856C7.07338 42.5812 8.01511 43.8136 6.99929 44.8931C5.78276 46.1846 4.64961 44.8743 3.72025 44.1973C-0.339966 41.2335 -0.969838 34.9722 2.48519 29.9897Z" fill="#FFC233"/>
<path d="M21.1316 42.3788C20.1497 40.1325 18.5349 38.2325 16.7225 36.6634C10.4299 31.2099 6.44385 25.2917 10.1799 12.4194C7.32691 14.5378 5.11 22.6586 4.92474 26.9577C4.55422 35.6494 8.47549 42.4661 15.2898 47.5732C16.9912 48.8492 19.1247 49.0801 20.934 47.6262C22.8916 46.0539 21.8788 44.0884 21.1316 42.3788Z" fill="#FFC233"/>
<path d="M49.2383 28.8359C49.2383 28.0622 49.8219 27.4727 50.5876 27.4727C51.3533 27.4727 51.9585 28.0622 51.9585 28.8359V34.174C52.8353 32.926 54.0703 31.9246 56.0063 31.9246C58.7944 31.9246 61.5146 34.1521 61.5146 38.1485V38.1953C61.5146 42.17 58.8161 44.4194 56.0063 44.4194C54.0271 44.4194 52.7921 43.421 51.9585 42.3073V42.9217C51.9585 43.6705 51.3502 44.2852 50.5876 44.2852C49.8465 44.2852 49.2383 43.6705 49.2383 42.9217V28.8359ZM58.7512 38.1953V38.1485C58.7512 35.8306 57.2013 34.308 55.3549 34.308C53.5115 34.308 51.8936 35.8524 51.8936 38.1485V38.1953C51.8936 40.4883 53.5115 42.0358 55.3549 42.0358C57.2197 42.0358 58.7512 40.5601 58.7512 38.1953Z" fill="white"/>
<path d="M65.9669 28.9515C65.9669 28.1341 66.64 27.6099 67.517 27.6099C68.3938 27.6099 69.0669 28.1309 69.0669 28.9515V29.0888C69.0669 29.906 68.3938 30.452 67.517 30.452C66.64 30.452 65.9669 29.906 65.9669 29.0888V28.9515ZM66.1676 33.4252C66.1676 32.6515 66.7511 32.0399 67.517 32.0399C68.2826 32.0399 68.8877 32.6546 68.8877 33.4252V42.9218C68.8877 43.6955 68.2796 44.2851 67.517 44.2851C66.7759 44.2851 66.1676 43.6955 66.1676 42.9218V33.4252Z" fill="white"/>
<path d="M74.6903 40.8536V34.5391H74.2396C73.5881 34.5391 73.0694 34.0181 73.0694 33.3568C73.0694 32.6985 73.585 32.1743 74.2396 32.1743H74.6903V30.1309C74.6903 29.3822 75.2986 28.7676 76.0613 28.7676C76.8022 28.7676 77.4105 29.3822 77.4105 30.1309V32.1743H79.5472C80.1987 32.1743 80.7389 32.6954 80.7389 33.3568C80.7389 34.015 80.1987 34.5391 79.5472 34.5391H77.4105V40.423C77.4105 41.4901 77.9508 41.9236 78.871 41.9236C79.1859 41.9236 79.4546 41.855 79.544 41.855C80.1523 41.855 80.6896 42.3542 80.6896 42.9906C80.6896 43.4898 80.353 43.8984 79.9702 44.0575C79.3866 44.2635 78.8246 44.3758 78.1052 44.3758C76.1075 44.3758 74.6903 43.4898 74.6903 40.8536Z" fill="white"/>
<path d="M85.0518 28.8359C85.0518 28.0622 85.6354 27.4727 86.4012 27.4727C87.1669 27.4727 87.7721 28.0622 87.7721 28.8359V34.174C88.6489 32.926 89.884 31.9246 91.82 31.9246C94.608 31.9246 97.3282 34.1521 97.3282 38.1485V38.1953C97.3282 42.17 94.6297 44.4194 91.82 44.4194C89.8408 44.4194 88.6057 43.421 87.7721 42.3073V42.9217C87.7721 43.6705 87.1638 44.2852 86.4012 44.2852C85.6601 44.2852 85.0518 43.6705 85.0518 42.9217V28.8359ZM94.5648 38.1953V38.1485C94.5648 35.8306 93.0149 34.308 91.1685 34.308C89.3221 34.308 87.7072 35.8524 87.7072 38.1485V38.1953C87.7072 40.4883 89.3251 42.0358 91.1685 42.0358C93.0333 42.0358 94.5648 40.5601 94.5648 38.1953Z" fill="white"/>
<path d="M101.036 40.7191V40.6724C101.036 38.0829 103.037 36.81 105.936 36.81C107.264 36.81 108.206 37.016 109.129 37.3092V37.0128C109.129 35.3094 108.095 34.4017 106.183 34.4017C105.149 34.4017 104.294 34.5826 103.553 34.879C103.395 34.9257 103.259 34.9476 103.127 34.9476C102.497 34.9476 101.981 34.4484 101.981 33.812C101.981 33.3128 102.318 32.8791 102.722 32.7232C103.846 32.2926 104.991 32.0181 106.544 32.0181C108.32 32.0181 109.648 32.4954 110.478 33.3595C111.355 34.2238 111.759 35.4935 111.759 37.0628V42.9685C111.759 43.7173 111.176 44.285 110.432 44.285C109.645 44.285 109.104 43.7391 109.104 43.1276V42.6721C108.295 43.6486 107.057 44.4223 105.238 44.4223C103.015 44.4223 101.036 43.1276 101.036 40.7191ZM109.175 39.855V39.0376C108.477 38.7662 107.557 38.5602 106.477 38.5602C104.723 38.5602 103.688 39.3091 103.688 40.5601V40.6069C103.688 41.7643 104.701 42.4257 106.004 42.4257C107.804 42.4226 109.175 41.3774 109.175 39.855Z" fill="white"/>
<path d="M116.706 33.4249C116.706 32.6512 117.29 32.0396 118.056 32.0396C118.821 32.0396 119.427 32.6542 119.427 33.4249V34.0145C120.192 32.9007 121.291 31.9243 123.135 31.9243C125.812 31.9243 127.362 33.7431 127.362 36.5135V42.9184C127.362 43.6921 126.778 44.2817 126.012 44.2817C125.247 44.2817 124.641 43.6921 124.641 42.9184V37.3558C124.641 35.4933 123.718 34.4263 122.1 34.4263C120.526 34.4263 119.423 35.5401 119.423 37.4025V42.9215C119.423 43.6952 118.815 44.2848 118.052 44.2848C117.311 44.2848 116.703 43.6952 116.703 42.9215V33.4249H116.706Z" fill="white"/>
<path d="M144.001 42.9217C144.001 43.6955 143.393 44.2852 142.652 44.2852C141.886 44.2852 141.281 43.6955 141.281 42.9217V42.173C140.404 43.4209 139.169 44.4224 137.233 44.4224C134.445 44.4224 131.725 42.173 131.725 38.1985V38.1516C131.725 34.177 134.402 31.9276 137.233 31.9276C139.188 31.9276 140.426 32.9041 141.281 34.0397V28.8359C141.281 28.0622 141.889 27.4727 142.63 27.4727C143.396 27.4727 144.001 28.0622 144.001 28.8359V42.9217ZM134.466 38.1516V38.1985C134.466 40.5164 136.041 42.0388 137.885 42.0388C139.706 42.0388 141.324 40.4946 141.324 38.1985V38.1516C141.324 35.8336 139.706 34.3112 137.885 34.3112C136.02 34.3112 134.466 35.7651 134.466 38.1516Z" fill="white"/>
</g>
<defs>
<clipPath id="clip0_238_149">
<rect width="144" height="63" fill="white"/>
</clipPath>
</defs>
</svg>
