<svg width="117" height="119" viewBox="0 0 117 119" fill="none" xmlns="http://www.w3.org/2000/svg">
<g clip-path="url(#clip0_304_8)">
<path d="M64.8701 69.6472L58.8276 66.477V62.0911C59.0929 61.6213 59.245 61.0795 59.245 60.5028V59.8174C59.245 58.2452 59.965 56.7812 61.2201 55.8007C62.3456 54.9216 63.2944 53.8587 64.0398 52.6416C64.3011 52.2151 64.1671 51.6577 63.7406 51.3964C63.3142 51.1351 62.7567 51.269 62.4954 51.6956C61.8636 52.7272 61.0594 53.6281 60.1053 54.3733C59.1762 55.099 58.4658 56.0226 58.0112 57.0592H57.0336V49.7487L59.1037 45.1244C59.501 44.2366 59.4226 43.2192 58.8937 42.4029C58.3647 41.5866 57.4681 41.0993 56.4956 41.0993H51.3843C50.4117 41.0993 49.5153 41.5866 48.9863 42.4029C48.4574 43.2192 48.3789 44.2366 48.7763 45.1244L50.8463 49.7487V57.0592H49.8641C49.4065 56.0212 48.6917 55.0928 47.7569 54.3593C45.3741 52.4898 43.9745 49.6849 43.9168 46.664C43.8657 43.9886 44.8712 41.4468 46.7481 39.5068C48.6226 37.5693 51.1257 36.4818 53.7965 36.4445C56.5031 36.4084 59.0534 37.4315 60.9787 39.3301C62.9044 41.2292 63.9648 43.7642 63.9648 46.4686C63.9648 47.11 63.9028 47.7553 63.7806 48.3861C63.6854 48.8771 64.0064 49.3522 64.4974 49.4474C64.9883 49.5429 65.4636 49.2216 65.5587 48.7307C65.7029 47.9866 65.776 47.2255 65.776 46.4686C65.776 43.2757 64.524 40.2827 62.2505 38.0406C59.9773 35.799 56.9651 34.5893 53.7712 34.6335C50.615 34.6776 47.6585 35.961 45.4464 38.2474C43.2319 40.5363 42.0455 43.5376 42.1059 46.6986C42.174 50.2658 43.8262 53.5774 46.6387 55.7842C47.9073 56.7797 48.6349 58.2498 48.6349 59.8178V60.5026C48.6349 61.1622 48.8334 61.7761 49.173 62.2886V66.4769L43.1305 69.647C39.6573 71.4692 37.4998 75.0377 37.4998 78.9597V88.0941C37.4998 88.5942 37.9053 88.9997 38.4054 88.9997C38.9055 88.9997 39.3109 88.5942 39.3109 88.0941V78.9599C39.3109 75.7132 41.0969 72.7593 43.9719 71.2509L45.9426 70.217L48.2266 74.946C48.4078 75.3212 48.7609 75.5882 49.1712 75.6604C49.2457 75.6735 49.3204 75.68 49.3949 75.68C49.6546 75.68 49.9089 75.6012 50.1241 75.4557L50.8991 77.1008C50.9415 77.1907 50.9986 77.2701 51.065 77.3395L50.6809 79.3048C50.585 79.7956 50.9051 80.2713 51.3959 80.3672C51.4546 80.3787 51.513 80.3842 51.5706 80.3842C51.995 80.3842 52.3739 80.0844 52.4584 79.6522L52.8555 77.6205H55.145L56.4816 84.4602C56.4843 84.4746 56.4843 84.489 56.4817 84.5035L55.8246 87.9235C55.7303 88.4147 56.052 88.8893 56.543 88.9836C56.6009 88.9947 56.6582 89 56.7148 89C57.1404 89 57.5199 88.6985 57.6031 88.2652L58.2602 84.8455C58.3069 84.6026 58.3065 84.3562 58.259 84.1131L56.9191 77.2574C56.9557 77.2088 56.9893 77.1575 57.016 77.101L57.8126 75.4099C58.0401 75.5847 58.3195 75.68 58.6052 75.68C58.6796 75.68 58.7545 75.6736 58.829 75.6606C59.2391 75.5883 59.5924 75.3214 59.7736 74.9461L62.0576 70.217L64.0283 71.2509C66.9034 72.7593 68.6893 75.7132 68.6893 78.9599V88.0942C68.6893 88.5943 69.0947 88.9998 69.5949 88.9998C70.0951 88.9998 70.5004 88.5943 70.5004 88.0942V78.9599C70.5008 75.0378 68.3432 71.4693 64.8701 69.6472ZM55.6226 75.8093H52.293L51.5057 74.1382L54.0004 71.7049L56.4366 74.0813L55.6226 75.8093ZM54.0004 69.2391L50.9843 66.6123V63.6185C51.2681 63.6999 51.5674 63.7445 51.8769 63.7445H56.0031C56.357 63.7445 56.6974 63.6866 57.0166 63.5814V66.6121L54.0004 69.2391ZM52.5784 49.1853L50.4294 44.3844C50.2816 44.0544 50.3098 43.6912 50.5063 43.3878C50.7029 43.0844 51.023 42.9104 51.3845 42.9104H56.4957C56.8572 42.9104 57.1774 43.0844 57.3738 43.3878C57.5703 43.6912 57.5984 44.0544 57.4507 44.3844L55.3017 49.1853C55.2495 49.3017 55.2227 49.4277 55.2227 49.5552V57.0592H52.6575V49.5552C52.6574 49.4277 52.6305 49.3017 52.5784 49.1853ZM57.5013 58.8702C57.4585 59.1816 57.434 59.4975 57.434 59.8173V60.5026C57.434 61.2915 56.7921 61.9334 56.0031 61.9334H51.8769C51.088 61.9334 50.4462 61.2915 50.4462 60.5026V59.8178C50.4462 59.4981 50.4214 59.182 50.378 58.8702H57.5013ZM47.5475 69.3751L49.951 68.1141L52.6649 70.4777L49.5483 73.5177L47.5475 69.3751ZM58.4525 73.5176L55.336 70.4776L58.0498 68.114L60.4533 69.375L58.4525 73.5176Z" fill="#F58220"/>
<path d="M51.519 84.5037C51.5163 84.4893 51.5163 84.4749 51.5191 84.4604L51.7185 83.4399C51.8144 82.9491 51.4943 82.4734 51.0035 82.3776C50.5127 82.2817 50.0371 82.6018 49.9411 83.0926L49.7418 84.1128C49.6942 84.3556 49.6939 84.6021 49.7406 84.8452L50.3977 88.2653C50.4808 88.6987 50.8603 89.0001 51.2859 89.0001C51.3426 89.0001 51.4 88.9948 51.4577 88.9837C51.9489 88.8894 52.2706 88.4147 52.1761 87.9236L51.519 84.5037Z" fill="#F58220"/>
<path d="M82.1795 67.786L79.5176 66.12V65.1668C82.6738 63.7178 84.8722 60.5295 84.8722 56.8353C84.8722 51.7822 80.7612 47.6711 75.708 47.6711C70.6549 47.6711 66.5439 51.7822 66.5439 56.8353C66.5439 60.5295 68.7424 63.7179 71.8986 65.1668V66.12L69.2365 67.7859C68.8125 68.0513 68.684 68.6099 68.9493 69.0338C69.1211 69.3084 69.416 69.4591 69.7177 69.4591C69.8818 69.4591 70.0479 69.4145 70.1973 69.3211L73.2844 67.3891C73.549 67.2236 73.7095 66.9336 73.7095 66.6215V65.7773C74.3533 65.9211 75.0215 65.9994 75.708 65.9994C76.3945 65.9994 77.0627 65.9211 77.7066 65.7773V66.6215C77.7066 66.9335 77.8672 67.2236 78.1317 67.389L81.2188 69.3209C82.3723 70.0428 83.061 71.2863 83.061 72.6472V77.8815C83.061 78.3816 83.4663 78.787 83.9666 78.787C84.4668 78.787 84.8721 78.3816 84.8721 77.8815V72.6472C84.8721 70.6585 83.8655 68.841 82.1795 67.786ZM68.3549 56.8353C68.3549 52.7808 71.6534 49.4822 75.7079 49.4822C79.7624 49.4822 83.061 52.7808 83.061 56.8353C83.061 60.8899 79.7624 64.1883 75.7079 64.1883C71.6534 64.1883 68.3549 60.8899 68.3549 56.8353Z" fill="#F58220"/>
<path d="M38.2832 69.4592C38.5849 69.4592 38.8799 69.3085 39.0517 69.034C39.3171 68.61 39.1885 68.0513 38.7646 67.786L36.1027 66.12V65.1668C39.2588 63.7178 41.4572 60.5295 41.4572 56.8353C41.4572 51.7822 37.3461 47.6711 32.293 47.6711C30.5856 47.6711 28.9181 48.1455 27.4708 49.043C27.0457 49.3066 26.9148 49.8647 27.1784 50.2897C27.4418 50.7148 28.0001 50.8457 28.4251 50.5822C29.5857 49.8627 30.9231 49.4822 32.293 49.4822C36.3475 49.4822 39.6461 52.7808 39.6461 56.8353C39.6461 60.8899 36.3475 64.1883 32.293 64.1883C28.2385 64.1883 24.94 60.8898 24.94 56.8353C24.94 55.4902 25.3064 54.1745 25.9998 53.0305C26.2591 52.6028 26.1225 52.046 25.6947 51.7868C25.2669 51.5275 24.7102 51.6642 24.451 52.0919C23.5861 53.5189 23.1289 55.1592 23.1289 56.8355C23.1289 60.5296 25.3273 63.7179 28.4834 65.1669V66.1202L25.8215 67.7861C24.1355 68.8413 23.1289 70.6586 23.1289 72.6475V77.8818C23.1289 78.3819 23.5343 78.7874 24.0344 78.7874C24.5345 78.7874 24.94 78.3819 24.94 77.8818V72.6475C24.94 71.2867 25.6287 70.0432 26.7823 69.3213L29.8694 67.3894C30.1338 67.2238 30.2945 66.9338 30.2945 66.6218V65.7776C30.9383 65.9214 31.6065 65.9998 32.293 65.9998C32.9795 65.9998 33.6477 65.9214 34.2915 65.7776V66.6218C34.2915 66.9338 34.4522 67.224 34.7166 67.3894L37.8036 69.3213C37.953 69.4146 38.1191 69.4592 38.2832 69.4592Z" fill="#F58220"/>
<path d="M54.0004 29.8581C54.5006 29.8581 54.9059 29.4527 54.9059 28.9526V27.9055C54.9059 27.4054 54.5006 27 54.0004 27C53.5003 27 53.0948 27.4054 53.0948 27.9055V28.9526C53.0948 29.4527 53.5003 29.8581 54.0004 29.8581Z" fill="#F58220"/>
<path d="M44.6842 31.4212C44.8446 31.7339 45.1618 31.9137 45.4907 31.9137C45.6297 31.9137 45.7709 31.8816 45.9033 31.8137C46.3483 31.5855 46.524 31.0398 46.2957 30.5948L45.8178 29.6631C45.5896 29.2182 45.044 29.0423 44.5988 29.2707C44.1538 29.4989 43.9781 30.0447 44.2064 30.4897L44.6842 31.4212Z" fill="#F58220"/>
<path d="M37.4768 36.8449L38.3272 37.4559C38.4872 37.5708 38.6718 37.6261 38.8548 37.6261C39.1365 37.6261 39.4141 37.4951 39.591 37.2488C39.8828 36.8426 39.7901 36.2769 39.3839 35.985L38.5335 35.3741C38.1272 35.0823 37.5615 35.1749 37.2698 35.5812C36.978 35.9873 37.0707 36.5532 37.4768 36.8449Z" fill="#F58220"/>
<path d="M62.0979 31.8136C62.2303 31.8814 62.3714 31.9135 62.5105 31.9135C62.8394 31.9135 63.1566 31.7338 63.3169 31.421L63.7948 30.4894C64.0231 30.0444 63.8474 29.4986 63.4024 29.2704C62.9572 29.0421 62.4116 29.2179 62.1834 29.6628L61.7055 30.5945C61.4772 31.0395 61.6529 31.5852 62.0979 31.8136Z" fill="#F58220"/>
<path d="M69.1464 37.6261C69.3294 37.6261 69.5141 37.5708 69.674 37.4559L70.5243 36.8449C70.9305 36.5531 71.0232 35.9873 70.7314 35.5812C70.4396 35.1749 69.8737 35.0823 69.4676 35.3741L68.6173 35.985C68.2111 36.2769 68.1184 36.8426 68.4102 37.2488C68.5871 37.4951 68.8647 37.6261 69.1464 37.6261Z" fill="#F58220"/>
</g>
<path fill-rule="evenodd" clip-rule="evenodd" d="M97.5527 32.1369L83.5141 8.39901C80.748 3.72176 75.2262 1.43219 69.962 2.77968L43.245 9.61847L16.3308 15.6345C11.0277 16.8199 7.14386 21.3639 6.79866 26.7869L5.04673 54.3096L2.45138 81.7655C1.94 87.1754 5.06141 92.2733 10.1123 94.2774L35.7466 104.449L61.0567 115.401C66.0438 117.559 71.8568 116.166 75.3236 111.982L92.9184 90.7451L111.156 70.0583C114.75 65.9822 115.221 60.0232 112.313 55.433L97.5527 32.1369ZM85.5771 7.17898C82.2686 1.58463 75.6641 -1.15389 69.3677 0.457826L42.6863 7.2875L15.808 13.2955C9.46504 14.7133 4.81967 20.1483 4.40679 26.6346L2.65719 54.1206L0.0653045 81.54C-0.546349 88.0106 3.18711 94.1081 9.22839 96.5052L34.8285 106.663L60.1049 117.601C66.0698 120.182 73.0226 118.516 77.1692 113.511L94.7405 92.3025L112.954 71.6432C117.252 66.7679 117.816 59.6405 114.337 54.1502L99.5969 30.8852L85.5771 7.17898Z" fill="#F58220"/>
<defs>
<clipPath id="clip0_304_8">
<rect width="62" height="62" fill="white" transform="translate(23 27)"/>
</clipPath>
</defs>
</svg>
