<svg width="117" height="119" viewBox="0 0 117 119" fill="none" xmlns="http://www.w3.org/2000/svg">
<g clip-path="url(#clip0_304_5)">
<path d="M42.719 44.8049H44.5343V49.7418L44.3973 49.6048C44.0653 49.2726 43.527 49.2728 43.1951 49.6048C42.8631 49.9368 42.8631 50.4751 43.1951 50.807L44.6967 52.3084C44.8804 52.4922 45.1247 52.5934 45.3846 52.5934C45.6445 52.5934 45.8888 52.4922 46.0725 52.3084L47.5741 50.807C47.9061 50.475 47.9061 49.9368 47.5741 49.6048C47.2422 49.2728 46.7039 49.2728 46.3719 49.6048L46.2348 49.7418V44.8049H63.7671V49.7418L63.6301 49.6048C63.2981 49.2726 62.7597 49.2728 62.4279 49.6048C62.0958 49.9368 62.0958 50.4751 62.4279 50.807L63.9294 52.3084C64.1132 52.4922 64.3574 52.5934 64.6173 52.5934C64.8773 52.5934 65.1215 52.4922 65.3053 52.3084L66.8068 50.807C67.1388 50.475 67.1388 49.9368 66.8068 49.6048C66.4748 49.2728 65.9365 49.2728 65.6046 49.6048L65.4676 49.7418V44.8049H67.3003C68.2242 44.8049 68.9759 44.0532 68.9759 43.1292V30.6757C68.9755 29.7517 68.2238 29 67.2998 29H61.8159C61.3464 29 60.9657 29.3806 60.9657 29.8501C60.9657 30.3196 61.3464 30.7003 61.8159 30.7003H67.2753V43.1046H42.7436V30.7003H58.1928C58.6623 30.7003 59.043 30.3196 59.043 29.8501C59.043 29.3806 58.6623 29 58.1928 29H42.719C41.7951 29 41.0434 29.7517 41.0434 30.6757V43.1291C41.0434 44.0532 41.795 44.8049 42.719 44.8049V44.8049Z" fill="#F58220"/>
<path d="M32.6256 65.1776H35.8859V69.9263L35.7489 69.7892C35.4169 69.4571 34.8786 69.4572 34.5467 69.7892C34.2147 70.1212 34.2147 70.6595 34.5467 70.9914L36.0483 72.4929C36.232 72.6766 36.4763 72.7778 36.7362 72.7778C36.9961 72.7778 37.2404 72.6766 37.4242 72.4929L38.9257 70.9914C39.2577 70.6594 39.2577 70.1212 38.9257 69.7892C38.5937 69.4571 38.0554 69.4572 37.7235 69.7892L37.5865 69.9263V65.1776H41.4922C41.9617 65.1776 42.3424 64.797 42.3424 64.3275C42.3424 63.858 41.9617 63.4774 41.4922 63.4774H32.6502V50.2025H41.2172C41.6867 50.2025 42.0674 49.8218 42.0674 49.3523C42.0674 48.8828 41.6867 48.5022 41.2172 48.5022H32.6256C31.7016 48.5022 30.9499 49.2538 30.9499 50.1779V63.502C30.9499 64.4259 31.7016 65.1776 32.6256 65.1776V65.1776Z" fill="#F58220"/>
<path d="M62.3391 68.9885H59.2898C58.8203 68.9885 58.4396 69.3692 58.4396 69.8387C58.4396 70.3082 58.8203 70.6888 59.2898 70.6888H62.3147V85.2997H47.7037V70.6888H50.5978C51.0673 70.6888 51.4479 70.3082 51.4479 69.8387C51.4479 69.3692 51.0673 68.9885 50.5978 68.9885H47.6791C46.7552 68.9885 46.0034 69.7403 46.0034 70.6642V85.3242C46.0034 86.2482 46.7552 86.9999 47.6791 86.9999H62.3391C63.2631 86.9999 64.0148 86.2482 64.0148 85.3242V70.6642C64.0148 69.7403 63.2631 68.9885 62.3391 68.9885Z" fill="#F58220"/>
<path d="M54.1511 65.1777V69.9264L54.014 69.7893C53.682 69.4572 53.1437 69.4573 52.8118 69.7893C52.4798 70.1213 52.4798 70.6596 52.8118 70.9915L54.3134 72.493C54.4971 72.6767 54.7414 72.7779 55.0013 72.7779C55.2612 72.7779 55.5055 72.6767 55.6892 72.493L57.1908 70.9915C57.5228 70.6595 57.5228 70.1213 57.1908 69.7893C56.8588 69.4572 56.3205 69.4573 55.9886 69.7893L55.8516 69.9264V65.1777H72.4159V69.9264L72.2789 69.7893C71.9469 69.4572 71.4086 69.4573 71.0767 69.7893C70.7447 70.1213 70.7447 70.6596 71.0767 70.9915L72.5782 72.493C72.762 72.6767 73.0062 72.7779 73.2662 72.7779C73.5261 72.7779 73.7703 72.6767 73.9541 72.493L75.4556 70.9915C75.7877 70.6595 75.7877 70.1213 75.4556 69.7893C75.1236 69.4572 74.5853 69.4573 74.2534 69.7893L74.1164 69.9264V65.1777H77.3767C78.3007 65.1777 79.0524 64.426 79.0524 63.5021V50.1779C79.0524 49.2539 78.3007 48.5022 77.3767 48.5022H68.7852C68.3157 48.5022 67.935 48.8828 67.935 49.3523C67.935 49.8218 68.3157 50.2025 68.7852 50.2025H77.3522V63.4774H59.1118V50.2026H60.4507C60.9202 50.2026 61.3008 49.8219 61.3008 49.3524C61.3008 48.8829 60.9202 48.5023 60.4507 48.5023H59.0872C58.1632 48.5023 57.4115 49.2539 57.4115 50.178V63.4776H52.5918V50.1779C52.5918 49.2539 51.8402 48.5022 50.9161 48.5022H49.5522C49.0827 48.5022 48.702 48.8828 48.702 49.3523C48.702 49.8218 49.0827 50.2025 49.5522 50.2025H50.8911V63.4774H45.1153C44.6458 63.4774 44.2651 63.858 44.2651 64.3275C44.2651 64.797 44.6458 65.1776 45.1153 65.1776H54.1511V65.1777Z" fill="#F58220"/>
<path d="M42.4778 68.9885H41.082C40.6125 68.9885 40.2319 69.3692 40.2319 69.8387C40.2319 70.3082 40.6125 70.6888 41.082 70.6888H42.4532V85.2997H27.8424V70.6888H32.3901C32.8596 70.6888 33.2403 70.3082 33.2403 69.8387C33.2403 69.3692 32.8596 68.9885 32.3901 68.9885H27.8178C26.8938 68.9885 26.1421 69.7403 26.1421 70.6642V85.3242C26.1421 86.2482 26.8937 86.9999 27.8178 86.9999H42.4778C43.4017 86.9999 44.1535 86.2482 44.1535 85.3242V70.6642C44.1535 69.7403 43.4017 68.9885 42.4778 68.9885Z" fill="#F58220"/>
<path d="M82.1836 68.9885H77.6114C77.1419 68.9885 76.7612 69.3692 76.7612 69.8387C76.7612 70.3082 77.1419 70.6888 77.6114 70.6888H82.1591V85.2997H67.5483V70.6888H68.9195C69.389 70.6888 69.7696 70.3082 69.7696 69.8387C69.7696 69.3692 69.389 68.9885 68.9195 68.9885H67.5237C66.5997 68.9885 65.848 69.7403 65.848 70.6642V85.3242C65.848 86.2482 66.5997 86.9999 67.5237 86.9999H82.1837C83.1076 86.9999 83.8594 86.2482 83.8594 85.3242V70.6642C83.8594 69.7403 83.1077 68.9885 82.1836 68.9885Z" fill="#F58220"/>
</g>
<path fill-rule="evenodd" clip-rule="evenodd" d="M97.5531 32.1369L83.5146 8.39901C80.7485 3.72176 75.2267 1.43219 69.9625 2.77968L43.2455 9.61847L16.3313 15.6345C11.0282 16.8199 7.14435 21.3639 6.79915 26.7869L5.04722 54.3096L2.45187 81.7655C1.94049 87.1754 5.0619 92.2733 10.1128 94.2774L35.7471 104.449L61.0572 115.401C66.0443 117.559 71.8573 116.166 75.3241 111.982L92.9189 90.7451L111.157 70.0583C114.75 65.9822 115.222 60.0232 112.313 55.433L97.5531 32.1369ZM85.5776 7.17898C82.2691 1.58463 75.6646 -1.15389 69.3682 0.457826L42.6868 7.2875L15.8085 13.2955C9.46553 14.7133 4.82016 20.1483 4.40728 26.6346L2.65768 54.1206L0.0657928 81.54C-0.54586 88.0106 3.1876 94.1081 9.22888 96.5052L34.8289 106.663L60.1054 117.601C66.0703 120.182 73.0231 118.516 77.1697 113.511L94.741 92.3025L112.955 71.6432C117.253 66.7679 117.816 59.6405 114.338 54.1502L99.5974 30.8852L85.5776 7.17898Z" fill="#F58220"/>
<defs>
<clipPath id="clip0_304_5">
<rect width="58" height="58" fill="white" transform="translate(26.0005 29)"/>
</clipPath>
</defs>
</svg>
