<svg width="117" height="119" viewBox="0 0 117 119" fill="none" xmlns="http://www.w3.org/2000/svg">
<path fill-rule="evenodd" clip-rule="evenodd" d="M97.5527 32.1369L83.5141 8.39901C80.748 3.72176 75.2262 1.43219 69.962 2.77968L43.245 9.61847L16.3308 15.6345C11.0277 16.8199 7.14386 21.3639 6.79866 26.7869L5.04673 54.3096L2.45138 81.7655C1.94 87.1754 5.06141 92.2733 10.1123 94.2774L35.7466 104.449L61.0567 115.401C66.0438 117.559 71.8568 116.166 75.3236 111.982L92.9184 90.7451L111.156 70.0583C114.75 65.9822 115.221 60.0232 112.313 55.433L97.5527 32.1369ZM85.5771 7.17898C82.2686 1.58463 75.6641 -1.15389 69.3677 0.457826L42.6863 7.2875L15.808 13.2955C9.46504 14.7133 4.81967 20.1483 4.40679 26.6346L2.65719 54.1206L0.0653045 81.54C-0.546349 88.0106 3.18711 94.1081 9.22839 96.5052L34.8285 106.663L60.1049 117.601C66.0698 120.182 73.0226 118.516 77.1692 113.511L94.7405 92.3025L112.954 71.6432C117.252 66.7679 117.816 59.6405 114.337 54.1502L99.5969 30.8852L85.5771 7.17898Z" fill="#F58220"/>
<g clip-path="url(#clip0_304_7)">
<path d="M64.9626 81.1553C64.4447 81.1553 64.0251 81.575 64.0251 82.0927V84.8852C64.0251 86.7274 63.3676 88.5146 62.1737 89.9176C62.0294 90.0871 61.9502 90.3025 61.9502 90.5251V92.0465C61.9502 92.5642 62.3698 92.984 62.8877 92.984C63.4055 92.984 63.8251 92.5642 63.8251 92.0465V90.8599C65.1657 89.1623 65.9 87.0545 65.9 84.8852V82.0927C65.9 81.575 65.4803 81.1553 64.9626 81.1553Z" fill="#F58220"/>
<path d="M62.8869 63.9277C62.4601 63.9277 62.0542 64.0175 61.6859 64.1782C61.4008 62.8117 60.187 61.782 58.7371 61.782C58.3268 61.782 57.9356 61.8647 57.5787 62.0138C57.405 60.5169 56.1301 59.3508 54.5874 59.3508C53.4794 59.3508 52.51 59.9524 51.9868 60.8458C51.5338 60.573 51.0038 60.4158 50.4376 60.4158C48.7765 60.4158 47.4252 61.7671 47.4252 63.4281V73.2664C47.3607 73.1706 47.2967 73.0753 47.2336 72.9814C46.3049 71.6005 44.4677 71.2031 43.0513 72.0772C41.8487 72.8192 41.3054 74.2786 41.7301 75.6263L43.3983 80.9198L43.8519 83.7099C44.2889 86.3974 45.8186 88.8113 48.0576 90.3549V92.0464C48.0576 92.5642 48.4773 92.9839 48.995 92.9839C49.5128 92.9839 49.9325 92.5642 49.9325 92.0464V90.2118C49.9325 89.6747 49.6659 89.1758 49.219 88.8773C47.3456 87.6259 46.0639 85.6327 45.7024 83.409L45.238 80.5521C45.2307 80.5077 45.2203 80.4637 45.2067 80.4207L43.5183 75.0626C43.3519 74.5349 43.5647 73.9633 44.0356 73.6728C44.592 73.3298 45.3132 73.4855 45.6777 74.0275C46.5453 75.3178 47.584 76.8661 47.584 76.8663C47.8138 77.209 48.2409 77.3606 48.6354 77.2409C49.0301 77.1207 49.2999 76.7565 49.2999 76.344V63.4281C49.2999 62.8009 49.8101 62.2907 50.4373 62.2907C51.0646 62.2907 51.5748 62.8009 51.5748 63.4281V76.3442C51.5748 76.8619 51.9945 77.2816 52.5122 77.2816C53.03 77.2816 53.4497 76.8619 53.4497 76.3442V62.3632C53.4497 61.736 53.9599 61.2257 54.5871 61.2257C55.2144 61.2257 55.7246 61.736 55.7246 62.3632V76.3443C55.7246 76.862 56.1442 77.2817 56.662 77.2817C57.1799 77.2817 57.5995 76.862 57.5995 76.3443V64.7943C57.5995 64.1671 58.1097 63.6569 58.7369 63.6569C59.3643 63.6569 59.8745 64.1672 59.8745 64.7943V76.3443C59.8745 76.862 60.2941 77.2817 60.812 77.2817C61.3298 77.2817 61.7494 76.862 61.7494 76.3443V66.9377C61.7508 66.3116 62.2604 65.8028 62.8869 65.8028C63.5141 65.8028 64.0243 66.313 64.0243 66.9402V78.0533C64.0243 78.5711 64.4439 78.9908 64.9618 78.9908C65.4796 78.9908 65.8992 78.5711 65.8992 78.0533V66.9402C65.8992 65.2791 64.5478 63.9277 62.8869 63.9277Z" fill="#F58220"/>
<path d="M44.3006 59.8736C44.7836 60.1982 45.3506 60.3759 45.9459 60.3818C45.9563 60.3819 45.9667 60.3819 45.977 60.3819C46.77 60.3819 47.5176 60.0768 48.0847 59.521C48.3779 59.2335 48.5993 58.9001 48.7497 58.5435C49.2991 58.988 49.9697 59.2122 50.6418 59.2122C51.4029 59.2122 52.1649 58.9262 52.7501 58.3526C53.5409 57.5776 53.8099 56.4705 53.5591 55.4667C54.0862 55.3419 54.5714 55.0763 54.9682 54.6873C55.543 54.1241 55.8638 53.3709 55.8719 52.5663C55.8799 51.7616 55.5743 51.0021 55.0111 50.4275L48.1247 43.4011C48.2378 43.4245 48.3502 43.4477 48.4609 43.4705C50.0903 43.8068 51.6806 42.8046 52.0807 41.1888C52.4202 39.8171 51.7868 38.3946 50.5401 37.7294L45.6435 35.1166L43.3667 33.4414C41.1735 31.8279 38.3914 31.175 35.7118 31.6395L33.4165 29.2976C33.0541 28.9278 32.4605 28.922 32.0908 29.2843C31.7211 29.6466 31.7151 30.2402 32.0774 30.6099L34.7226 33.3088C34.9417 33.5324 35.2579 33.6322 35.5658 33.5739L35.9165 33.5078C38.1305 33.0902 40.4409 33.6165 42.2556 34.9516L44.587 36.6669C44.6233 36.6937 44.6615 36.7177 44.7012 36.7389L49.6576 39.3837C50.1458 39.6441 50.394 40.2014 50.261 40.7385C50.104 41.3728 49.4797 41.766 48.8399 41.6344C47.3171 41.3203 45.4916 40.9416 45.4914 40.9415C45.0877 40.8577 44.6762 41.0478 44.4784 41.4099C44.2805 41.772 44.3427 42.2209 44.6316 42.5155L53.6724 51.74C53.885 51.9569 54.0005 52.2437 53.9974 52.5474C53.9944 52.8511 53.8732 53.1356 53.6562 53.3484C53.4392 53.561 53.1549 53.6817 52.8487 53.6734C52.545 53.6704 52.2605 53.5492 52.048 53.3323L43.0072 44.1077C42.6448 43.7378 42.0512 43.7319 41.6815 44.0943C41.3118 44.4567 41.3058 45.0503 41.6681 45.42L51.4543 55.405C51.8933 55.853 51.886 56.5746 51.4382 57.0136C50.9902 57.4526 50.2686 57.4453 49.8296 56.9975L40.0434 47.0124C39.6811 46.6427 39.0875 46.6366 38.7177 46.999C38.348 47.3614 38.342 47.955 38.7044 48.3247L46.7891 56.5738C47.2278 57.0218 47.2205 57.7432 46.7727 58.182C46.5558 58.3946 46.2689 58.5111 45.9652 58.5071C45.6613 58.5041 45.3769 58.3829 45.1643 58.166L37.0798 49.9172C36.7175 49.5473 36.1239 49.5414 35.7541 49.9038C35.3844 50.2661 35.3784 50.8597 35.7408 51.2295L42.3233 57.9458C42.7623 58.3936 42.7551 59.1152 42.3072 59.5543C41.8594 59.9932 41.1378 59.9859 40.6987 59.5382L32.9116 51.593C32.5493 51.2231 31.9557 51.2172 31.586 51.5796C31.2162 51.9419 31.2102 52.5355 31.5726 52.9053L39.3597 60.8506C39.9487 61.4516 40.7297 61.753 41.5114 61.753C42.2725 61.753 43.0344 61.467 43.6196 60.8934C43.9239 60.5945 44.1502 60.246 44.3006 59.8736Z" fill="#F58220"/>
<path d="M28.1378 46.7217C26.8483 45.4062 26.0669 43.6695 25.9375 41.8318C25.9219 41.6098 25.8278 41.4005 25.6719 41.2415L24.6069 40.155C24.2446 39.7853 23.6511 39.7793 23.2813 40.1418C22.9115 40.5041 22.9055 41.0977 23.268 41.4675L24.0985 42.3147C24.3293 44.4655 25.2803 46.4849 26.7988 48.034L28.7331 50.0077C28.9167 50.1951 29.1596 50.2889 29.4027 50.2889C29.6395 50.2889 29.8764 50.1998 30.0588 50.0209C30.4285 49.6586 30.4345 49.0651 30.0722 48.6953L28.1378 46.7217Z" fill="#F58220"/>
<path d="M86.7324 39.2188C86.37 38.8489 85.7766 38.8432 85.4068 39.2054L84.0964 40.4896C83.7128 40.8657 83.5432 41.4054 83.6428 41.9331C84.0603 44.147 83.534 46.4576 82.1989 48.2722L80.4836 50.6036C80.4569 50.64 80.4329 50.6781 80.4116 50.7179L77.7671 55.6741C77.5064 56.1625 76.9488 56.4106 76.4122 56.2776C75.7778 56.1206 75.3841 55.4964 75.5162 54.8565C75.8305 53.3337 76.2092 51.5082 76.2092 51.5081C76.2931 51.1041 76.1028 50.6929 75.7407 50.495C75.3788 50.2972 74.9297 50.3594 74.635 50.6482L70.3037 54.8933C69.934 55.2556 69.928 55.8492 70.2905 56.219C70.6529 56.5888 71.2463 56.5947 71.6162 56.2323L73.7493 54.1416C73.7258 54.2547 73.7028 54.3669 73.6798 54.4777C73.3437 56.1076 74.3459 57.6977 75.9616 58.0975C76.2092 58.1588 76.4584 58.1884 76.7044 58.1884C77.8219 58.1884 78.8758 57.5784 79.421 56.5568L82.0338 51.6602L83.7088 49.3834C85.3224 47.1904 85.9755 44.4083 85.5109 41.7284L86.7189 40.5445C87.0889 40.1821 87.0949 39.5885 86.7324 39.2188Z" fill="#F58220"/>
<path d="M67.441 57.6985L65.4103 59.6888C65.1934 59.9015 64.9092 60.0137 64.6027 60.0137C64.2989 60.0107 64.0145 59.8895 63.8019 59.6725C63.3631 59.2248 63.3701 58.5037 63.8175 58.0646L73.0424 49.0233C73.4122 48.6609 73.4182 48.0673 73.0557 47.6976C72.6933 47.3277 72.0997 47.3218 71.73 47.6842L62.5056 56.7249C62.5053 56.7251 62.5052 56.7253 62.5049 56.7255L61.745 57.4704C61.2972 57.9093 60.5758 57.9022 60.1365 57.4542C59.9239 57.2372 59.8084 56.9504 59.8114 56.6466C59.8144 56.3429 59.9357 56.0584 60.1527 55.8458L70.1377 46.0596C70.5074 45.6973 70.5134 45.1037 70.151 44.734C69.7885 44.3641 69.195 44.3582 68.8253 44.7206L60.5765 52.8051C60.1289 53.2441 59.4073 53.2369 58.9681 52.789C58.7555 52.572 58.64 52.2851 58.643 51.9814C58.646 51.6776 58.7672 51.3931 58.9842 51.1805L67.233 43.096C67.6027 42.7337 67.6087 42.1401 67.2462 41.7703C66.8839 41.4005 66.2904 41.3946 65.9205 41.757L59.2031 48.3407C58.7551 48.7784 58.0345 48.7709 57.5958 48.3234C57.1568 47.8754 57.1641 47.1538 57.6119 46.7149L70.4283 34.154C71.7439 32.8645 73.4805 32.0832 75.3181 31.9537C75.5402 31.9381 75.7494 31.8439 75.9084 31.6881L76.995 30.6231C77.3649 30.2608 77.3709 29.6673 77.0084 29.2974C76.6462 28.9277 76.0526 28.9216 75.6828 29.2841L74.8354 30.1145C72.6847 30.3454 70.6653 31.2963 69.1159 32.8148L56.2997 45.3759C55.1137 46.5385 55.0944 48.4494 56.257 49.6357C56.5556 49.9405 56.9038 50.1675 57.2762 50.3178C56.9518 50.8007 56.7742 51.3674 56.7683 51.9625C56.7603 52.7671 57.0659 53.5267 57.6292 54.1013C57.9164 54.3944 58.2498 54.615 58.606 54.7652C58.1794 55.2912 57.9437 55.9406 57.9368 56.6278C57.9288 57.4324 58.2344 58.1919 58.7976 58.7665C59.3867 59.3676 60.1675 59.6689 60.9493 59.6689C61.1977 59.6689 61.4456 59.6353 61.6881 59.5743C61.8101 60.0896 62.0658 60.5797 62.4628 60.9847C63.026 61.5594 63.7793 61.8804 64.584 61.8884C64.5943 61.8885 64.6047 61.8885 64.6151 61.8885C65.4082 61.8885 66.1555 61.5834 66.7227 61.0276L68.7534 59.0373C69.1231 58.6749 69.1291 58.0813 68.7666 57.7116C68.4044 57.3421 67.8109 57.336 67.441 57.6985Z" fill="#F58220"/>
</g>
<defs>
<clipPath id="clip0_304_7">
<rect width="64" height="64" fill="white" transform="translate(23 29)"/>
</clipPath>
</defs>
</svg>
