<svg width="117" height="120" viewBox="0 0 117 120" fill="none" xmlns="http://www.w3.org/2000/svg">
<g clip-path="url(#clip0_304_4)">
<path d="M34.8839 50.3027H36.5539C37.0225 50.3027 37.4021 49.9229 37.4021 49.4545C37.4021 48.9861 37.0225 48.6063 36.5539 48.6063H35.086V37.8986H47.3056V48.6062H40.1687C39.7002 48.6062 39.3205 48.986 39.3205 49.4544C39.3205 49.9228 39.7002 50.3025 40.1687 50.3025H47.5077C48.3317 50.3025 49.0021 49.6321 49.0021 48.8082V37.6967C49.0021 36.8727 48.3317 36.2024 47.5077 36.2024H34.8839C34.06 36.2024 33.3896 36.8728 33.3896 37.6967V48.8082C33.3897 49.6323 34.06 50.3027 34.8839 50.3027Z" fill="#F58220"/>
<path d="M79.7054 34.485H77.9915V33.2828C77.9915 32.4491 77.3132 31.7708 76.4795 31.7708H58.6564C56.6985 31.7708 54.9761 32.7982 54 34.3424C53.0239 32.7982 51.3016 31.7708 49.3436 31.7708H31.5207C30.687 31.7708 30.0087 32.4491 30.0087 33.2828V34.485H28.2947C26.478 34.485 25.0001 35.963 25.0001 37.7796V82.9344C25.0001 84.7511 26.478 86.229 28.2947 86.229H79.7054C81.522 86.229 83.0001 84.7511 83.0001 82.9344V37.7796C83.0001 35.963 81.5221 34.485 79.7054 34.485ZM58.6564 33.4671H76.2951V73.8407H58.6564C57.1801 73.8407 55.8377 74.4249 54.8482 75.3742V68.8324C55.1137 68.9581 55.3511 69.1429 55.5416 69.3789C55.7092 69.5864 55.9545 69.6942 56.2021 69.6942C56.3891 69.6942 56.5775 69.6326 56.7344 69.5058C57.0989 69.2114 57.1558 68.6774 56.8614 68.313C56.3414 67.6693 55.634 67.2297 54.8482 67.0448V63.3326C55.1137 63.4583 55.3511 63.6432 55.5416 63.8792C55.7092 64.0867 55.9545 64.1945 56.2021 64.1945C56.3891 64.1945 56.5775 64.1328 56.7344 64.0061C57.0989 63.7117 57.1558 63.1777 56.8614 62.8133C56.3414 62.1696 55.634 61.7299 54.8482 61.545V57.8329C55.1137 57.9585 55.3511 58.1434 55.5416 58.3794C55.7092 58.587 55.9545 58.6947 56.2021 58.6947C56.3891 58.6947 56.5775 58.6331 56.7344 58.5063C57.0989 58.2119 57.1558 57.6779 56.8614 57.3136C56.3414 56.6699 55.634 56.2302 54.8482 56.0453V52.3331C55.1137 52.4588 55.3511 52.6437 55.5416 52.8797C55.7092 53.0872 55.9545 53.195 56.2021 53.195C56.3891 53.195 56.5775 53.1334 56.7344 53.0066C57.0989 52.7122 57.1558 52.1782 56.8614 51.8138C56.3414 51.1701 55.634 50.7304 54.8482 50.5455V46.8334C55.1137 46.959 55.3511 47.1439 55.5416 47.38C55.7092 47.5875 55.9545 47.6952 56.2021 47.6952C56.3891 47.6952 56.5775 47.6336 56.7344 47.5068C57.0989 47.2125 57.1558 46.6785 56.8614 46.3141C56.3414 45.6704 55.634 45.2307 54.8482 45.0458V41.3337C55.1137 41.4594 55.3511 41.6442 55.5416 41.8802C55.7092 42.0877 55.9545 42.1955 56.2021 42.1955C56.3891 42.1955 56.5775 42.1339 56.7344 42.0071C57.0989 41.7127 57.1558 41.1787 56.8614 40.8144C56.3414 40.1707 55.634 39.731 54.8482 39.5461V37.2754C54.8483 35.1755 56.5566 33.4671 58.6564 33.4671ZM31.705 75.5372H49.3437C51.4435 75.5372 53.152 77.2455 53.152 79.3454V79.3582H31.705V75.5372ZM31.705 33.4671H49.3437C51.4435 33.4671 53.152 35.1754 53.152 37.2754V39.5461C52.3662 39.731 51.6587 40.1707 51.1387 40.8144C50.8444 41.1788 50.9013 41.7128 51.2657 42.0071C51.6303 42.3015 52.164 42.2445 52.4585 41.8801C52.649 41.6442 52.8864 41.4593 53.152 41.3335V45.0457C52.3662 45.2306 51.6587 45.6703 51.1387 46.314C50.8444 46.6785 50.9013 47.2125 51.2657 47.5067C51.6303 47.8011 52.164 47.7442 52.4585 47.3797C52.649 47.1438 52.8864 46.9589 53.152 46.8332V50.5453C52.3662 50.7302 51.6587 51.1699 51.1387 51.8136C50.8444 52.1781 50.9013 52.7121 51.2657 53.0064C51.6303 53.3007 52.164 53.2438 52.4585 52.8794C52.649 52.6435 52.8864 52.4586 53.152 52.3328V56.0449C52.3662 56.2298 51.6587 56.6695 51.1387 57.3132C50.8444 57.6777 50.9013 58.2117 51.2657 58.506C51.6303 58.8003 52.164 58.7435 52.4585 58.379C52.649 58.1431 52.8864 57.9582 53.152 57.8324V61.5446C52.3662 61.7295 51.6587 62.1692 51.1387 62.8129C50.8444 63.1773 50.9013 63.7113 51.2657 64.0056C51.6303 64.3 52.164 64.2431 52.4585 63.8786C52.649 63.6427 52.8864 63.4578 53.152 63.332V67.0442C52.3662 67.2291 51.6587 67.6688 51.1387 68.3125C50.8444 68.677 50.9013 69.211 51.2657 69.5052C51.6303 69.7996 52.164 69.7426 52.4585 69.3782C52.649 69.1423 52.8864 68.9574 53.152 68.8317V75.3735C52.1624 74.4241 50.8201 73.84 49.3437 73.84H31.705V33.4671ZM81.3037 82.9343C81.3037 83.8156 80.5868 84.5326 79.7054 84.5326H28.2947C27.4134 84.5326 26.6964 83.8156 26.6964 82.9343V37.7796C26.6964 36.8983 27.4134 36.1813 28.2947 36.1813H30.0087V79.463C30.0087 80.3406 30.7226 81.0545 31.6002 81.0545H68.5201C68.9886 81.0545 69.3682 80.6748 69.3682 80.2064C69.3682 79.738 68.9886 79.3582 68.5201 79.3582H54.8483V79.3454C54.8483 77.2456 56.5566 75.5372 58.6566 75.5372H76.2953V79.3582H72.1347C71.6662 79.3582 71.2865 79.738 71.2865 80.2064C71.2865 80.6748 71.6662 81.0545 72.1347 81.0545H76.4001C77.2777 81.0545 77.9916 80.3406 77.9916 79.463V36.1813H79.7056C80.5869 36.1813 81.3038 36.8983 81.3038 37.7796V82.9343H81.3037Z" fill="#F58220"/>
<path d="M61.3962 49.8045C61.7529 50.1084 62.2883 50.0655 62.5918 49.7091C62.8958 49.3526 62.8531 48.8173 62.4964 48.5134C61.1117 47.3334 60.3175 45.616 60.3175 43.8013C60.3175 40.6762 62.646 38.0863 65.6589 37.6713V43.8013C65.6589 44.0263 65.7482 44.242 65.9072 44.401L70.2404 48.7342C69.2017 49.5222 67.9082 49.9908 66.5071 49.9908C66.1479 49.9908 65.78 49.9578 65.4137 49.8925C64.9538 49.8105 64.5121 50.1177 64.4301 50.5789C64.3479 51.04 64.6552 51.4805 65.1164 51.5626C65.5805 51.6453 66.0484 51.6872 66.5071 51.6872C68.6477 51.6872 70.5907 50.8287 72.013 49.4394C72.0371 49.42 72.0605 49.3996 72.0828 49.3772C72.1052 49.3548 72.1258 49.3314 72.1451 49.3073C73.5344 47.885 74.3929 45.942 74.3929 43.8014C74.3929 39.4532 70.8553 35.9155 66.5071 35.9155C62.1588 35.9155 58.6212 39.4532 58.6212 43.8014C58.6213 46.1137 59.6326 48.3018 61.3962 49.8045ZM72.6968 43.8013C72.6968 45.2026 72.228 46.496 71.44 47.5346L67.3553 43.45V37.6713C70.3681 38.0863 72.6968 40.6762 72.6968 43.8013Z" fill="#F58220"/>
<path d="M34.2378 56.4622H48.1537C48.6223 56.4622 49.0019 56.0824 49.0019 55.614C49.0019 55.1456 48.6223 54.7659 48.1537 54.7659H34.2378C33.7693 54.7659 33.3896 55.1456 33.3896 55.614C33.3896 56.0824 33.7693 56.4622 34.2378 56.4622Z" fill="#F58220"/>
<path d="M34.2378 60.931H48.1537C48.6223 60.931 49.0019 60.5512 49.0019 60.0828C49.0019 59.6144 48.6223 59.2346 48.1537 59.2346H34.2378C33.7693 59.2346 33.3896 59.6144 33.3896 60.0828C33.3896 60.5512 33.7693 60.931 34.2378 60.931Z" fill="#F58220"/>
<path d="M34.2378 65.3999H48.1537C48.6223 65.3999 49.0019 65.0202 49.0019 64.5518C49.0019 64.0834 48.6223 63.7036 48.1537 63.7036H34.2378C33.7693 63.7036 33.3896 64.0834 33.3896 64.5518C33.3896 65.0202 33.7693 65.3999 34.2378 65.3999Z" fill="#F58220"/>
<path d="M34.2378 69.8689H48.1537C48.6223 69.8689 49.0019 69.4892 49.0019 69.0208C49.0019 68.5524 48.6223 68.1726 48.1537 68.1726H34.2378C33.7693 68.1726 33.3896 68.5524 33.3896 69.0208C33.3896 69.4892 33.7693 69.8689 34.2378 69.8689Z" fill="#F58220"/>
<path d="M73.7624 54.7659H59.8465C59.3779 54.7659 58.9983 55.1456 58.9983 55.614C58.9983 56.0824 59.3779 56.4622 59.8465 56.4622H73.7624C74.2309 56.4622 74.6105 56.0824 74.6105 55.614C74.6105 55.1456 74.2308 54.7659 73.7624 54.7659Z" fill="#F58220"/>
<path d="M73.7624 59.2346H59.8465C59.3779 59.2346 58.9983 59.6144 58.9983 60.0828C58.9983 60.5512 59.3779 60.931 59.8465 60.931H73.7624C74.2309 60.931 74.6105 60.5512 74.6105 60.0828C74.6105 59.6144 74.2308 59.2346 73.7624 59.2346Z" fill="#F58220"/>
<path d="M73.7624 63.7036H59.8465C59.3779 63.7036 58.9983 64.0834 58.9983 64.5518C58.9983 65.0202 59.3779 65.3999 59.8465 65.3999H73.7624C74.2309 65.3999 74.6105 65.0202 74.6105 64.5518C74.6105 64.0834 74.2308 63.7036 73.7624 63.7036Z" fill="#F58220"/>
<path d="M73.7624 68.1726H59.8465C59.3779 68.1726 58.9983 68.5524 58.9983 69.0208C58.9983 69.4892 59.3779 69.8689 59.8465 69.8689H73.7624C74.2309 69.8689 74.6105 69.4892 74.6105 69.0208C74.6105 68.5524 74.2308 68.1726 73.7624 68.1726Z" fill="#F58220"/>
</g>
<path fill-rule="evenodd" clip-rule="evenodd" d="M97.8877 32.8268L83.8492 9.08895C81.0831 4.4117 75.5613 2.12213 70.2971 3.46962L43.5801 10.3084L16.6659 16.3245C11.3628 17.5098 7.47894 22.0538 7.13375 27.4768L5.38181 54.9995L2.78646 82.4555C2.27508 87.8653 5.3965 92.9633 10.4474 94.9674L36.0817 105.139L61.3918 116.091C66.3789 118.249 72.1919 116.856 75.6587 112.672L93.2535 91.435L111.491 70.7482C115.085 66.6721 115.556 60.7131 112.648 56.1229L97.8877 32.8268ZM85.9122 7.86892C82.6037 2.27457 75.9992 -0.463945 69.7028 1.14777L43.0214 7.97744L16.1431 13.9855C9.80012 15.4033 5.15476 20.8382 4.74187 27.3246L2.99227 54.8106L0.400387 82.2299C-0.211266 88.7006 3.52219 94.798 9.56347 97.1951L35.1635 107.353L60.44 118.291C66.4049 120.872 73.3577 119.206 77.5043 114.201L95.0756 92.9924L113.289 72.3332C117.587 67.4579 118.151 60.3304 114.672 54.8402L99.932 31.5751L85.9122 7.86892Z" fill="#F58220"/>
<defs>
<clipPath id="clip0_304_4">
<rect width="58" height="58" fill="white" transform="translate(25.0001 30)"/>
</clipPath>
</defs>
</svg>
