<svg width="562" height="451" viewBox="0 0 562 451" fill="none" xmlns="http://www.w3.org/2000/svg">
    <path
        d="M546 0H16C7.16344 0 0 7.16342 0 16V329.354C0 338.191 7.16344 345.354 16 345.354H546C554.837 345.354 562 338.191 562 329.354V16C562 7.16344 554.837 0 546 0Z"
        fill="#C9E0F4" />
    <path
        d="M560.944 16C560.944 7.16343 553.78 0 544.944 0H500.438C493.781 0 487.82 4.12177 485.469 10.3498L367.345 323.295C363.395 333.76 371.128 344.945 382.314 344.945H544.944C553.78 344.945 560.944 337.782 560.944 328.945V16Z"
        fill="#BEDBF4" />
    <g clip-path="url(#clip0_304_2)">
        <path d="M343.569 26.3718H217.018V41.2016H343.569V26.3718Z" fill="#1760B2" />
        <path d="M444.331 55.709H116.22V61.2612H444.331V55.709Z" fill="#1760B2" />
        <path d="M507.445 221.738H380.859V227.29H507.445V221.738Z" fill="#1760B2" />
        <path d="M489.872 235.529H380.859V241.081H489.872V235.529Z" fill="#1760B2" />
        <path d="M449.617 249.284H380.859V254.836H449.617V249.284Z" fill="#1760B2" />
        <path d="M492.193 274.968H380.859V280.52H492.193V274.968Z" fill="#97C3F2" />
        <path d="M476.727 288.759H380.859V294.311H476.727V288.759Z" fill="#97C3F2" />
        <path d="M107.219 208.126H53.4982V292.592H107.219V208.126Z" fill="#97C3F2" />
        <path d="M181.264 207.983H120.863V235.887H181.264V207.983Z" fill="#1760B2" />
        <path d="M181.264 249.499H120.863V292.735H181.264V249.499Z" fill="#97C3F2" />
        <path
            d="M336.21 293.308H224.376C219.625 293.308 215.732 289.403 215.732 284.639V228.293C215.732 223.529 219.625 219.625 224.376 219.625H336.21C340.961 219.625 344.854 223.529 344.854 228.293V284.639C344.854 289.439 340.961 293.308 336.21 293.308ZM224.376 220.986C220.339 220.986 217.089 224.281 217.089 228.293V284.639C217.089 288.687 220.375 291.947 224.376 291.947H336.21C340.247 291.947 343.497 288.651 343.497 284.639V228.293C343.497 224.245 340.211 220.986 336.21 220.986H224.376Z"
            fill="#70A0D3" />
        <path
            d="M229.162 277.69L227.947 277.081L235.591 261.75L245.057 271.672L256.272 247.314L271.346 261.535L287.955 244.878L304.171 254.836L324.959 233.093L325.959 234.024L304.385 256.556L288.169 246.597L271.381 263.433L256.737 249.606L245.45 274.072L235.948 264.078L229.162 277.69Z"
            fill="#1760B2" />
        <path d="M298.885 274.573H286.026V281.344H298.885V274.573Z" fill="#97C3F2" />
        <path d="M329.638 277.26H307.314V278.621H329.638V277.26Z" fill="#70A0D3" />
        <path d="M330.71 129.034C326.174 112.091 313.386 98.5505 296.885 92.9983L280.275 142.646L330.71 129.034Z"
            fill="#97C3F2" />
        <path opacity="0.5"
            d="M280.275 142.61L257.165 189.571C264.13 193.01 271.988 194.98 280.275 194.98C309.1 194.98 332.496 171.553 332.496 142.61C332.496 137.917 331.853 133.332 330.71 128.998L280.275 142.61Z"
            fill="#1760B2" />
        <path
            d="M296.885 92.9983C291.67 91.243 286.097 90.2759 280.275 90.2759C251.45 90.2759 228.055 113.703 228.055 142.646C228.055 163.243 239.913 181.046 257.165 189.607L280.275 142.646L296.885 92.9983Z"
            fill="#1760B2" />
        <path d="M154.153 179.398H80.6086V184.95H154.153V179.398Z" fill="#97C3F2" />
        <path d="M181.942 167.255H52.8196V92.3894H181.942V167.255ZM54.1769 165.894H180.585V93.7506H54.1769V165.894Z"
            fill="#70A0D3" />
        <path
            d="M172.477 108.724C168.191 107.864 163.94 110.658 161.226 114.097C159.94 115.745 158.868 117.536 157.833 119.327C156.69 121.333 155.547 123.339 154.154 125.201C151.51 128.676 147.367 131.613 143.045 130.968C136.044 129.894 132.222 120.258 125.114 120.365C121.793 120.437 118.971 122.73 116.721 125.165C114.47 127.601 112.399 130.359 109.47 131.9C105.362 134.049 100.29 133.368 96.0395 131.506C91.789 129.679 88.0385 126.813 84.0023 124.556C77.2158 120.759 69.5363 118.753 61.7854 118.574V155.183H172.906V121.512V108.831C172.799 108.795 172.656 108.759 172.477 108.724Z"
            fill="#97C3F2" />
        <path
            d="M96.0754 131.541C100.326 133.368 105.398 134.085 109.506 131.935C112.434 130.395 114.506 127.637 116.756 125.201C119.007 122.765 121.864 120.473 125.15 120.401C132.223 120.222 136.044 129.894 143.045 130.968C147.367 131.613 151.475 128.712 154.154 125.201C155.547 123.374 156.69 121.332 157.833 119.327C153.511 119.541 149.225 119.756 145.474 117.75C141.759 115.78 139.331 111.912 135.616 109.87C128.972 106.252 120.864 109.691 114.256 113.344C110.291 115.53 105.898 117.858 101.505 116.783C96.5397 115.565 93.6465 110.515 89.5389 107.506C81.6451 101.739 69.7865 104.533 63.0357 111.625C62.2142 112.485 61.8213 113.559 61.8213 114.67V118.503C69.5722 118.718 77.2517 120.724 84.0382 124.485C88.0744 126.849 91.8249 129.715 96.0754 131.541Z"
            fill="#1760B2" />
        <path d="M508.124 197.237H378.787V92.282H508.124V197.237ZM380.323 195.661H506.552V93.8223H380.323V195.661Z"
            fill="#70A0D3" />

        

        <path d="M413.72 112.95H400.183V136.019H413.72V112.95Z" fill="#97C3F2" />
        <path fill="#1760B2">
                <animate attributeName="d" dur="5000ms" repeatCount="indefinite" 
                    values="M413.72 135.983H400.183V181.619H413.72V135.983Z;
                                
                                M414 113H400V182H414V113Z;
                                
                                M413.72 135.983H400.183V181.619H413.72V135.983Z">
                </animate>
        </path>
        <path d="M438.044 112.95H424.507V147.195H438.044V112.95Z" fill="#97C3F2" />


        <path fill="#1760B2">
            <animate attributeName="d" dur="4000ms" repeatCount="indefinite" 
            values="M438.044 147.195H424.507V181.655H438.044V147.195Z;
                                
                                M438 113H425V182H438V113Z;
                                
                                M438.044 147.195H424.507V181.655H438.044V147.195Z">
                </animate>
        </path>



        <path d="M462.404 112.95H448.867V128.031H462.404V112.95Z" fill="#97C3F2" />
        <g>
            <path fill="#1760B2">
                <animate attributeName="d" dur="3000ms" repeatCount="indefinite" values="M462.404 128.031H448.867V181.655H462.404V128.031Z;
                                
                                M462 113H449V182H462V113Z;
                                
                                M462.404 128.031H448.867V181.655H462.404V128.031Z">
                </animate>
            </path>
        </g>


        <path d="M486.729 112.95H473.191V148.055H486.729V112.95Z" fill="#97C3F2" />
        <g class="line1">
            <path fill="#1760B2">
                <animate attributeName="d" dur="4000ms" repeatCount="indefinite" values="M486.729 148.019H473.191V181.619H486.729V148.019Z;
                                M487 113H473V182H487V113Z;
                                
                                M486.729 148.019H473.191V181.619H486.729V148.019Z">
                </animate>
            </path>


        </g>
    </g>
    <g clip-path="url(#clip1_304_2)">
        <path
            d="M144.683 258.598C141.215 254.235 138.048 250.926 133.675 246.563C130.056 242.803 126.437 237.989 123.27 233.777C122.818 233.175 122.365 232.573 121.762 232.122C121.159 231.671 120.405 231.37 119.651 230.919C118.596 230.166 117.691 229.113 116.334 228.813C115.731 228.662 115.127 228.813 114.524 228.813C113.77 228.813 113.619 228.662 112.865 228.662C111.961 228.662 110.151 228.662 109.246 228.813C107.588 229.264 106.532 230.166 105.477 230.166C105.778 231.069 106.231 231.219 106.683 231.37C107.889 231.52 109.096 230.919 110.302 230.768C111.358 230.618 112.564 231.069 113.619 231.37C115.278 231.972 116.484 232.423 116.484 234.078C115.881 234.83 115.58 234.529 114.977 234.529C114.373 234.529 113.77 234.529 113.167 234.379C112.564 234.228 112.262 233.777 111.659 233.476C110.604 233.025 109.096 232.423 108.794 234.078C109.096 234.98 110.151 235.883 111.508 236.184C112.413 236.485 112.715 236.785 113.619 237.237C114.373 237.688 114.977 238.44 115.731 238.891C116.786 239.493 117.54 239.343 118.746 239.343C119.048 239.343 119.35 239.343 119.651 239.493C120.254 239.794 120.858 240.396 121.31 240.997C124.627 247.165 125.381 253.784 128.548 260.102C131.865 266.721 135.786 273.34 143.175 273.792C144.381 273.792 145.889 273.641 146.794 272.739C147.246 272.287 147.548 271.535 147.699 270.933C148.754 267.022 147.397 262.058 144.683 258.598Z"
            fill="#FF998B" />
        <path
            d="M117.691 232.573C114.675 228.211 110.302 229.565 105.929 230.919C106.231 231.219 106.532 231.37 106.834 231.37C108.04 231.52 109.246 230.919 110.453 230.768C111.508 230.618 112.715 231.069 113.77 231.37C115.278 231.821 116.334 232.272 116.635 233.626C117.691 233.927 118.596 234.529 117.691 232.573Z"
            fill="#F27E72" />
        <path
            d="M144.683 258.598C141.215 254.235 138.048 250.926 133.675 246.563C130.056 242.803 126.437 237.989 123.27 233.777C122.818 233.175 122.365 232.573 121.762 232.122C121.159 231.671 120.405 231.37 119.651 230.919C118.596 230.166 117.691 229.113 116.334 228.813C115.731 228.662 115.127 228.813 114.524 228.813C113.77 228.813 113.619 228.662 112.865 228.662C111.961 228.662 110.151 228.662 109.246 228.813C107.588 229.264 106.532 230.166 105.477 230.166C105.627 230.467 105.778 230.618 105.778 230.768C110.151 229.264 114.675 227.91 117.54 232.423C118.445 234.379 117.54 233.777 116.484 233.626C116.484 233.777 116.484 233.927 116.484 234.078C115.881 234.83 115.58 234.529 114.977 234.529C114.373 234.529 113.77 234.529 113.167 234.379C112.564 234.228 112.262 233.777 111.659 233.476C110.604 233.025 109.096 232.423 108.794 234.078C109.096 234.98 110.151 235.883 111.508 236.184C112.413 236.485 112.715 236.785 113.619 237.237C114.373 237.688 114.977 238.44 115.731 238.891C116.786 239.493 117.54 239.343 118.746 239.343C119.048 239.343 119.35 239.343 119.651 239.493C120.254 239.794 120.858 240.396 121.31 240.997C124.627 247.165 125.381 253.784 128.548 260.102C131.865 266.721 135.786 273.34 143.175 273.792C144.381 273.792 145.889 273.641 146.794 272.739C147.246 272.287 147.548 271.535 147.699 270.933C148.754 267.022 147.397 262.058 144.683 258.598Z"
            fill="#FF998B" />
        <path
            d="M122.215 238.591C121.009 236.334 118.144 239.192 115.58 238.741L115.731 238.891C116.786 239.493 117.54 239.343 118.747 239.343C119.048 239.343 119.35 239.343 119.652 239.493C120.255 239.794 120.858 240.396 121.31 240.997C124.628 247.165 125.382 253.784 128.548 260.102C131.866 266.721 135.786 273.34 143.175 273.792C144.382 273.792 145.89 273.641 146.794 272.739C147.247 272.287 147.548 271.535 147.699 270.933C147.699 270.632 147.85 270.482 147.85 270.181C136.39 262.81 127.493 251.979 122.215 238.591Z"
            fill="#F27E72" />
        <path
            d="M114.072 217.53C113.318 216.628 114.223 214.522 113.318 213.92L109.096 210.31C105.778 208.956 101.858 208.805 98.5401 210.009C97.6353 210.31 96.7305 210.761 95.9766 211.363C94.3178 212.716 93.4131 214.973 93.4131 217.229C93.2623 219.486 93.8655 221.592 94.4686 223.698C94.921 225.353 94.921 225.353 95.8258 226.857C98.2385 230.768 102.159 233.175 106.683 232.874C108.342 232.724 111.961 232.573 113.016 231.37C113.469 230.919 114.977 229.715 114.977 229.113C114.524 224.149 116.635 220.84 114.072 217.53Z"
            fill="#FF998B" />
        <path
            d="M97.1825 228.813C99.5952 231.52 102.913 233.777 106.532 232.874C108.04 232.573 111.357 232.122 112.563 231.52C107.587 230.166 102.309 227.459 97.1825 228.813Z"
            fill="#F27E72" />
        <path
            d="M111.659 243.555C108.492 238.29 107.135 232.573 107.587 226.707H95.6745C96.4285 232.273 95.6745 237.838 93.5634 243.104C99.5952 243.404 105.627 243.404 111.659 243.555Z"
            fill="#FF998B" />
        <path
            d="M109.095 222.494C108.04 225.654 104.873 227.76 102.008 229.414C100.952 230.016 99.8968 230.618 98.6904 230.768C97.0317 230.768 95.5238 229.715 94.619 228.211C93.7142 226.857 93.1111 224.751 92.9603 223.096C92.5079 220.539 91.9047 218.583 91.7539 216.026C91.6031 214.221 92.8095 211.814 94.619 210.31C95.8253 209.256 95.9761 207.903 97.4841 207.451C98.992 207 100.198 206.85 101.857 207C105.476 207.15 109.095 207.903 112.714 208.354C113.468 208.504 114.222 208.655 114.675 209.106C115.881 210.159 115.278 212.115 114.222 213.318C113.167 214.522 111.659 215.274 110.905 216.477C109.548 218.132 109.698 220.539 109.095 222.494Z"
            fill="#283474" />
        <path
            d="M110.302 220.088C109.849 219.937 109.548 219.335 109.397 218.884C109.095 218.433 108.794 217.982 108.341 217.831C107.889 217.681 107.436 217.982 107.135 218.433C106.833 218.734 106.683 219.185 106.683 219.636C106.532 220.388 106.381 221.141 106.381 221.742C106.381 222.344 106.683 223.247 107.135 223.698C107.587 224.3 108.341 224.601 109.095 224.45C109.849 224.3 110.452 223.698 110.452 222.946L110.302 220.088Z"
            fill="#FF998B" />
        <path
            d="M108.643 221.893C108.643 222.043 108.492 222.043 108.342 222.194C107.738 222.494 107.437 222.946 107.135 223.547C106.984 222.795 106.834 222.043 106.984 221.291C107.135 220.99 107.286 220.84 107.286 220.539C107.437 220.388 107.588 220.238 107.889 220.238C107.588 220.088 107.286 219.787 107.286 219.486C107.286 219.185 107.437 218.734 107.738 218.583C108.342 218.734 108.492 219.185 108.794 219.787C108.945 219.937 108.945 220.238 108.945 220.388C108.945 220.539 108.643 220.689 108.643 220.84C108.492 220.99 108.342 221.291 108.492 221.441C108.492 221.742 108.643 221.742 108.643 221.893Z"
            fill="#F27E72" />
        <path
            d="M91.7544 292.596C84.6671 289.437 79.2385 281.464 72.7544 275.898C70.794 281.012 67.175 284.924 62.6512 287.631C71.0956 291.091 79.8417 293.047 87.6829 298.613C90.2464 294.702 89.3417 296.657 91.7544 292.596Z"
            fill="#FF998B" />
        <path
            d="M79.9925 291.242C75.7702 289.888 68.8337 283.118 74.2623 277.252C73.8099 276.8 73.3575 276.349 72.7544 275.898C70.794 281.012 67.175 284.924 62.6512 287.631C71.0956 291.091 79.8417 293.047 87.6829 298.613C88.7385 296.808 89.1909 296.206 89.4925 295.755C86.3258 294.551 83.0083 293.047 79.9925 291.242Z"
            fill="#F27E72" />
        <path
            d="M73.6591 276.199C72.7543 275.597 70.9448 274.694 70.0401 274.093C73.5083 269.279 78.3337 267.323 82.5559 263.111C84.9686 260.704 86.9289 256.943 88.1353 253.634C89.3416 250.324 88.5877 243.104 85.421 241.449C83.3099 240.396 80.7464 240.847 78.7861 242.051C76.8258 243.254 75.3178 245.059 73.8099 246.714C67.3258 254.386 57.2226 267.774 53.302 278.455C52.548 280.411 53.302 282.667 55.1115 283.871C57.9766 285.826 61.4448 287.782 64.0083 288.835C68.5321 286.278 71.6988 281.464 73.6591 276.199Z"
            fill="url(#paint0_linear_304_2)" />
        <path
            d="M88.4368 246.564C75.0162 245.21 69.5876 268.226 59.3337 276.349C57.9765 277.101 56.6194 277.703 55.1115 278.154C56.4686 278.305 57.6749 278.154 59.0321 277.703C59.3337 277.853 59.4845 278.004 59.7861 278.004C58.2781 278.606 56.7702 279.057 55.1115 279.358C57.2226 279.809 59.6353 279.659 61.7464 278.906C64.4607 280.26 67.1749 281.915 69.7384 283.72C71.3972 281.464 72.1511 280.561 73.0559 277.853C72.1511 277.252 68.8337 275.296 67.9289 274.694C71.3972 269.881 78.6353 267.173 82.8575 262.961C85.2702 260.554 87.2305 256.793 88.4368 253.483C88.8892 251.979 88.8892 249.121 88.4368 246.564Z"
            fill="url(#paint1_linear_304_2)" />
        <path
            d="M84.5161 438.213C83.0082 441.372 82.5558 444.983 83.0082 448.443C89.3415 448.142 95.5241 447.54 101.857 446.938C101.707 445.284 101.405 443.328 100.199 442.275C99.2939 441.523 98.0875 441.222 97.032 440.62C95.9764 439.868 95.2225 438.665 95.0717 437.461C92.2066 437.762 87.0796 438.965 84.5161 438.213Z"
            fill="#111520" />
        <path
            d="M82.707 449.496C88.1356 450.097 102.009 448.142 102.009 448.142L102.159 446.487C100.953 446.788 82.8578 447.991 82.8578 447.991L82.707 449.496Z"
            fill="white" />
        <path
            d="M89.3419 299.967C88.8896 300.267 88.588 300.719 88.2864 301.02C83.0086 309.594 85.7229 320.576 86.9292 330.655C87.6832 336.672 87.6832 342.689 87.6832 348.706C87.6832 355.325 87.9848 361.794 87.2308 368.413C86.4769 374.731 84.8181 380.899 84.3657 387.067C83.461 402.411 84.215 417.604 83.0086 433.099C88.1356 432.798 93.4134 433.249 98.3896 434.452C99.1435 411.737 104.874 392.031 108.644 369.165C111.358 353.219 111.207 335.92 111.961 316.364C112.112 310.497 111.358 304.48 111.961 298.763C105.175 300.117 98.2388 300.568 91.4531 299.816C90.6991 299.666 89.9451 299.666 89.3419 299.967Z"
            fill="url(#paint2_linear_304_2)" />
        <path
            d="M95.9769 311.7C92.5086 311.7 89.0404 311.399 85.7229 310.798L85.2705 310.647V311.099C85.2705 312.452 85.2705 313.806 85.2705 315.01V315.16C85.2705 316.364 85.4213 317.718 85.5721 318.921C85.8737 321.177 86.4769 323.283 87.5324 324.938C87.834 325.39 88.4372 325.841 89.0403 325.841C89.4927 325.841 89.9451 325.69 90.2467 325.39C91.7546 323.885 93.5642 322.531 95.5245 321.629L95.6753 321.478L96.7308 311.55L95.9769 311.7ZM86.0245 311.7C89.1911 312.152 92.3578 312.452 95.3737 312.452L95.2229 314.859C92.6594 315.311 90.5483 316.063 89.0403 317.266C88.2864 316.364 87.2308 315.461 86.0245 314.859C86.0245 313.806 86.0245 312.753 86.0245 311.7ZM89.3419 319.071C89.1911 319.071 89.0403 319.071 89.0403 318.921C88.8896 318.921 88.7388 318.771 88.588 318.771C88.7388 318.62 88.8896 318.47 89.0403 318.319C89.0403 318.62 89.1911 318.921 89.3419 319.071ZM89.3419 324.938C89.0404 325.239 88.2864 325.239 88.1356 324.788C87.2308 323.133 86.6277 321.177 86.3261 319.071C86.1753 317.868 86.1753 316.815 86.0245 315.762C86.9292 316.364 87.6832 316.965 88.2864 317.717C87.834 318.018 87.5324 318.47 87.2308 318.921L86.6277 319.824L87.6832 319.673C87.9848 319.673 88.4372 319.673 88.7388 319.824C89.1911 319.974 89.4927 319.974 89.9451 319.974C90.0959 319.974 90.0959 319.974 90.2467 319.974H90.8499L90.5483 319.372C90.2467 318.771 89.9451 318.319 89.6435 317.868C91.0007 316.815 92.961 316.063 95.2229 315.762L94.6197 321.027C92.6594 322.08 91.0007 323.434 89.3419 324.938Z"
            fill="#283474" />
        <path
            d="M111.81 298.763C108.492 299.515 105.024 299.816 101.556 300.117C99.4447 317.417 98.9923 334.265 101.254 351.715C103.818 369.917 98.6907 387.367 95.9764 406.472C95.0716 409.932 94.1669 413.392 94.1669 416.852C93.5637 422.568 93.1113 428.134 93.1113 433.7C94.7701 433.851 96.4288 434.152 98.0875 434.603C98.8415 411.888 104.572 392.181 108.341 369.316C111.056 353.37 110.905 336.07 111.659 316.514C112.111 310.497 111.207 304.63 111.81 298.763Z"
            fill="#3D149C" />
        <path
            d="M80.7467 432.948C80.7467 432.647 80.5959 432.196 80.7467 432.046C80.8975 431.745 81.3499 431.594 81.8023 431.444C87.3816 430.24 93.4134 431.143 98.5404 434.001C98.9927 434.302 99.2943 434.753 99.1435 435.355C98.8419 436.859 98.6912 438.364 98.5404 439.868C98.5404 440.319 98.088 440.771 97.4848 440.62C92.8102 439.718 87.834 438.965 83.1594 439.868C82.4054 440.018 81.8023 439.266 82.1038 438.665C82.2546 438.063 82.5562 437.461 82.4054 436.859C82.2546 436.408 81.9531 435.957 81.6515 435.506C81.1991 434.603 80.8975 433.851 80.7467 432.948Z"
            fill="#296BB0" />
        <path
            d="M92.3574 435.656C89.1908 435.355 85.8733 435.205 82.8574 436.408C82.8574 435.957 82.8574 435.355 82.8574 434.904C86.0241 434.152 89.3416 434.452 92.3574 435.656Z"
            fill="#283474" />
        <path
            d="M140.008 443.93C141.667 444.23 143.477 444.531 144.985 445.434C146.493 446.337 147.699 447.841 147.397 449.646C138.953 449.796 130.508 449.947 122.064 450.097C121.159 448.443 121.31 446.487 121.612 444.682C121.913 442.877 122.516 441.071 122.366 439.116C125.231 438.965 128.096 438.965 130.961 438.815C131.262 440.921 133.524 442.124 135.635 442.726C136.993 443.177 138.5 443.629 140.008 443.93Z"
            fill="#111520" />
        <path d="M121.159 448.894V451L147.548 450.248V449.044L121.159 448.894Z" fill="white" />
        <path
            d="M100.198 299.365C98.8413 307.037 97.3334 309.895 97.9365 317.567C98.6905 328.699 105.024 334.867 106.381 341.185C109.849 357.732 112.865 367.661 113.921 380.297C115.579 399.552 114.373 417.454 119.198 436.709C123.873 436.558 128.548 436.558 133.222 437.01C134.278 415.799 133.976 396.544 133.071 375.182C132.77 367.36 132.619 362.245 132.167 351.715C131.564 334.115 126.437 315.16 124.325 297.861C117.54 299.064 107.135 300.268 100.198 299.365Z"
            fill="url(#paint3_linear_304_2)" />
        <path
            d="M120.706 321.027L119.048 311.7L103.064 313.054V313.506C103.214 315.762 103.365 318.169 103.968 320.425C104.722 322.983 105.778 325.089 107.437 326.593C108.643 327.797 110.151 328.549 111.659 329.301C112.262 329.602 112.865 329.903 113.619 329.903C113.77 329.903 113.77 329.903 113.921 329.903C114.825 329.752 115.429 329.151 115.881 328.699L119.5 325.239C119.952 324.788 120.556 324.186 120.857 323.434C120.857 322.381 120.706 321.629 120.706 321.027ZM118.294 312.603L118.746 315.311C116.183 316.364 113.77 318.019 111.96 320.275C109.698 318.62 106.984 317.417 104.119 316.966C103.968 315.913 103.968 315.01 103.818 313.957L118.294 312.603ZM112.111 321.328C112.413 321.629 112.865 321.93 113.167 322.231L111.206 322.682C111.357 322.231 111.659 321.779 112.111 321.328ZM119.802 322.983C119.651 323.585 119.198 324.036 118.746 324.487L115.127 327.947C114.675 328.398 114.222 328.85 113.619 329H113.468C113.016 329 112.413 328.699 111.96 328.398C110.603 327.646 109.095 326.894 108.04 325.841C106.532 324.487 105.476 322.532 104.873 320.125C104.722 319.372 104.571 318.47 104.421 317.718C106.984 318.319 109.397 319.372 111.508 320.877C110.905 321.629 110.452 322.381 110 323.284L109.548 324.186L114.825 322.832L114.222 322.231C113.619 321.629 113.167 321.178 112.413 320.726C114.071 318.771 116.333 317.116 118.746 316.213L119.651 321.178C119.952 321.629 119.952 322.381 119.802 322.983Z"
            fill="#283474" />
        <path
            d="M133.222 375.182C132.921 367.36 133.071 362.095 132.77 351.565C132.167 333.964 126.889 315.01 124.778 297.71C124.024 297.861 119.5 298.312 118.746 298.462C130.659 343.893 131.564 390.376 130.056 436.709C131.111 436.709 132.468 437.01 133.524 437.01C134.579 415.649 134.127 396.393 133.222 375.182Z"
            fill="#3D149C" />
        <path
            d="M118.595 441.372C119.198 438.965 117.992 438.364 117.992 436.859C117.992 436.258 118.294 435.806 118.897 435.656C123.722 434.302 128.698 433.7 133.825 434.001C134.579 434.001 135.032 434.603 134.881 435.355C134.73 437.01 134.73 438.665 134.881 440.47C134.881 441.222 134.278 441.824 133.524 441.824C129 441.523 124.476 441.372 120.103 442.425C119.349 442.425 118.445 441.974 118.595 441.372Z"
            fill="#296BB0" />
        <path
            d="M134.127 435.806C132.468 434.753 130.206 434.753 128.246 435.205C126.285 435.656 124.476 436.408 122.516 436.859C126.285 436.559 130.206 436.258 134.127 435.806Z"
            fill="#283474" />
        <path
            d="M130.96 440.169C127.19 440.47 123.42 440.771 119.65 440.771C123.42 439.868 127.19 439.718 130.96 440.169Z"
            fill="#283474" />
        <path
            d="M95.6746 439.266C91.9047 438.815 87.9841 438.665 84.0635 438.665C87.9841 437.912 92.0555 438.213 95.6746 439.266Z"
            fill="#283474" />
        <path
            d="M86.7783 242.953C86.9291 241.449 86.9291 239.945 86.7783 238.44C93.8656 235.733 102.008 236.033 108.945 239.192C111.358 240.396 113.77 241.9 114.977 244.307C105.628 243.254 96.1275 243.405 86.7783 244.608V242.953Z"
            fill="#DE7A51" />
        <path
            d="M87.3818 239.042C87.3818 239.493 87.5326 239.945 87.5326 240.396C88.1358 240.396 88.5882 240.396 89.1914 240.396L89.0406 238.44C88.4374 238.44 87.985 238.741 87.3818 239.042Z"
            fill="#F9DD53" />
        <path
            d="M89.4929 240.246C89.7945 240.246 90.2469 240.246 90.5485 240.246V237.839C90.2469 237.989 89.7945 237.989 89.4929 238.139V240.246Z"
            fill="#F9DD53" />
        <path
            d="M91.4532 237.538V240.095C91.9056 240.095 92.358 240.095 92.6596 240.095V237.237C92.2072 237.387 91.9056 237.387 91.4532 237.538Z"
            fill="#F9DD53" />
        <path
            d="M95.8263 237.086C95.5247 237.086 95.3739 237.086 95.0723 237.086V240.095C95.3739 240.095 95.5247 240.095 95.8263 240.095C95.8263 239.042 95.8263 237.989 95.8263 237.086Z"
            fill="#F9DD53" />
        <path
            d="M93.7148 240.095C94.0164 240.095 94.318 240.095 94.4688 240.095V237.086C94.1672 237.086 93.8656 237.086 93.7148 237.086V240.095Z"
            fill="#F9DD53" />
        <path
            d="M84.6671 308.09C84.0639 309.745 83.9131 311.4 83.9131 313.205C91.302 314.408 98.5401 315.612 106.08 315.762C113.469 315.912 121.008 315.16 127.945 312.603C127.643 310.346 127.492 308.09 127.191 305.683C113.469 309.293 98.8417 308.692 84.6671 308.09Z"
            fill="#DE7A51" />
        <path
            d="M86.6274 310.948C85.8734 310.948 84.9687 310.798 84.5163 310.196C84.5163 311.099 84.5163 312.001 84.3655 312.753C85.1194 312.904 86.0242 313.054 86.7782 313.205V310.948H86.6274Z"
            fill="#F9DD53" />
        <path
            d="M87.5325 310.948V313.205C88.1356 313.355 88.7388 313.355 89.342 313.506V310.948C88.7388 310.948 88.1356 310.948 87.5325 310.948Z"
            fill="#F9DD53" />
        <path
            d="M90.3973 311.099L90.2465 313.656C91.302 313.806 92.3576 313.957 93.4131 314.107L93.5639 311.099C92.5084 311.099 91.4528 311.099 90.3973 311.099Z"
            fill="#F9DD53" />
        <path
            d="M97.1829 311.249L97.3337 314.709C98.0877 314.859 98.8417 314.859 99.5956 314.859V311.249C98.6909 311.249 97.9369 311.249 97.1829 311.249Z"
            fill="#F9DD53" />
        <path
            d="M104.119 311.249V315.01C104.723 315.01 105.326 315.01 106.08 315.01L105.929 311.099C105.326 311.099 104.723 311.249 104.119 311.249Z"
            fill="#F9DD53" />
        <path
            d="M106.984 311.099L107.135 315.01C107.588 315.01 107.889 315.01 108.342 315.01L108.191 311.099C107.738 311.099 107.437 311.099 106.984 311.099Z"
            fill="#F9DD53" />
        <path
            d="M110 311.099C109.548 311.099 109.096 311.099 108.794 311.099L108.945 314.859C109.397 314.859 109.699 314.859 110.151 314.709C110 313.506 110 312.302 110 311.099Z"
            fill="#F9DD53" />
        <path
            d="M100.952 311.249V314.859C101.706 314.859 102.46 315.01 103.214 315.01V311.249C102.46 311.249 101.706 311.249 100.952 311.249Z"
            fill="#F9DD53" />
        <path
            d="M94.9206 311.099L94.7698 314.258C95.373 314.408 95.9761 314.408 96.5793 314.408V311.099C95.9761 311.249 95.3729 311.249 94.9206 311.099Z"
            fill="#F9DD53" />
        <path
            d="M120.857 243.404C113.619 242.051 106.381 240.998 98.9922 240.697C95.2223 240.546 91.4525 240.546 87.6826 240.847C84.8176 241.148 81.5001 240.847 79.5398 243.404C74.8652 249.723 75.9207 259.35 77.4287 267.624C78.1826 271.836 79.8414 275.898 81.1985 279.959C82.5556 283.72 83.9128 287.18 84.9683 291.091C86.4763 296.206 85.8731 301.321 84.516 306.285C84.3652 307.037 84.0636 307.94 84.3652 308.692C84.8176 309.745 85.8731 310.046 86.9287 310.046C98.0874 310.647 113.921 311.7 126.587 307.94C128.699 307.338 127.643 305.232 128.095 303.276C128.548 300.869 127.945 298.613 127.643 296.206C124.627 274.093 127.643 251.227 120.857 243.404Z"
            fill="url(#paint4_linear_304_2)" />
        <path
            d="M127.794 296.206C124.929 274.092 128.095 251.227 121.159 243.404C120.405 243.254 119.5 243.104 118.746 242.953C120.556 246.864 121.159 251.076 121.159 254.687C121.159 272.889 125.079 290.489 124.024 308.692C124.929 308.391 125.984 308.24 126.889 307.94C129 307.338 127.945 305.232 128.397 303.276C128.698 300.869 128.095 298.613 127.794 296.206Z"
            fill="white" />
        <path
            d="M145.738 272.739C147.699 267.774 146.04 262.208 141.667 259.049C138.048 256.341 135.484 254.687 131.865 252.129C129.151 250.324 127.945 250.174 126.135 247.466C125.08 245.811 122.064 242.351 120.103 242.652C119.35 242.803 118.746 243.254 118.294 243.705C115.278 246.563 114.373 251.076 115.278 255.138C116.183 259.2 118.596 265.217 122.064 267.473C131.564 273.641 135.334 278.004 141.064 277.552C141.064 277.552 143.778 275.597 143.929 275.597C144.834 274.694 145.135 274.393 145.738 272.739Z"
            fill="url(#paint5_linear_304_2)" />
        <path
            d="M140.913 274.694C142.722 272.889 143.476 272.137 143.476 269.429C131.262 271.234 129.603 256.342 121.762 251.979C119.651 251.227 117.389 250.475 115.278 249.271C114.825 251.227 114.825 253.182 115.278 255.138C116.183 259.2 118.595 265.217 122.063 267.473C131.563 273.641 135.333 278.004 141.063 277.552C141.063 277.552 143.778 275.597 143.929 275.597C144.833 274.694 145.135 274.393 145.738 272.739C145.889 272.287 146.04 271.836 146.19 271.385C144.833 272.889 143.024 274.694 140.913 274.694Z"
            fill="url(#paint6_linear_304_2)" />
    </g>
    <defs>
        <linearGradient id="paint0_linear_304_2" x1="81.7081" y1="244.886" x2="64.464" y2="296.991"
            gradientUnits="userSpaceOnUse">
            <stop offset="0.00505051" stop-color="#66CCFF" />
            <stop offset="0.2461" stop-color="#62BCFE" />
            <stop offset="0.7134" stop-color="#5993FA" />
            <stop offset="1" stop-color="#5277F7" />
        </linearGradient>
        <linearGradient id="paint1_linear_304_2" x1="82.1962" y1="249.63" x2="70.8397" y2="291.385"
            gradientUnits="userSpaceOnUse">
            <stop offset="0.00505051" stop-color="#66CCFF" />
            <stop offset="0.2461" stop-color="#62BCFE" />
            <stop offset="0.7134" stop-color="#5993FA" />
            <stop offset="1" stop-color="#5277F7" />
        </linearGradient>
        <linearGradient id="paint2_linear_304_2" x1="83.8341" y1="428.305" x2="153.013" y2="350.48"
            gradientUnits="userSpaceOnUse">
            <stop offset="0.00505051" stop-color="#273B98" />
            <stop offset="0.2274" stop-color="#2F2BA2" />
            <stop offset="0.399" stop-color="#361CAC" />
            <stop offset="0.768" stop-color="#440B89" />
            <stop offset="1" stop-color="#4E0070" />
        </linearGradient>
        <linearGradient id="paint3_linear_304_2" x1="98.8281" y1="430.706" x2="166.916" y2="337.659"
            gradientUnits="userSpaceOnUse">
            <stop offset="0.00505051" stop-color="#273B98" />
            <stop offset="0.2274" stop-color="#2F2BA2" />
            <stop offset="0.399" stop-color="#361CAC" />
            <stop offset="0.768" stop-color="#440B89" />
            <stop offset="1" stop-color="#4E0070" />
        </linearGradient>
        <linearGradient id="paint4_linear_304_2" x1="118.073" y1="246.479" x2="92.903" y2="322.572"
            gradientUnits="userSpaceOnUse">
            <stop offset="0.00505051" stop-color="#66CCFF" />
            <stop offset="1" stop-color="#5277F7" />
        </linearGradient>
        <linearGradient id="paint5_linear_304_2" x1="140.375" y1="245.568" x2="129.707" y2="284.782"
            gradientUnits="userSpaceOnUse">
            <stop offset="0.00505051" stop-color="#66CCFF" />
            <stop offset="0.2461" stop-color="#62BCFE" />
            <stop offset="0.7134" stop-color="#5993FA" />
            <stop offset="1" stop-color="#5277F7" />
        </linearGradient>
        <linearGradient id="paint6_linear_304_2" x1="140.082" y1="251.648" x2="132.837" y2="284.151"
            gradientUnits="userSpaceOnUse">
            <stop offset="0.00505051" stop-color="#66CCFF" />
            <stop offset="0.2461" stop-color="#62BCFE" />
            <stop offset="0.7134" stop-color="#5993FA" />
            <stop offset="1" stop-color="#5277F7" />
        </linearGradient>
        <clipPath id="clip0_304_2">
            <rect width="455.305" height="267.939" fill="white" transform="translate(52.8196 26.3718)" />
        </clipPath>
        <clipPath id="clip1_304_2">
            <rect width="95" height="244" fill="white" transform="translate(53 207)" />
        </clipPath>
    </defs>







    <style>

    </style>



</svg>